<svg width="436" height="131" viewBox="0 0 436 131" fill="none" xmlns="http://www.w3.org/2000/svg">
<path d="M0 130.01V101.77H11.946C13.6302 101.77 15.0924 102.077 16.3327 102.691C17.573 103.304 18.526 104.153 19.1919 105.237C19.8708 106.32 20.2102 107.554 20.2102 108.938C20.2102 109.878 20.0405 110.746 19.7011 111.543C19.3616 112.326 18.8785 113.005 18.2519 113.579C17.6383 114.154 16.8941 114.598 16.0194 114.911V115.068C17.1944 115.381 18.1931 115.87 19.0156 116.536C19.8381 117.189 20.4648 117.986 20.8957 118.926C21.3265 119.852 21.5419 120.884 21.5419 122.02C21.5419 123.547 21.1829 124.918 20.4648 126.132C19.7598 127.333 18.7545 128.28 17.4489 128.972C16.1434 129.664 14.6093 130.01 12.8468 130.01H0ZM11.2801 125.936C12.2854 125.936 13.1732 125.767 13.9435 125.427C14.7138 125.075 15.3013 124.572 15.706 123.919C16.1238 123.253 16.3327 122.451 16.3327 121.511C16.3327 120.649 16.1238 119.911 15.706 119.298C15.3013 118.671 14.7203 118.194 13.9631 117.868C13.2058 117.542 12.3181 117.378 11.2997 117.378H5.09172V125.936H11.2801ZM10.5947 113.52C11.5478 113.52 12.3703 113.37 13.0622 113.07C13.7672 112.757 14.3025 112.313 14.6681 111.738C15.0467 111.151 15.236 110.459 15.236 109.662C15.236 108.853 15.0402 108.161 14.6485 107.587C14.2568 106.999 13.702 106.555 12.9839 106.255C12.2789 105.955 11.4564 105.805 10.5164 105.805H5.09172V113.52H10.5947Z" fill="#FF4F40"/>
<path d="M37.8942 130.48C35.4528 130.48 33.3834 130.056 31.6862 129.207C30.002 128.345 28.7291 127.118 27.8674 125.525C27.0188 123.919 26.5945 122.02 26.5945 119.826V101.77H31.882V119.513C31.882 121.654 32.3847 123.26 33.39 124.331C34.3953 125.401 35.8967 125.936 37.8942 125.936C39.9048 125.936 41.4062 125.401 42.3984 124.331C43.3906 123.26 43.8868 121.654 43.8868 119.513V101.77H49.1743V119.826C49.1743 122.033 48.75 123.932 47.9014 125.525C47.0658 127.118 45.7994 128.345 44.1022 129.207C42.418 130.056 40.3487 130.48 37.8942 130.48Z" fill="#FF4F40"/>
<path d="M65.0762 130.48C63.2353 130.48 61.5903 130.212 60.1411 129.677C58.6919 129.129 57.4582 128.332 56.4398 127.288C55.4345 126.23 54.6642 124.938 54.129 123.41L58.7507 121.432C59.051 122.32 59.4818 123.103 60.0432 123.782C60.6176 124.461 61.3226 125.003 62.1582 125.408C63.0068 125.799 63.9599 125.995 65.0174 125.995C66.088 125.995 67.0019 125.858 67.7591 125.584C68.5294 125.297 69.1169 124.885 69.5216 124.35C69.9264 123.815 70.1287 123.162 70.1287 122.392C70.1287 121.556 69.9264 120.884 69.5216 120.375C69.13 119.852 68.549 119.428 67.7787 119.102C67.0084 118.775 65.9444 118.462 64.5866 118.162C62.4454 117.666 60.709 117.117 59.3773 116.517C58.0457 115.903 57.0077 115.074 56.2636 114.03C55.5194 112.972 55.1473 111.621 55.1473 109.976C55.1473 108.135 55.5651 106.568 56.4006 105.276C57.2362 103.97 58.4112 102.985 59.9257 102.319C61.4401 101.64 63.2027 101.3 65.2132 101.3C66.9888 101.3 68.562 101.561 69.9329 102.084C71.3168 102.606 72.4592 103.363 73.36 104.355C74.2609 105.348 74.9136 106.536 75.3184 107.92L70.8533 109.858C70.5922 109.023 70.194 108.298 69.6587 107.685C69.1234 107.071 68.4772 106.601 67.7199 106.275C66.9627 105.935 66.1337 105.765 65.2328 105.765C64.2667 105.765 63.4246 105.909 62.7066 106.196C61.9885 106.47 61.4336 106.882 61.0419 107.43C60.6633 107.965 60.474 108.612 60.474 109.369C60.474 110.1 60.6568 110.7 61.0224 111.17C61.3879 111.64 61.9428 112.026 62.687 112.326C63.4311 112.626 64.456 112.933 65.7616 113.246C68.0202 113.769 69.835 114.336 71.2058 114.95C72.5897 115.551 73.6668 116.393 74.4371 117.476C75.2204 118.56 75.6121 119.996 75.6121 121.785C75.6121 123.691 75.1813 125.29 74.3196 126.583C73.471 127.875 72.2568 128.848 70.6771 129.501C69.1104 130.153 67.2434 130.48 65.0762 130.48Z" fill="#FF4F40"/>
<path d="M81.1934 130.029V101.79H86.481V130.029H81.1934Z" fill="#FF4F40"/>
<path d="M93.4919 130.01V101.77H98.7207L110.334 119.591C110.543 119.918 110.745 120.251 110.941 120.59C111.15 120.93 111.333 121.23 111.489 121.491H111.607V101.77H116.64V130.01H111.45L99.7978 112.169C99.5759 111.83 99.367 111.497 99.1711 111.17C98.9753 110.844 98.799 110.544 98.6424 110.27H98.5249V130.01H93.4919Z" fill="#FF4F40"/>
<path d="M123.651 130.01V101.77H142.098V106.157H128.762V113.599H140.395V117.692H128.762V125.623H142.098V130.01H123.651Z" fill="#FF4F40"/>
<path d="M157.119 130.48C155.278 130.48 153.633 130.212 152.184 129.677C150.735 129.129 149.501 128.332 148.483 127.288C147.477 126.23 146.707 124.938 146.172 123.41L150.793 121.432C151.094 122.32 151.525 123.103 152.086 123.782C152.66 124.461 153.365 125.003 154.201 125.408C155.05 125.799 156.003 125.995 157.06 125.995C158.131 125.995 159.045 125.858 159.802 125.584C160.572 125.297 161.16 124.885 161.564 124.35C161.969 123.815 162.171 123.162 162.171 122.392C162.171 121.556 161.969 120.884 161.564 120.375C161.173 119.852 160.592 119.428 159.821 119.102C159.051 118.775 157.987 118.462 156.629 118.162C154.488 117.666 152.752 117.117 151.42 116.517C150.088 115.903 149.05 115.074 148.306 114.03C147.562 112.972 147.19 111.621 147.19 109.976C147.19 108.135 147.608 106.568 148.443 105.276C149.279 103.97 150.454 102.985 151.968 102.319C153.483 101.64 155.245 101.3 157.256 101.3C159.032 101.3 160.605 101.561 161.976 102.084C163.36 102.606 164.502 103.363 165.403 104.355C166.304 105.348 166.956 106.536 167.361 107.92L162.896 109.858C162.635 109.023 162.237 108.298 161.701 107.685C161.166 107.071 160.52 106.601 159.763 106.275C159.005 105.935 158.176 105.765 157.276 105.765C156.309 105.765 155.467 105.909 154.749 106.196C154.031 106.47 153.476 106.882 153.085 107.43C152.706 107.965 152.517 108.612 152.517 109.369C152.517 110.1 152.7 110.7 153.065 111.17C153.431 111.64 153.986 112.026 154.73 112.326C155.474 112.626 156.499 112.933 157.804 113.246C160.063 113.769 161.878 114.336 163.249 114.95C164.632 115.551 165.71 116.393 166.48 117.476C167.263 118.56 167.655 119.996 167.655 121.785C167.655 123.691 167.224 125.29 166.362 126.583C165.514 127.875 164.3 128.848 162.72 129.501C161.153 130.153 159.286 130.48 157.119 130.48Z" fill="#FF4F40"/>
<path d="M182.577 130.48C180.737 130.48 179.092 130.212 177.642 129.677C176.193 129.129 174.96 128.332 173.941 127.288C172.936 126.23 172.166 124.938 171.63 123.41L176.252 121.432C176.552 122.32 176.983 123.103 177.545 123.782C178.119 124.461 178.824 125.003 179.66 125.408C180.508 125.799 181.461 125.995 182.519 125.995C183.589 125.995 184.503 125.858 185.26 125.584C186.031 125.297 186.618 124.885 187.023 124.35C187.428 123.815 187.63 123.162 187.63 122.392C187.63 121.556 187.428 120.884 187.023 120.375C186.631 119.852 186.05 119.428 185.28 119.102C184.51 118.775 183.446 118.462 182.088 118.162C179.947 117.666 178.21 117.117 176.879 116.517C175.547 115.903 174.509 115.074 173.765 114.03C173.021 112.972 172.649 111.621 172.649 109.976C172.649 108.135 173.066 106.568 173.902 105.276C174.738 103.97 175.913 102.985 177.427 102.319C178.941 101.64 180.704 101.3 182.715 101.3C184.49 101.3 186.063 101.561 187.434 102.084C188.818 102.606 189.96 103.363 190.861 104.355C191.762 105.348 192.415 106.536 192.82 107.92L188.355 109.858C188.094 109.023 187.695 108.298 187.16 107.685C186.625 107.071 185.979 106.601 185.221 106.275C184.464 105.935 183.635 105.765 182.734 105.765C181.768 105.765 180.926 105.909 180.208 106.196C179.49 106.47 178.935 106.882 178.543 107.43C178.165 107.965 177.975 108.612 177.975 109.369C177.975 110.1 178.158 110.7 178.524 111.17C178.889 111.64 179.444 112.026 180.188 112.326C180.932 112.626 181.957 112.933 183.263 113.246C185.522 113.769 187.336 114.336 188.707 114.95C190.091 115.551 191.168 116.393 191.938 117.476C192.722 118.56 193.113 119.996 193.113 121.785C193.113 123.691 192.683 125.29 191.821 126.583C190.972 127.875 189.758 128.848 188.178 129.501C186.612 130.153 184.745 130.48 182.577 130.48Z" fill="#FF4F40"/>
<path d="M0.352492 74.9629V1.93496H19.802V11.7257C21.7453 8.20209 24.634 5.29121 28.1427 3.32107C31.6514 1.35093 35.6407 0.399833 39.6609 0.574948C43.7919 0.448074 47.8766 1.47526 51.4562 3.54119C55.0359 5.60711 57.9687 8.62997 59.9256 12.2704C67.541 4.24566 73.3904 0.574948 82.5044 0.574948C98.9599 0.574948 108.209 9.81774 108.209 26.8245V74.9629H87.2645V35.3939C87.2645 25.1938 85.0892 20.5691 77.0644 20.5691C68.9044 20.5691 64.5503 25.5998 64.5503 35.3939V74.9629H43.4702V35.3939C43.4702 25.1938 41.2915 20.5691 33.2668 20.5691C25.1067 20.5691 20.7526 25.5998 20.7526 35.3939V74.9629H0.352492Z" fill="#FF4F40"/>
<path d="M133.021 11.4566C138.362 6.05693 145.178 2.35478 152.615 0.814656C160.052 -0.72547 167.778 -0.0349736 174.823 2.79951C181.869 5.63399 187.921 10.4862 192.22 16.7473C196.518 23.0084 198.872 30.3995 198.985 37.9933C199.126 43.0827 198.221 48.147 196.326 52.8727C194.432 57.5984 191.587 61.8851 187.97 65.4675C184.367 69.1619 180.047 72.0811 175.275 74.0457C170.504 76.0103 165.381 76.979 160.221 76.8923C155.05 77.035 149.908 76.0642 145.144 74.0458C140.381 72.0273 136.107 69.0084 132.612 65.1935C125.627 57.9801 121.766 48.3045 121.867 38.264C121.847 33.278 122.824 28.3383 124.739 23.7349C126.655 19.1314 129.47 14.957 133.021 11.4566ZM160.357 56.4789C163.956 56.6318 167.519 55.7032 170.586 53.8128C173.653 51.9223 176.084 49.1566 177.565 45.8721C179.046 42.5876 179.509 38.9349 178.895 35.3847C178.281 31.8345 176.618 28.5496 174.12 25.9532C171.622 23.3569 168.404 21.5682 164.88 20.8176C161.356 20.067 157.688 20.389 154.349 21.742C151.01 23.095 148.152 25.4171 146.145 28.4089C144.137 31.4007 143.072 34.9252 143.086 38.5281C142.998 43.198 144.768 47.7117 148.006 51.0775C151.245 54.4434 155.687 56.3861 160.357 56.4789Z" fill="#FF4F40"/>
<path d="M212.637 74.965V1.93699H233.037L232.767 11.7278C234.891 8.11909 237.971 5.16784 241.667 3.20002C245.363 1.2322 249.532 0.324429 253.711 0.576982C268.81 0.576982 278.601 10.0971 278.601 26.8265V74.965H257.111V35.3959C257.111 25.1958 254.936 20.5711 246.641 20.5711C238.206 20.5711 233.717 25.6018 233.717 35.3959V74.965H212.637Z" fill="#FF4F40"/>
<path d="M369.785 11.4463C375.125 6.04558 381.942 2.34244 389.379 0.801669C396.816 -0.739105 404.543 -0.0488744 411.59 2.78574C418.636 5.62035 424.688 10.4731 428.987 16.7349C433.286 22.9967 435.639 30.3886 435.752 37.9831C435.893 43.0725 434.988 48.1367 433.093 52.8625C431.198 57.5882 428.354 61.8749 424.736 65.4573C421.133 69.1512 416.813 72.07 412.042 74.0346C407.27 75.9992 402.148 76.9682 396.988 76.882C391.816 77.025 386.674 76.0543 381.911 74.0359C377.147 72.0174 372.873 68.9983 369.379 65.1833C362.394 57.9699 358.533 48.2942 358.634 38.2538C358.614 33.2681 359.59 28.3287 361.505 23.7254C363.42 19.122 366.235 14.9474 369.785 11.4463ZM397.13 56.4687C400.73 56.621 404.292 55.6918 407.359 53.8009C410.426 51.91 412.856 49.144 414.336 45.8594C415.816 42.5749 416.279 38.9222 415.665 35.3722C415.051 31.8223 413.387 28.5376 410.889 25.9416C408.391 23.3456 405.172 21.5572 401.649 20.8069C398.125 20.0566 394.457 20.3788 391.118 21.732C387.779 23.0851 384.922 25.4072 382.915 28.399C380.907 31.3907 379.842 34.9151 379.856 38.5178C379.769 43.1881 381.54 47.7018 384.779 51.0675C388.018 54.4333 392.46 56.3759 397.13 56.4687Z" fill="#FF4F40"/>
<path d="M294.267 74.9639V59.7397L324.326 20.8276H294.267V1.93595H348.535V19.2101L322.012 56.069H349.08V74.9639H294.267Z" fill="#FF4F40"/>
</svg>
