<svg width="24" height="24" viewBox="0 0 24 24" fill="none" xmlns="http://www.w3.org/2000/svg">
<path d="M16.5 1H4.5C3.4 1 2.5 1.9 2.5 3V17H4.5V3H16.5V1ZM19.5 5H8.5C7.4 5 6.5 5.9 6.5 7V21C6.5 22.1 7.4 23 8.5 23H19.5C20.6 23 21.5 22.1 21.5 21V7C21.5 5.9 20.6 5 19.5 5ZM19.5 21H8.5V7H19.5V21Z" fill="#091723" style="fill:#091723;fill:color(display-p3 0.0353 0.0902 0.1373);fill-opacity:1;"/>
<path d="M17.5 2C17.5 2.55228 17.0523 3 16.5 3C15.9477 3 15.5 2.55228 15.5 2C15.5 1.44772 15.9477 1 16.5 1C17.0523 1 17.5 1.44772 17.5 2Z" fill="#091723" style="fill:#091723;fill:color(display-p3 0.0353 0.0902 0.1373);fill-opacity:1;"/>
<path d="M4.5 17C4.5 17.5523 4.05228 18 3.5 18C2.94772 18 2.5 17.5523 2.5 17C2.5 16.4477 2.94772 16 3.5 16C4.05228 16 4.5 16.4477 4.5 17Z" fill="#091723" style="fill:#091723;fill:color(display-p3 0.0353 0.0902 0.1373);fill-opacity:1;"/>
</svg>
