<svg width="24" height="24" viewBox="0 0 24 24" fill="none" xmlns="http://www.w3.org/2000/svg">
<path fill-rule="evenodd" clip-rule="evenodd" d="M17 16.12C16.24 16.12 15.56 16.42 15.04 16.89L7.91 12.74C7.96 12.51 8 12.28 8 12.04C8 11.8 7.96 11.57 7.91 11.34L14.96 7.23001C15.5 7.73001 16.21 8.04001 17 8.04001C18.66 8.04001 20 6.70001 20 5.04001C20 3.38001 18.66 2.04001 17 2.04001C15.34 2.04001 14 3.38001 14 5.04001C14 5.28001 14.04 5.51001 14.09 5.74001L7.04 9.85001C6.5 9.35001 5.79 9.04001 5 9.04001C3.34 9.04001 2 10.38 2 12.04C2 13.7 3.34 15.04 5 15.04C5.79 15.04 6.5 14.73 7.04 14.23L14.16 18.39C14.11 18.6 14.08 18.82 14.08 19.04C14.08 20.65 15.39 21.96 17 21.96C18.61 21.96 19.92 20.65 19.92 19.04C19.92 17.43 18.61 16.12 17 16.12Z" fill="#091723" style="fill:#091723;fill:color(display-p3 0.0353 0.0902 0.1373);fill-opacity:1;"/>
</svg>
