<svg width="24" height="24" viewBox="0 0 24 24" fill="none" xmlns="http://www.w3.org/2000/svg">
<path fill-rule="evenodd" clip-rule="evenodd" d="M12 22C17.5229 22 22 17.5229 22 12C22 6.47705 17.5229 2 12 2C6.47705 2 2 6.47705 2 12C2 17.5229 6.47705 22 12 22ZM11 8C11 7.44775 11.4478 7 12 7C12.5522 7 13 7.44775 13 8V11H16C16.5522 11 17 11.4478 17 12C17 12.5522 16.5522 13 16 13H13V16C13 16.5522 12.5522 17 12 17C11.4478 17 11 16.5522 11 16V13H8C7.44775 13 7 12.5522 7 12C7 11.4478 7.44775 11 8 11H11V8Z" fill="#091723" style="fill:#091723;fill:color(display-p3 0.0353 0.0902 0.1373);fill-opacity:1;"/>
</svg>
