<svg width="24" height="24" viewBox="0 0 24 24" fill="none" xmlns="http://www.w3.org/2000/svg">
<path fill-rule="evenodd" clip-rule="evenodd" d="M12.0044 2C12.5172 2 12.9399 2.38604 12.9976 2.88338L13.0044 3L13.0041 4.267L14.1024 3.63397C14.5466 3.37756 15.1056 3.50054 15.4043 3.90237L15.4685 4C15.7249 4.44413 15.6019 5.00319 15.2001 5.30189L15.1024 5.36603L13.0041 6.577L13.004 10.267L16.2002 8.422L16.2005 6C16.2005 5.48716 16.5865 5.06449 17.0839 5.00673L17.2005 5C17.7133 5 18.136 5.38604 18.1938 5.88338L18.2005 6L18.2002 7.267L19.2986 6.63397C19.7427 6.37756 20.3018 6.50054 20.6005 6.90237L20.6646 7C20.921 7.44413 20.798 8.00319 20.3962 8.30189L20.2986 8.36603L19.2012 9L20.2986 9.63397C20.7427 9.89039 20.9157 10.436 20.7171 10.8956L20.6646 11C20.4082 11.4441 19.8625 11.6172 19.4029 11.4185L19.2986 11.366L17.2002 10.155L14.004 11.999L17.2002 13.8448L19.2986 12.634C19.7427 12.3776 20.3018 12.5005 20.6005 12.9024L20.6646 13C20.921 13.4441 20.798 14.0032 20.3962 14.3019L20.2986 14.366L19.2002 14.9998L20.2986 15.634C20.7427 15.8904 20.9157 16.436 20.7171 16.8956L20.6646 17C20.4082 17.4441 19.8625 17.6172 19.4029 17.4185L19.2986 17.366L18.2002 16.7318L18.2005 18C18.2005 18.5128 17.8145 18.9355 17.3171 18.9933L17.2005 19C16.6877 19 16.265 18.614 16.2072 18.1166L16.2005 18L16.2002 15.5768L13.003 13.731L13.0041 17.422L15.1024 18.634C15.5466 18.8904 15.7196 19.436 15.5209 19.8956L15.4685 20C15.212 20.4441 14.6664 20.6172 14.2068 20.4185L14.1024 20.366L13.0041 19.732L13.0044 21C13.0044 21.5128 12.6183 21.9355 12.121 21.9933L12.0044 22C11.4915 22 11.0688 21.614 11.0111 21.1166L11.0044 21L11.0041 19.732L9.90628 20.366C9.46215 20.6224 8.90309 20.4995 8.60439 20.0976L8.54026 20C8.28384 19.5559 8.40682 18.9968 8.80865 18.6981L8.90628 18.634L11.0041 17.422L11.004 13.731L7.80796 15.5768L7.8082 18C7.8082 18.5128 7.42216 18.9355 6.92483 18.9933L6.8082 19C6.29537 19 5.8727 18.614 5.81493 18.1166L5.8082 18L5.80796 16.7318L4.71013 17.366C4.266 17.6224 3.70693 17.4995 3.40824 17.0976L3.3441 17C3.08768 16.5559 3.21067 15.9968 3.61249 15.6981L3.71013 15.634L4.80796 14.9998L3.71013 14.366C3.266 14.1096 3.09298 13.564 3.29162 13.1044L3.3441 13C3.60052 12.5559 4.14618 12.3828 4.60577 12.5815L4.71013 12.634L6.80796 13.8448L10.003 11.999L6.80796 10.155L4.71013 11.366C4.266 11.6224 3.70693 11.4995 3.40824 11.0976L3.3441 11C3.08768 10.5559 3.21067 9.99681 3.61249 9.69811L3.71013 9.63397L4.80696 9L3.71013 8.36603C3.266 8.10961 3.09298 7.56395 3.29162 7.10436L3.3441 7C3.60052 6.55587 4.14618 6.38285 4.60577 6.58149L4.71013 6.63397L5.80796 7.267L5.8082 6C5.8082 5.48716 6.19424 5.06449 6.69158 5.00673L6.8082 5C7.32104 5 7.74371 5.38604 7.80148 5.88338L7.8082 6L7.80796 8.422L11.003 10.267L11.0041 6.577L8.90628 5.36603C8.46215 5.10961 8.28913 4.56395 8.48777 4.10436L8.54026 4C8.79667 3.55587 9.34233 3.38285 9.80192 3.58149L9.90628 3.63397L11.0041 4.267L11.0044 3C11.0044 2.48716 11.3904 2.06449 11.8877 2.00673L12.0044 2Z" fill="#091723" style="fill:#091723;fill:color(display-p3 0.0353 0.0902 0.1373);fill-opacity:1;"/>
</svg>
