<svg width="24" height="24" viewBox="0 0 24 24" fill="none" xmlns="http://www.w3.org/2000/svg">
<path d="M17.765 7.83L21.415 11.49C22.195 12.27 22.195 13.54 21.415 14.32L17.755 17.98C16.975 18.76 15.705 18.76 14.925 17.98L11.265 14.33C10.485 13.55 10.485 12.28 11.265 11.5L14.935 7.82C15.725 7.04 16.985 7.04 17.765 7.83ZM19.295 12.19L17.045 9.94C16.655 9.55 16.025 9.55 15.625 9.94L13.385 12.18C12.995 12.57 12.995 13.2 13.385 13.59L15.635 15.84C16.025 16.23 16.655 16.23 17.055 15.84L19.295 13.61C19.685 13.22 19.685 12.58 19.295 12.19ZM4.335 6.64C6.085 4.88 8.395 4 10.695 4V3.17C10.695 2.28 11.775 1.83 12.405 2.46L14.225 4.29C14.615 4.68 14.615 5.31 14.225 5.7L12.395 7.53C11.775 8.16 10.695 7.72 10.695 6.83V6C8.675 6 6.665 6.86 5.245 8.61C3.195 11.13 3.195 14.88 5.245 17.4C6.665 19.14 8.675 20 10.695 20C11.475 20 12.245 19.87 12.985 19.61C13.345 19.49 13.735 19.6 14.005 19.87C14.505 20.37 14.345 21.26 13.665 21.49C12.705 21.83 11.705 22 10.695 22C8.395 22 6.085 21.12 4.335 19.36C0.814999 15.85 0.814999 10.15 4.335 6.64Z" fill="#091723" style="fill:#091723;fill:color(display-p3 0.0353 0.0902 0.1373);fill-opacity:1;"/>
</svg>
