<svg width="24" height="24" viewBox="0 0 24 24" fill="none" xmlns="http://www.w3.org/2000/svg">
<path fill-rule="evenodd" clip-rule="evenodd" d="M18 9L17.1528 19.1661C17.0664 20.2027 16.1999 21 15.1597 21H8.84027C7.80009 21 6.93356 20.2027 6.84717 19.1661L6 9H18ZM6 7C5.44772 7 5 6.55228 5 6C5 5.48716 5.38604 5.06449 5.88338 5.00673L6 5H8L9.41421 3.58579C9.78929 3.21071 10.298 3 10.8284 3H13.1716C13.702 3 14.2107 3.21071 14.5858 3.58579L16 5H18C18.5523 5 19 5.44772 19 6C19 6.51284 18.614 6.93551 18.1166 6.99327L18 7H6Z" fill="#091723" style="fill:#091723;fill:color(display-p3 0.0353 0.0902 0.1373);fill-opacity:1;"/>
</svg>
