<svg width="24" height="24" viewBox="0 0 24 24" fill="none" xmlns="http://www.w3.org/2000/svg">
<path d="M5.93001 7.83L2.28001 11.49C1.50001 12.27 1.50001 13.54 2.28001 14.32L5.94001 17.98C6.72001 18.76 7.99001 18.76 8.77001 17.98L12.43 14.33C13.21 13.55 13.21 12.28 12.43 11.5L8.76001 7.82C7.97001 7.04 6.71001 7.04 5.93001 7.83ZM4.40001 12.19L6.65001 9.94C7.04001 9.55 7.67001 9.55 8.07001 9.94L10.31 12.18C10.7 12.57 10.7 13.2 10.31 13.59L8.06001 15.84C7.67001 16.23 7.04001 16.23 6.64001 15.84L4.40001 13.61C4.01001 13.22 4.01001 12.58 4.40001 12.19ZM19.36 6.64C17.61 4.88 15.3 4 13 4V3.17C13 2.28 11.92 1.83 11.29 2.46L9.47001 4.29C9.08001 4.68 9.08001 5.31 9.47001 5.7L11.3 7.53C11.92 8.16 13 7.72 13 6.83V6C15.02 6 17.03 6.86 18.45 8.61C20.5 11.13 20.5 14.88 18.45 17.4C17.03 19.14 15.02 20 13 20C12.22 20 11.45 19.87 10.71 19.61C10.35 19.49 9.96001 19.6 9.69001 19.87C9.19001 20.37 9.35001 21.26 10.03 21.49C10.99 21.83 11.99 22 13 22C15.3 22 17.61 21.12 19.36 19.36C22.88 15.85 22.88 10.15 19.36 6.64Z" fill="#091723" style="fill:#091723;fill:color(display-p3 0.0353 0.0902 0.1373);fill-opacity:1;"/>
</svg>
