<svg width="24" height="24" viewBox="0 0 24 24" fill="none" xmlns="http://www.w3.org/2000/svg">
<path d="M8.02458 7.90232C8.02456 7.90234 8.02459 7.90231 8.02458 7.90232L3.17268 3.05043C2.78216 2.6599 2.14899 2.6599 1.75847 3.05043C1.36794 3.44095 1.36795 4.07412 1.75847 4.46464L6.65957 9.36574C4.51651 11.8527 2.99976 14.6245 2.99976 16.9566C2.99976 18.203 3.43691 19.297 4.40629 20.1723C4.97648 20.686 5.63221 21 6.28803 21C6.79175 21 7.28593 20.8002 7.628 20.315L9.69981 17.3943C10.023 16.9281 10.175 16.5476 10.175 16.205C10.175 15.7579 9.92792 15.3584 9.49077 14.9207L8.80652 14.2357C8.70191 14.1215 8.65442 13.9883 8.65442 13.8647C8.65442 13.7124 8.71145 13.5697 8.76847 13.4746C8.93029 13.1744 9.2304 12.7669 9.60908 12.3152L18.729 21.4352C19.1196 21.8257 19.7527 21.8257 20.1432 21.4352C20.5338 21.0447 20.5338 20.4115 20.1432 20.021L10.9675 10.8453C10.9675 10.8453 10.9675 10.8452 10.9675 10.8453L8.02458 7.90232Z" fill="#091723" style="fill:#091723;fill:color(display-p3 0.0353 0.0902 0.1373);fill-opacity:1;"/>
<path d="M12.4416 9.49087C12.8472 9.15488 13.2126 8.89043 13.4918 8.74629C13.5963 8.6892 13.7295 8.64163 13.8815 8.64163C13.9955 8.64163 14.1286 8.6797 14.2426 8.78434L14.9364 9.46933C15.3831 9.89745 15.7727 10.1544 16.2194 10.1544C16.571 10.1544 16.9512 10.0021 17.4074 9.67864L20.2965 7.61416C20.7907 7.26215 20.9998 6.76744 20.9998 6.22515C20.9998 5.57821 20.7146 4.93128 20.1729 4.36997C19.2796 3.4186 18.1676 3 16.9417 3C14.6437 3 11.9444 4.45783 9.49548 6.54471L12.4416 9.49087Z" fill="#091723" style="fill:#091723;fill:color(display-p3 0.0353 0.0902 0.1373);fill-opacity:1;"/>
</svg>
