<svg width="24" height="24" viewBox="0 0 24 24" fill="none" xmlns="http://www.w3.org/2000/svg">
<path d="M18 19.0005C18.55 19.0005 19 19.4505 19 20.0005C18.9997 20.5503 18.5498 21.0005 18 21.0005H6C5.45016 21.0005 5.00026 20.5503 5 20.0005C5 19.4505 5.45 19.0005 6 19.0005H18Z" fill="#091723" style="fill:#091723;fill:color(display-p3 0.0353 0.0902 0.1373);fill-opacity:1;"/>
<path d="M11.29 4.29246C11.68 3.90248 12.3102 3.90249 12.7002 4.29246L17.29 8.8823C17.92 9.51231 17.4798 10.5923 16.5898 10.5923H15V15.5923C15 16.1423 14.55 16.5923 14 16.5923H10C9.45004 16.5922 9 16.1422 9 15.5923V10.5923H7.41016C6.52017 10.5923 6.0702 9.5123 6.7002 8.8823L11.29 4.29246Z" fill="#091723" style="fill:#091723;fill:color(display-p3 0.0353 0.0902 0.1373);fill-opacity:1;"/>
</svg>
