<svg width="24" height="24" viewBox="0 0 24 24" fill="none" xmlns="http://www.w3.org/2000/svg">
<path d="M16.5 1H4.5C3.4 1 2.5 1.9 2.5 3V17C2.5 17.5523 2.94772 18 3.5 18C4.05228 18 4.5 17.5523 4.5 17V3H16.5C17.0523 3 17.5 2.55228 17.5 2C17.5 1.44772 17.0523 1 16.5 1Z" fill="#091723" style="fill:#091723;fill:color(display-p3 0.0353 0.0902 0.1373);fill-opacity:1;"/>
<path d="M15.0038 14.9842H17.0042C17.7769 14.9842 18.0033 14.3172 18.0033 14.0035C18.0033 13.6168 17.7631 12.9942 17.0042 12.9942H14.9951V10.9964C14.9951 10.3331 14.5563 10.0067 14.0082 10.0008C13.4542 9.99492 13 10.4647 13 10.9964V12.9942H10.9948C10.2951 12.9942 10.0139 13.4309 10.0036 13.9746C9.99302 14.5288 10.4061 14.9929 10.9948 14.9929H13.0087V17.0133C13.0087 17.6369 13.4432 17.9897 13.9864 18.0005C14.5406 18.0115 15.0038 17.6923 15.0038 17.0133V14.9842Z" fill="#091723" style="fill:#091723;fill:color(display-p3 0.0353 0.0902 0.1373);fill-opacity:1;"/>
<path fill-rule="evenodd" clip-rule="evenodd" d="M19.5 5H8.5C7.4 5 6.5 5.9 6.5 7V21C6.5 22.1 7.4 23 8.5 23H19.5C20.6 23 21.5 22.1 21.5 21V7C21.5 5.9 20.6 5 19.5 5ZM19.5 21H8.5V7H19.5V21Z" fill="#091723" style="fill:#091723;fill:color(display-p3 0.0353 0.0902 0.1373);fill-opacity:1;"/>
</svg>
