<svg width="24" height="24" viewBox="0 0 24 24" fill="none" xmlns="http://www.w3.org/2000/svg">
<path d="M18.6 3C19.15 3 19.6208 3.19583 20.0125 3.5875C20.4042 3.97917 20.6 4.45 20.6 5L20.6 19C20.6 19.55 20.4042 20.0208 20.0125 20.4125C19.6208 20.8042 19.15 21 18.6 21H12.6C12.3167 21 12.0792 20.9042 11.8875 20.7125C11.6958 20.5208 11.6 20.2833 11.6 20C11.6 19.7167 11.6958 19.4792 11.8875 19.2875C12.0792 19.0958 12.3167 19 12.6 19H18.6V5L12.6 5C12.3167 5 12.0792 4.90417 11.8875 4.7125C11.6958 4.52083 11.6 4.28333 11.6 4C11.6 3.71667 11.6958 3.47917 11.8875 3.2875C12.0792 3.09583 12.3167 3 12.6 3H18.6ZM6.42501 11L13.6 11C13.8833 11 14.1208 11.0958 14.3125 11.2875C14.5042 11.4792 14.6 11.7167 14.6 12C14.6 12.2833 14.5042 12.5208 14.3125 12.7125C14.1208 12.9042 13.8833 13 13.6 13L6.42501 13L8.30001 14.875C8.48334 15.0583 8.57501 15.2833 8.57501 15.55C8.57501 15.8167 8.48334 16.05 8.30001 16.25C8.11667 16.45 7.88334 16.5542 7.60001 16.5625C7.31667 16.5708 7.07501 16.475 6.87501 16.275L3.3 12.7C3.1 12.5 3.00001 12.2667 3.00001 12C3.00001 11.7333 3.1 11.5 3.3 11.3L6.87501 7.725C7.07501 7.525 7.31251 7.42917 7.58751 7.4375C7.86251 7.44583 8.10001 7.55 8.30001 7.75C8.48334 7.95 8.57084 8.1875 8.56251 8.4625C8.55417 8.7375 8.45834 8.96667 8.27501 9.15L6.42501 11Z" fill="#091723" style="fill:#091723;fill:color(display-p3 0.0353 0.0902 0.1373);fill-opacity:1;"/>
</svg>
