<svg width="24" height="24" viewBox="0 0 24 24" fill="none" xmlns="http://www.w3.org/2000/svg">
<path fill-rule="evenodd" clip-rule="evenodd" d="M7.4 14C8.78071 14 9.9 15.1193 9.9 16.5C9.9 18.9853 7.88526 21 5.4 21C4.4938 21 3.65015 20.7321 2.94393 20.2713C2.67622 20.0918 2.5 19.7865 2.5 19.44C2.5 18.9946 2.79118 18.6172 3.19356 18.4878L3.30592 18.4588C4.16841 18.281 4.9 17.5478 4.90441 16.6497L4.9 16.5C4.9 15.1193 6.01929 14 7.4 14ZM20.9142 3.58579C21.6953 4.36684 21.6953 5.63317 20.9142 6.41421L11.796 15.5336C11.6089 14.6788 11.1789 13.915 10.582 13.318C10.2043 12.9403 9.75978 12.6295 9.2677 12.4047L18.0858 3.58579C18.8668 2.80474 20.1332 2.80474 20.9142 3.58579Z" fill="#091723" style="fill:#091723;fill:color(display-p3 0.0353 0.0902 0.1373);fill-opacity:1;"/>
</svg>
