<svg width="24" height="24" viewBox="0 0 24 24" fill="none" xmlns="http://www.w3.org/2000/svg">
<path fill-rule="evenodd" clip-rule="evenodd" d="M12.7873 13.6107C12.7873 14.0253 12.4392 14.3736 12.0083 14.3736C11.5857 14.3736 11.2375 14.0253 11.2375 13.6107V5.26756L11.2956 4.03186L10.7818 4.64556L9.62984 5.88126C9.49724 6.03055 9.29835 6.10518 9.10774 6.10518C8.72652 6.10518 8.41989 5.83151 8.41989 5.44172C8.41989 5.23439 8.49448 5.08511 8.63536 4.94412L11.4198 2.26538C11.6188 2.06634 11.8094 2 12.0083 2C12.2155 2 12.3978 2.06634 12.5967 2.26538L15.3812 4.94412C15.5221 5.08511 15.6049 5.23439 15.6049 5.44172C15.6049 5.83151 15.2901 6.10518 14.9089 6.10518C14.7183 6.10518 14.5276 6.03055 14.3867 5.88126L13.2348 4.64556L12.721 4.04015L12.7873 5.26756V13.6107ZM19.5 18.2963C19.5 20.0711 18.5718 21 16.7734 21H7.22652C5.43647 21 4.5 20.0711 4.5 18.2963V10.144C4.5 8.36097 5.43647 7.44041 7.22652 7.44041H9.48895V9.09077H7.33426C6.57183 9.09077 6.14918 9.48885 6.14918 10.2851V18.1471C6.14918 18.9433 6.57183 19.3413 7.33426 19.3413H16.6657C17.4199 19.3413 17.8509 18.9433 17.8509 18.1471V10.2851C17.8509 9.48885 17.4199 9.09077 16.6657 9.09077H14.5359V7.44041H16.7734C18.5718 7.44041 19.5 8.36926 19.5 10.144V18.2963Z" fill="#091723" style="fill:#091723;fill:color(display-p3 0.0353 0.0902 0.1373);fill-opacity:1;"/>
</svg>
