<svg width="24" height="24" viewBox="0 0 24 24" fill="none" xmlns="http://www.w3.org/2000/svg">
<path d="M8 17.175V6.825C8 6.54166 8.1 6.30416 8.3 6.1125C8.5 5.92083 8.73333 5.825 9 5.825C9.08333 5.825 9.17083 5.8375 9.2625 5.8625C9.35417 5.8875 9.44167 5.925 9.525 5.975L17.675 11.15C17.825 11.25 17.9375 11.375 18.0125 11.525C18.0875 11.675 18.125 11.8333 18.125 12C18.125 12.1667 18.0875 12.325 18.0125 12.475C17.9375 12.625 17.825 12.75 17.675 12.85L9.525 18.025C9.44167 18.075 9.35417 18.1125 9.2625 18.1375C9.17083 18.1625 9.08333 18.175 9 18.175C8.73333 18.175 8.5 18.0792 8.3 17.8875C8.1 17.6958 8 17.4583 8 17.175Z" fill="#091723" style="fill:#091723;fill:color(display-p3 0.0353 0.0902 0.1373);fill-opacity:1;"/>
</svg>
