<svg width="24" height="24" viewBox="0 0 24 24" fill="none" xmlns="http://www.w3.org/2000/svg">
<path d="M14.975 11.125L12.875 9.025L7.725 14.175C7.625 14.275 7.55 14.3873 7.5 14.512C7.45 14.6373 7.425 14.7667 7.425 14.9V16.075C7.425 16.2083 7.475 16.325 7.575 16.425C7.675 16.525 7.79167 16.575 7.925 16.575H9.1C9.23333 16.575 9.36267 16.55 9.488 16.5C9.61267 16.45 9.725 16.375 9.825 16.275L14.975 11.125ZM15.575 10.525L16.275 9.825C16.475 9.625 16.575 9.39167 16.575 9.125C16.575 8.85833 16.475 8.625 16.275 8.425L15.575 7.725C15.375 7.525 15.1417 7.425 14.875 7.425C14.6083 7.425 14.375 7.525 14.175 7.725L13.475 8.425L15.575 10.525ZM12 22C10.6167 22 9.31667 21.7373 8.1 21.212C6.88333 20.6873 5.825 19.975 4.925 19.075C4.025 18.175 3.31267 17.1167 2.788 15.9C2.26267 14.6833 2 13.3833 2 12C2 10.6167 2.26267 9.31667 2.788 8.1C3.31267 6.88333 4.025 5.825 4.925 4.925C5.825 4.025 6.88333 3.31233 8.1 2.787C9.31667 2.26233 10.6167 2 12 2C13.3833 2 14.6833 2.26233 15.9 2.787C17.1167 3.31233 18.175 4.025 19.075 4.925C19.975 5.825 20.6873 6.88333 21.212 8.1C21.7373 9.31667 22 10.6167 22 12C22 13.3833 21.7373 14.6833 21.212 15.9C20.6873 17.1167 19.975 18.175 19.075 19.075C18.175 19.975 17.1167 20.6873 15.9 21.212C14.6833 21.7373 13.3833 22 12 22Z" fill="#091723" style="fill:#091723;fill:color(display-p3 0.0353 0.0902 0.1373);fill-opacity:1;"/>
</svg>
