<svg width="23" height="24" viewBox="0 0 23 24" fill="none" xmlns="http://www.w3.org/2000/svg">
<g clip-path="url(#clip0_390_2897)">
<path d="M11.478 23.7339C17.8159 23.7339 22.9539 18.479 22.9539 11.9974C22.9539 5.51478 17.8164 0.260868 11.478 0.260868C5.13963 0.260868 0.00164795 5.51478 0.00164795 11.9974C0.00164795 18.479 5.13963 23.7339 11.478 23.7339Z" fill="#13B5EA"/>
<path d="M5.49531 11.9661L7.45361 9.95739C7.51226 9.88853 7.54302 9.79944 7.53963 9.70825C7.53625 9.61705 7.49896 9.5306 7.43537 9.46647C7.37177 9.40234 7.28664 9.36535 7.19728 9.36302C7.10792 9.36068 7.02105 9.39319 6.95433 9.45391L4.99705 11.4537L3.03211 9.45026C2.96576 9.38343 2.87613 9.34624 2.78293 9.34687C2.68972 9.34751 2.60059 9.38592 2.53512 9.45365C2.46966 9.52139 2.43323 9.61289 2.43385 9.70805C2.43448 9.8032 2.4721 9.89421 2.53844 9.96104L4.49674 11.963L2.53947 13.9664C2.50492 13.9991 2.47714 14.0384 2.45778 14.0822C2.43841 14.126 2.42786 14.1733 2.42674 14.2214C2.42561 14.2694 2.43395 14.3172 2.45125 14.3619C2.46855 14.4066 2.49446 14.4472 2.52745 14.4815C2.56044 14.5158 2.59983 14.543 2.64329 14.5614C2.68675 14.5798 2.73339 14.5892 2.78045 14.5889C2.82752 14.5886 2.87404 14.5786 2.91727 14.5596C2.9605 14.5406 2.99955 14.513 3.03211 14.4783L4.99449 12.4737L6.94922 14.4704C6.99739 14.5227 7.05986 14.559 7.12851 14.5745C7.19716 14.5901 7.2688 14.5841 7.3341 14.5575C7.39939 14.5309 7.45532 14.4848 7.49459 14.4252C7.53387 14.3657 7.55467 14.2954 7.55429 14.2237C7.55451 14.1767 7.54559 14.1301 7.52805 14.0867C7.5105 14.0432 7.48468 14.0038 7.45208 13.9706L5.4948 11.964M17.1373 11.9656C17.1373 12.3256 17.4235 12.6177 17.7761 12.6177C17.9455 12.6177 18.108 12.5489 18.2277 12.4265C18.3475 12.3042 18.4147 12.1383 18.4146 11.9653C18.4146 11.7923 18.3472 11.6265 18.2273 11.5042C18.1075 11.382 17.945 11.3133 17.7756 11.3134C17.4245 11.3134 17.1388 11.6056 17.1388 11.9656M15.9287 11.9656C15.9287 10.9247 16.7566 10.0769 17.7756 10.0769C18.7925 10.0769 19.6219 10.9247 19.6219 11.9656C19.6219 13.0064 18.793 13.8543 17.7756 13.8543C17.2855 13.8534 16.8157 13.6541 16.4694 13.3C16.1232 12.9459 15.9287 12.4659 15.9287 11.9656ZM15.202 11.9656C15.202 13.416 16.3569 14.5972 17.7756 14.5972C19.1942 14.5972 20.3492 13.417 20.3492 11.9661C20.3492 10.5157 19.1942 9.33443 17.7756 9.33443C17.0927 9.33582 16.4383 9.61365 15.9558 10.107C15.4733 10.6004 15.2022 11.2684 15.202 11.9656ZM15.0195 9.3793H14.9122C14.5877 9.3793 14.275 9.48365 14.0138 9.68974C13.9959 9.61004 13.9521 9.53886 13.8896 9.48773C13.8271 9.4366 13.7495 9.4085 13.6694 9.408C13.6236 9.408 13.5782 9.41724 13.5359 9.4352C13.4936 9.45316 13.4552 9.47948 13.4229 9.51265C13.3906 9.54582 13.3651 9.58517 13.3477 9.62846C13.3304 9.67174 13.3216 9.7181 13.3219 9.76487L13.3229 14.197C13.3279 14.2886 13.367 14.3748 13.4323 14.4377C13.4976 14.5007 13.5841 14.5358 13.6739 14.5356C13.7638 14.5355 13.8501 14.5002 13.9153 14.437C13.9804 14.3739 14.0193 14.2876 14.024 14.196V11.4704C14.024 10.5626 14.1058 10.1953 14.8662 10.0983C14.9378 10.0894 15.0134 10.091 15.0144 10.091C15.2219 10.0831 15.3701 9.93652 15.3701 9.73878C15.3698 9.64349 15.3326 9.55219 15.2665 9.4849C15.2004 9.41761 15.1108 9.37983 15.0175 9.37983M8.28098 11.533C8.28098 11.5226 8.282 11.5122 8.28252 11.5028C8.38462 11.091 8.61909 10.7261 8.94838 10.4666C9.27768 10.207 9.68276 10.0677 10.0988 10.071C10.5148 10.0743 10.9177 10.22 11.243 10.4848C11.5683 10.7496 11.7972 11.1181 11.893 11.5315H8.28047L8.28098 11.533ZM12.611 11.4652C12.4597 10.7332 12.0678 10.1317 11.4714 9.74557C11.0392 9.46858 10.5364 9.32823 10.0263 9.34216C9.51624 9.35608 9.02155 9.52366 8.60447 9.82383C8.18243 10.1338 7.86088 10.5656 7.6812 11.0637C7.50151 11.5618 7.47191 12.1034 7.59619 12.6188C7.72614 13.1317 8.00369 13.5932 8.39302 13.9435C8.78235 14.2938 9.26559 14.517 9.78037 14.5842C10.0911 14.6228 10.3936 14.605 10.7053 14.5216C10.9783 14.4538 11.2384 14.3403 11.475 14.1856C11.7238 14.0223 11.9318 13.8063 12.1342 13.548C12.1373 13.5428 12.1414 13.5391 12.1455 13.5339C12.2855 13.3565 12.2594 13.103 12.1061 12.983C11.9763 12.8812 11.7586 12.84 11.5879 13.0643C11.5511 13.1186 11.5097 13.1739 11.4653 13.2287C11.3288 13.3826 11.1597 13.5313 10.9573 13.6471C10.6987 13.788 10.4054 13.8678 10.0936 13.8699C9.07258 13.8579 8.52679 13.129 8.33209 12.6094C8.29808 12.5108 8.27193 12.4096 8.2539 12.3068L8.24879 12.252H11.9129C12.4148 12.2405 12.6846 11.8779 12.61 11.4642L12.611 11.4652Z" fill="white"/>
</g>
<defs>
<clipPath id="clip0_390_2897">
<rect width="23" height="24" fill="white"/>
</clipPath>
</defs>
</svg>
