<svg width="24" height="24" viewBox="0 0 24 24" fill="none" xmlns="http://www.w3.org/2000/svg">
<g clip-path="url(#clip0_390_2887)">
<path d="M2.65218 5C4.15375 5 5.37468 6.07404 5.40281 7.56889C5.41688 7.98971 5.12219 8.2221 4.79938 8.2221C4.49062 8.2221 4.22406 7.99003 4.21 7.59798C4.19594 6.75601 3.50844 6.13189 2.63813 6.13189C1.82406 6.13189 1.20687 6.72692 1.20687 7.5398C1.20687 8.42508 1.78219 8.81713 2.975 9.26705C4.25188 9.74605 5.41688 10.312 5.41688 11.9956C5.41688 13.4617 4.30812 14.6372 2.76468 14.6372C1.24907 14.6372 0 13.5341 0 12.0392C0 11.1103 0.435 10.4571 0.855938 10.4571C1.22094 10.4571 1.44531 10.7037 1.44531 11.0376C1.44531 11.3279 1.20687 11.4584 1.20687 11.9811C1.20687 12.91 1.93656 13.505 2.76468 13.505C3.63468 13.505 4.21 12.8809 4.21 12.1262C4.21 11.1973 3.63468 10.8055 2.44188 10.3698C1.10875 9.87694 0 9.28159 0 7.64161C0 6.1613 1.15063 5 2.65218 5Z" fill="#00D639"/>
<path d="M8.77656 14.6375C7.26094 14.6375 5.99812 13.3747 5.99812 11.7781C5.99812 10.1235 7.275 8.88985 8.81875 8.88985C10.4747 8.88985 11.6393 10.1672 11.6393 11.909V14.0279C11.6393 14.3909 11.3587 14.6375 11.036 14.6375C10.6991 14.6375 10.4184 14.3909 10.4184 14.0279V11.9523C10.4184 10.8055 9.78691 10.0217 8.79062 10.0217C7.90656 10.0217 7.205 10.791 7.205 11.7781C7.205 12.6924 7.89249 13.4762 8.76281 13.4762C9.08562 13.4762 9.22593 13.3893 9.42249 13.3893C9.68908 13.3893 9.96969 13.6214 9.96969 13.9552C9.9694 14.4051 9.45 14.6375 8.77656 14.6375Z" fill="#00D639"/>
<path d="M15.0971 18.9628C13.5253 18.9628 12.2203 17.8015 12.2203 16.292C12.2203 15.784 12.5009 15.5519 12.8238 15.5519C13.1465 15.5519 13.4131 15.7698 13.4272 16.1906C13.4412 17.134 14.1709 17.8306 15.0831 17.8306C16.0516 17.8306 16.6828 17.1919 16.6828 16.3644C16.6828 15.421 15.9812 15.0293 14.7884 14.6372C13.3991 14.1727 12.2203 13.5341 12.2203 11.7635C12.2203 10.1378 13.4272 8.88985 14.9987 8.88985C16.5844 8.88985 17.8897 10.0799 17.8897 11.6475C17.8897 12.6055 17.511 13.3456 16.9915 13.3456C16.6406 13.3456 16.4022 13.0845 16.4022 12.7652C16.4022 12.4313 16.6828 12.2862 16.6828 11.6911C16.6828 10.6895 15.9249 10.0221 15.0128 10.0221C14.1287 10.0221 13.4272 10.7189 13.4272 11.6333C13.4272 12.6637 14.1428 13.0994 15.3216 13.5056C16.6828 13.9701 17.8897 14.5506 17.8897 16.2488C17.8897 17.7727 16.725 18.9628 15.0971 18.9628Z" fill="#00D639"/>
<path d="M21.3338 14.6375C19.7619 14.6375 18.471 13.3602 18.471 11.7639C18.471 10.1672 19.72 8.89018 21.2634 8.89018C22.8213 8.89018 24 10.0078 24 11.4303C24 11.9817 23.6213 12.3156 23.0038 12.3156H21.39C21.0672 12.3156 20.8287 12.0835 20.8287 11.7784C20.8287 11.4882 21.0672 11.2558 21.39 11.2558H22.5969C22.7091 11.2558 22.7935 11.1976 22.7935 11.0816C22.7935 10.6607 22.2741 10.0075 21.306 10.0075C20.4079 10.0075 19.6782 10.8059 19.6782 11.7639C19.6782 12.7364 20.4219 13.5057 21.3481 13.5057C22.4148 13.5057 22.7656 12.8524 23.2006 12.8524C23.5656 12.8524 23.7619 13.099 23.7619 13.3751C23.7619 13.6362 23.5934 13.8686 23.1725 14.1443C22.7509 14.4197 22.1197 14.6375 21.3338 14.6375Z" fill="#00D639"/>
</g>
<defs>
<clipPath id="clip0_390_2887">
<rect width="24" height="24" fill="white"/>
</clipPath>
</defs>
</svg>
