<svg width="24" height="24" viewBox="0 0 24 24" fill="none" xmlns="http://www.w3.org/2000/svg">
<g clip-path="url(#clip0_390_2900)">
<path d="M12 0C18.6274 0 24 5.37262 24 12C24 18.6274 18.6274 24 12 24C5.37262 24 0 18.6274 0 12C0 5.37262 5.37262 0 12 0Z" fill="#2CA01C"/>
<path d="M3.33338 12C3.33338 10.7623 3.82505 9.57533 4.70022 8.70015C5.57539 7.82498 6.76238 7.33331 8.00007 7.33331H8.66663V9.06675H8.00007C7.61288 9.06365 7.22891 9.13724 6.87031 9.28327C6.5117 9.42929 6.18555 9.64487 5.91067 9.91756C5.63579 10.1903 5.41761 10.5147 5.26872 10.8721C5.11983 11.2295 5.04318 11.6129 5.04318 12.0001C5.04318 12.3873 5.11983 12.7707 5.26872 13.1281C5.41761 13.4855 5.63579 13.8099 5.91067 14.0826C6.18555 14.3553 6.5117 14.5709 6.87031 14.7169C7.22891 14.8629 7.61288 14.9365 8.00007 14.9334H9.6V5.86669C9.60015 5.40703 9.7828 4.96624 10.1078 4.64119C10.4328 4.31615 10.8736 4.13345 11.3333 4.13325V16.6667H8.00007C7.38721 16.6667 6.78035 16.546 6.21414 16.3115C5.64793 16.077 5.13346 15.7333 4.7001 15.2999C4.26674 14.8666 3.92297 14.3521 3.68844 13.7859C3.4539 13.2197 3.33338 12.6129 3.33338 12ZM15.9999 16.6667H15.3334V14.9332H15.9999C16.7721 14.9245 17.5098 14.6116 18.0527 14.0625C18.5957 13.5134 18.9002 12.7723 18.9002 12C18.9002 11.2277 18.5957 10.4866 18.0527 9.93751C17.5098 9.38836 16.7721 9.07548 15.9999 9.06675H14.4V18.1331C14.4 18.3608 14.3552 18.5862 14.2681 18.7965C14.181 19.0068 14.0534 19.1979 13.8924 19.3588C13.7315 19.5198 13.5404 19.6475 13.3301 19.7346C13.1198 19.8217 12.8944 19.8666 12.6668 19.8666V7.33313H15.9999C17.2376 7.33313 18.4246 7.82479 19.2998 8.69997C20.175 9.57514 20.6666 10.7621 20.6666 11.9998C20.6666 13.2375 20.175 14.4245 19.2998 15.2997C18.4246 16.1748 17.2376 16.6667 15.9999 16.6667Z" fill="white"/>
</g>
<defs>
<clipPath id="clip0_390_2900">
<rect width="24" height="24" fill="white" transform="matrix(1 0 0 -1 0 24)"/>
</clipPath>
</defs>
</svg>
