<svg width="24" height="24" viewBox="0 0 24 24" fill="none" xmlns="http://www.w3.org/2000/svg">
<rect width="24" height="24" rx="12" fill="white"/>
<path d="M9.09919 20C8.12389 20 7.25308 19.7676 6.48698 19.3021C5.72067 18.8368 5.11463 18.2005 4.66865 17.3932C4.22288 16.5854 4 15.6687 4 14.6423C4 13.616 4.22288 12.7058 4.66887 11.9122C5.11463 11.1048 5.72067 10.4753 6.48698 10.0235C7.25308 9.55844 8.12389 9.3258 9.09919 9.3258C9.87918 9.3258 10.5619 9.46943 11.1472 9.75669C11.6161 9.98704 12.0136 10.2922 12.3395 10.6718C12.4132 10.7582 12.5681 10.7094 12.5681 10.5972V5.60971C12.5681 5.55572 12.607 5.50923 12.6613 5.49818L15.1023 5.00246C15.175 4.98765 15.2434 5.04165 15.2434 5.11398V19.6398C15.2434 19.6548 15.2403 19.6696 15.2344 19.6835C15.2285 19.6973 15.2199 19.7099 15.209 19.7205C15.1982 19.7311 15.1853 19.7395 15.171 19.7452C15.1568 19.7509 15.1416 19.7538 15.1262 19.7538H12.957C12.9299 19.7538 12.9036 19.7446 12.8827 19.7278C12.8618 19.711 12.8475 19.6876 12.8423 19.6617L12.62 18.5543C12.6004 18.4563 12.4685 18.4271 12.4033 18.5041C12.0918 18.8705 11.7009 19.1982 11.2308 19.487C10.6874 19.8289 9.97684 20 9.09919 20ZM9.66335 17.7011C10.5271 17.7011 11.2308 17.4205 11.774 16.8593C12.3313 16.2845 12.61 15.5524 12.61 14.6629C12.61 13.7734 12.3313 13.0481 11.774 12.4869C11.2308 11.9122 10.5271 11.6247 9.66335 11.6247C8.81348 11.6247 8.10978 11.9053 7.55268 12.4663C6.99536 13.0275 6.71671 13.7527 6.71671 14.6423C6.71671 15.5318 6.99536 16.2641 7.55268 16.8388C8.11 17.4136 8.81348 17.7011 9.66335 17.7011Z" fill="#01090F"/>
<path d="M18.199 19.7124C19.1937 19.7124 20 18.9204 20 17.9433C20 16.9665 19.1935 16.1745 18.199 16.1745C17.2044 16.1745 16.3982 16.9665 16.3982 17.9433C16.3982 18.9204 17.2044 19.7124 18.199 19.7124Z" fill="#2C71F0"/>
</svg>
