<svg width="24" height="24" viewBox="0 0 24 24" fill="none" xmlns="http://www.w3.org/2000/svg">
<path fill-rule="evenodd" clip-rule="evenodd" d="M17.5 12C18.3284 12 19 12.6716 19 13.5V19.5C19 20.3284 18.3284 21 17.5 21C16.6716 21 16 20.3284 16 19.5V13.5C16 12.6716 16.6716 12 17.5 12ZM12 3C12.8284 3 13.5 3.67157 13.5 4.5V19.5C13.5 20.3284 12.8284 21 12 21C11.1716 21 10.5 20.3284 10.5 19.5V4.5C10.5 3.67157 11.1716 3 12 3ZM6.5 8C7.32843 8 8 8.67157 8 9.5V19.5C8 20.3284 7.32843 21 6.5 21C5.67157 21 5 20.3284 5 19.5V9.5C5 8.67157 5.67157 8 6.5 8Z" fill="#091723" style="fill:#091723;fill:color(display-p3 0.0353 0.0902 0.1373);fill-opacity:1;"/>
</svg>
