<svg width="24" height="24" viewBox="0 0 24 24" fill="none" xmlns="http://www.w3.org/2000/svg">
<path fill-rule="evenodd" clip-rule="evenodd" d="M12 1C12.3318 1 12.6601 1.01469 12.9844 1.04345C13.3863 1.09 13.75 1.41602 13.7957 1.81005L13.962 3.21448C14.9938 3.4439 15.9589 3.85044 16.8238 4.40056L17.9356 3.52484C18.2466 3.27856 18.7343 3.30522 19.0514 3.55648C19.301 3.76545 19.5436 3.98723 19.7782 4.22183C20.0128 4.45642 20.2346 4.69897 20.4435 4.94862C20.6948 5.26571 20.7214 5.75343 20.4752 6.06439L19.5994 7.1762C20.1496 8.04105 20.5561 9.00617 20.7855 10.038L22.19 10.2043C22.584 10.25 22.91 10.6137 22.9566 11.0156C22.9853 11.3399 23 11.6682 23 12C23 12.3318 22.9853 12.6601 22.9566 12.9844C22.91 13.3863 22.584 13.75 22.19 13.7957L20.7855 13.962C20.5561 14.9938 20.1496 15.9589 19.5994 16.8238L20.4752 17.9356C20.7214 18.2466 20.6948 18.7343 20.4435 19.0514C20.2346 19.301 20.0128 19.5436 19.7782 19.7782C19.5436 20.0128 19.301 20.2346 19.0514 20.4435C18.7343 20.6948 18.2466 20.7214 17.9356 20.4752L16.8238 19.5994C15.9589 20.1496 14.9938 20.5561 13.962 20.7855L13.7957 22.19C13.75 22.584 13.3863 22.91 12.9844 22.9566C12.6601 22.9853 12.3318 23 12 23C11.6682 23 11.3399 22.9853 11.0156 22.9566C10.6137 22.91 10.25 22.584 10.2043 22.19L10.038 20.7855C9.00617 20.5561 8.04105 20.1496 7.1762 19.5994L6.06439 20.4752C5.75343 20.7214 5.26571 20.6948 4.94862 20.4435C4.69897 20.2346 4.45642 20.0128 4.22183 19.7782C3.98723 19.5436 3.76545 19.301 3.55648 19.0514C3.30522 18.7343 3.27856 18.2466 3.52484 17.9356L4.40056 16.8238C3.85044 15.9589 3.4439 14.9938 3.21448 13.962L1.81005 13.7957C1.41602 13.75 1.09 13.3863 1.04345 12.9844C1.01469 12.6601 1 12.3318 1 12C1 11.6682 1.01469 11.3399 1.04345 11.0156C1.09 10.6137 1.41602 10.25 1.81005 10.2043L3.21448 10.038C3.4439 9.00617 3.85044 8.04105 4.40056 7.1762L3.52484 6.06439C3.27856 5.75343 3.30522 5.26571 3.55648 4.94862C3.76545 4.69897 3.98723 4.45642 4.22183 4.22183C4.45642 3.98723 4.69897 3.76545 4.94862 3.55648C5.26571 3.30522 5.75343 3.27856 6.06439 3.52484L7.1762 4.40056C8.04105 3.85044 9.00617 3.4439 10.038 3.21448L10.2043 1.81005C10.25 1.41602 10.6137 1.09 11.0156 1.04345C11.3399 1.01469 11.6682 1 12 1ZM12 6C8.68629 6 6 8.68629 6 12C6 15.3137 8.68629 18 12 18C15.3137 18 18 15.3137 18 12C18 8.68629 15.3137 6 12 6Z" fill="#091723" style="fill:#091723;fill:color(display-p3 0.0353 0.0902 0.1373);fill-opacity:1;"/>
</svg>
