<svg width="24" height="24" viewBox="0 0 24 24" fill="none" xmlns="http://www.w3.org/2000/svg">
<path fill-rule="evenodd" clip-rule="evenodd" d="M12.0001 18.5C12.8285 18.5 13.5001 19.1716 13.5001 20C13.5001 20.8284 12.8285 21.5 12.0001 21.5C11.1716 21.5 10.5001 20.8284 10.5001 20C10.5001 19.1716 11.1716 18.5 12.0001 18.5ZM11.9367 2.5C14.8715 2.5 17.2501 4.89151 17.2501 7.84091C17.2501 9.60963 16.385 11.2504 14.935 12.2506L14.7089 12.409C13.8198 13.083 13.2676 14.1137 13.2056 15.2354L13.1994 15.4569V15.7318C13.1994 16.4319 12.6343 17 11.9367 17C11.2902 17 10.7504 16.5099 10.6803 15.8561L10.674 15.7318V15.4569C10.674 13.3928 11.6635 11.4775 13.3163 10.2867L13.5356 10.1355L13.6937 10.0163C14.3436 9.48753 14.7247 8.69406 14.7247 7.84091C14.7247 6.2917 13.4762 5.03636 11.9367 5.03636C10.6628 5.03636 9.55122 5.90591 9.23607 7.14021C9.06285 7.81864 8.37461 8.22792 7.69869 8.05346C7.02327 7.87913 6.61678 7.18811 6.78987 6.51017C7.39089 4.15623 9.50733 2.5 11.9367 2.5Z" fill="#091723" style="fill:#091723;fill:color(display-p3 0.0353 0.0902 0.1373);fill-opacity:1;"/>
</svg>
