<svg width="24" height="24" viewBox="0 0 24 24" fill="none" xmlns="http://www.w3.org/2000/svg">
<path fill-rule="evenodd" clip-rule="evenodd" d="M12.6931 17.3608C12.6931 17.8921 12.3196 18.2324 11.7468 18.2324C11.2239 18.2324 10.95 18.0083 10.7756 17.4438L9.82935 14.8125H5.073L4.13501 17.4438C3.95239 18.0083 3.67847 18.2324 3.15552 18.2324C2.59106 18.2324 2.24243 17.9087 2.24243 17.3774C2.24243 17.2114 2.26733 17.0371 2.35034 16.8296L6.06909 6.80225C6.30981 6.13818 6.76636 5.80615 7.45532 5.80615C8.18579 5.80615 8.63403 6.13818 8.88306 6.81055L12.5852 16.7881C12.6599 17.0122 12.6931 17.1699 12.6931 17.3608ZM5.52954 13.2935H9.3645L7.47192 7.88135H7.42212L5.52954 13.2935ZM20.9026 18.2324C21.4089 18.2324 21.7576 17.9087 21.7576 17.3442V11.9155C21.7576 10.0894 20.363 8.90234 18.1716 8.90234C16.4783 8.90234 15.1335 9.59131 14.6687 10.687C14.5857 10.8779 14.5276 11.0771 14.5276 11.2515C14.5276 11.6748 14.843 11.9653 15.283 11.9653C15.5984 11.9653 15.8391 11.8491 16.0134 11.5835C16.4866 10.6953 17.134 10.2969 18.1135 10.2969C19.2922 10.2969 20.0144 10.9609 20.0144 12.04V12.7124L17.4495 12.8618C15.2747 12.978 14.071 13.9575 14.071 15.5347C14.071 17.145 15.3245 18.2241 17.1008 18.2241C18.3459 18.2241 19.5164 17.5601 20.0227 16.5059H20.0559V17.4189C20.0725 17.9253 20.4128 18.2324 20.9026 18.2324ZM15.8474 15.4683C15.8474 16.3149 16.553 16.8794 17.574 16.8794C18.9353 16.8794 20.0144 15.9414 20.0144 14.7129V13.8828L17.6902 14.0322C16.5032 14.1069 15.8474 14.6548 15.8474 15.4683Z" fill="#091723" style="fill:#091723;fill:color(display-p3 0.0353 0.0902 0.1373);fill-opacity:1;"/>
</svg>
