<svg width="24" height="24" viewBox="0 0 24 24" fill="none" xmlns="http://www.w3.org/2000/svg">
<path fill-rule="evenodd" clip-rule="evenodd" d="M18.8628 7.00071C20.1958 8.48305 21 10.4028 21 12.5C21 17.1944 16.9706 21 12 21C7.02944 21 3 17.1944 3 12.5C3 10.4028 3.80417 8.48305 5.13716 7.00071H18.8628ZM18 3C18.5523 3 19 3.44772 19 4C19 4.51284 18.614 4.93551 18.1166 4.99327L18 5H6C5.44772 5 5 4.55228 5 4C5 3.48716 5.38604 3.06449 5.88338 3.00673L6 3H18Z" fill="#091723" style="fill:#091723;fill:color(display-p3 0.0353 0.0902 0.1373);fill-opacity:1;"/>
</svg>
