<svg width="24" height="24" viewBox="0 0 24 24" fill="none" xmlns="http://www.w3.org/2000/svg">
<path d="M21.5 14.58C21.5 14.22 21.31 13.89 21.01 13.69L13.5 9V3.5C13.5 2.67 12.83 2 12 2C11.17 2 10.5 2.67 10.5 3.5V9L2.99 13.69C2.69 13.88 2.5 14.22 2.5 14.58C2.5 15.28 3.18 15.79 3.86 15.58L10.5 13.5V19L8.7 20.35C8.57 20.44 8.5 20.59 8.5 20.75V21.34C8.5 21.67 8.82 21.91 9.14 21.82L12 21L14.86 21.82C15.18 21.91 15.5 21.67 15.5 21.34V20.75C15.5 20.59 15.43 20.44 15.3 20.35L13.5 19V13.5L20.14 15.58C20.82 15.79 21.5 15.28 21.5 14.58Z" fill="#091723" style="fill:#091723;fill:color(display-p3 0.0353 0.0902 0.1373);fill-opacity:1;"/>
</svg>
