<svg width="24" height="24" viewBox="0 0 24 24" fill="none" xmlns="http://www.w3.org/2000/svg">
<path d="M12.0381 21.292C10.4469 21.292 9.10124 20.9323 8.00098 20.2129C6.90072 19.485 6.06706 18.4355 5.5 17.0645C4.93294 15.6934 4.64941 14.0345 4.64941 12.0879V11.5801C4.64941 9.64193 4.93294 7.9873 5.5 6.61621C6.06706 5.24512 6.90072 4.19987 8.00098 3.48047C9.10124 2.76107 10.4427 2.40137 12.0254 2.40137C13.5996 2.40137 14.9368 2.76107 16.0371 3.48047C17.1374 4.19141 17.9668 5.23242 18.5254 6.60352C19.084 7.97461 19.3633 9.63346 19.3633 11.5801V12.0879C19.3633 14.0345 19.084 15.6976 18.5254 17.0771C17.9753 18.4482 17.1543 19.4935 16.0625 20.2129C14.9707 20.9323 13.6292 21.292 12.0381 21.292ZM14.1836 6.59082C14.099 6.49772 14.0059 6.40885 13.9043 6.32422C13.4134 5.90951 12.7913 5.70215 12.0381 5.70215C11.2848 5.70215 10.6543 5.90951 10.1465 6.32422C9.64714 6.73047 9.27051 7.34831 9.0166 8.17773C8.7627 9.00716 8.63574 10.0439 8.63574 11.2881V12.3799C8.63574 13.04 8.6696 13.641 8.7373 14.1826L14.1836 6.59082ZM12.0508 17.9912C12.804 17.9912 13.4261 17.7839 13.917 17.3691C14.4163 16.9544 14.7845 16.3366 15.0215 15.5156C15.2669 14.6862 15.3896 13.641 15.3896 12.3799V11.2881C15.3896 10.6956 15.3643 10.1497 15.3135 9.65039L9.93066 17.1533C10.0068 17.2295 10.083 17.3014 10.1592 17.3691C10.667 17.7839 11.2975 17.9912 12.0508 17.9912Z" fill="#091723" style="fill:#091723;fill:color(display-p3 0.0353 0.0902 0.1373);fill-opacity:1;"/>
</svg>
