<svg width="24" height="24" viewBox="0 0 24 24" fill="none" xmlns="http://www.w3.org/2000/svg">
<path d="M12 2C9.82441 2 7.69767 2.64514 5.88873 3.85383C4.07979 5.06253 2.66989 6.78049 1.83733 8.79048C1.00477 10.8005 0.786929 13.0122 1.21137 15.146C1.6358 17.2798 2.68345 19.2398 4.22183 20.7782C4.61235 21.1687 5.24552 21.1687 5.63604 20.7782C6.02657 20.3876 6.02657 19.7545 5.63604 19.364C4.37737 18.1053 3.5202 16.5016 3.17294 14.7558C2.82567 13.01 3.0039 11.2004 3.68509 9.55585C4.36628 7.91131 5.51983 6.50571 6.99987 5.51677C8.47992 4.52784 10.22 4 12 4C13.78 4 15.5201 4.52784 17.0001 5.51677C18.4802 6.50571 19.6337 7.91131 20.3149 9.55585C20.9961 11.2004 21.1743 13.01 20.8271 14.7558C20.4798 16.5016 19.6226 18.1053 18.364 19.364C17.9734 19.7545 17.9734 20.3876 18.364 20.7782C18.7545 21.1687 19.3877 21.1687 19.7782 20.7782C21.3166 19.2398 22.3642 17.2798 22.7886 15.146C23.2131 13.0122 22.9952 10.8005 22.1627 8.79048C21.3301 6.7805 19.9202 5.06253 18.1113 3.85383C16.3023 2.64514 14.1756 2 12 2Z" fill="#091723" style="fill:#091723;fill:color(display-p3 0.0353 0.0902 0.1373);fill-opacity:1;"/>
<path d="M13.1602 15.9091L16.0601 9.48326C16.2937 8.96583 16.0971 8.35563 15.6055 8.07178C15.1138 7.78794 14.4871 7.92281 14.1558 8.38376L10.0408 14.1081C9.41577 14.9776 9.67811 16.1966 10.6055 16.732C11.5328 17.2674 12.7197 16.8851 13.1602 15.9091Z" fill="#091723" style="fill:#091723;fill:color(display-p3 0.0353 0.0902 0.1373);fill-opacity:1;"/>
</svg>
