<svg width="24" height="24" viewBox="0 0 24 24" fill="none" xmlns="http://www.w3.org/2000/svg">
<path d="M13.7273 20C13.7273 21.1046 12.8319 22 11.7273 22C10.6729 22 9.80952 21.1841 9.73315 20.1494L9.72729 20H13.7273ZM11.7273 2C12.6826 2 13.4809 2.66994 13.6794 3.56543C13.4696 3.93981 13.3474 4.37029 13.3406 4.8291C13.324 5.94494 13.9942 6.90976 14.9578 7.32324L13.8972 8.72852C13.5271 9.21943 13.327 9.81784 13.3269 10.4326C13.3269 11.996 14.5946 13.2636 16.158 13.2637H17.7361C17.8142 14.4641 18.422 15.5198 19.3279 16.2002C19.571 16.3829 19.7273 16.6733 19.7273 17C19.7273 17.5523 19.2796 18 18.7273 18H4.72729C4.17501 18 3.72729 17.5523 3.72729 17C3.72729 16.7142 3.84752 16.4566 4.03979 16.2744L4.12671 16.2002C5.04121 15.5133 5.65177 14.444 5.72046 13.2295L5.72729 13V10L5.7312 9.77539C5.82388 7.26084 7.464 5.14069 9.72729 4.34082V4C9.72729 2.89543 10.6227 2 11.7273 2ZM19.9812 4C20.5485 4.00004 21.0085 4.46006 21.0085 5.02734C21.0085 5.25022 20.9356 5.46746 20.8015 5.64551L17.7292 9.72559H20.2585C20.7383 9.7257 21.1276 10.1149 21.1277 10.5947C21.1277 11.0746 20.7384 11.4638 20.2585 11.4639H16.158C15.5887 11.4638 15.1277 11.0019 15.1277 10.4326C15.1278 10.2089 15.2001 9.99117 15.3347 9.8125L18.407 5.73828H16.0095C15.5247 5.73828 15.1334 5.34118 15.1404 4.85645C15.1474 4.38162 15.5346 4 16.0095 4H19.9812Z" fill="#091723" style="fill:#091723;fill:color(display-p3 0.0353 0.0902 0.1373);fill-opacity:1;"/>
</svg>
