<svg width="24" height="24" viewBox="0 0 24 24" fill="none" xmlns="http://www.w3.org/2000/svg">
<path fill-rule="evenodd" clip-rule="evenodd" d="M3.00431 12.9849C2.72539 12.9849 2.45904 12.8692 2.26904 12.6656C1.92028 12.2917 1.91297 11.7229 2.2333 11.3411L2.32019 11.2499L10.6318 3.53667C11.3601 2.86086 12.4658 2.82332 13.236 3.42404L13.3682 3.53667L21.6798 11.2499C21.884 11.4394 22 11.7051 22 11.9832C22 12.4969 21.6123 12.9203 21.1128 12.9782L20.9957 12.9849H20.0344V19.9966C20.0344 21.1031 19.1351 22 18.0258 22H14.5107V17.4924C14.5107 16.1094 13.3866 14.9883 12 14.9883C10.6688 14.9883 9.57962 16.0215 9.4946 17.3278L9.48927 17.4924V22H5.97422C4.8649 22 3.96562 21.1031 3.96562 19.9966V12.9849H3.00431Z" fill="#091723" style="fill:#091723;fill:color(display-p3 0.0353 0.0902 0.1373);fill-opacity:1;"/>
</svg>
