<svg width="24" height="24" viewBox="0 0 24 24" fill="none" xmlns="http://www.w3.org/2000/svg">
<path fill-rule="evenodd" clip-rule="evenodd" d="M1 3C1 3.89541 1.58842 4.65339 2.39968 4.90834L3.05968 7.87832C3.66294 10.593 3.66294 13.407 3.05968 16.1217L2.39968 19.0917C1.58842 19.3466 1 20.1046 1 21C1 22.1046 1.89543 23 3 23C3.89541 23 4.65339 22.4116 4.90834 21.6003L7.87832 20.9403C10.593 20.3371 13.407 20.3371 16.1217 20.9403L19.0917 21.6003C19.3466 22.4116 20.1046 23 21 23C22.1046 23 23 22.1046 23 21C23 20.1046 22.4116 19.3466 21.6003 19.0917L20.9403 16.1217C20.3371 13.407 20.3371 10.593 20.9403 7.87832L21.6003 4.90834C22.4116 4.65339 23 3.89541 23 3C23 1.89543 22.1046 1 21 1C20.1046 1 19.3466 1.58842 19.0917 2.39968L16.1217 3.05968C13.407 3.66294 10.593 3.66294 7.87832 3.05968L4.90834 2.39968C4.65339 1.58842 3.89541 1 3 1C1.89543 1 1 1.89543 1 3ZM4.47389 19.6481L7.44446 18.9879C7.62924 18.9469 7.81444 18.9084 8 18.8723V16H5.12765C5.09165 16.1856 5.05311 16.3708 5.01205 16.5555L4.35192 19.5261C4.3943 19.565 4.435 19.6057 4.47389 19.6481ZM5.01205 7.44446L4.35192 4.47389C4.3943 4.435 4.435 4.3943 4.47389 4.35192L7.44446 5.01205C7.62924 5.05311 7.81444 5.09165 8 5.12765V8H5.12765C5.09165 7.81444 5.05311 7.62924 5.01205 7.44446ZM5.41667 14H8V10H5.41667C5.54394 11.3303 5.54394 12.6697 5.41667 14ZM19.5261 19.6481C19.565 19.6057 19.6057 19.565 19.6481 19.5261L18.9879 16.5555C18.9469 16.3708 18.9084 16.1856 18.8723 16H16V18.8723C16.1856 18.9084 16.3708 18.9469 16.5555 18.9879L19.5261 19.6481ZM19.5261 4.35192C19.565 4.3943 19.6057 4.435 19.6481 4.47389L18.9879 7.44446C18.9469 7.62924 18.9084 7.81444 18.8723 8H16V5.12765C16.1856 5.09165 16.3708 5.05311 16.5555 5.01205L19.5261 4.35192ZM10 18.5833V16H14V18.5833C12.6697 18.4561 11.3303 18.4561 10 18.5833ZM10 14H14V10H10V14ZM16 14H18.5833C18.4561 12.6697 18.4561 11.3303 18.5833 10H16V14ZM14 8H10V5.41667C11.3303 5.54394 12.6697 5.54394 14 5.41667V8Z" fill="#091723" style="fill:#091723;fill:color(display-p3 0.0353 0.0902 0.1373);fill-opacity:1;"/>
</svg>
