<svg width="24" height="24" viewBox="0 0 24 24" fill="none" xmlns="http://www.w3.org/2000/svg">
<path d="M5.43652 19.5527C5.43652 18.3001 5.69043 17.2464 6.19824 16.3916C6.71452 15.5283 7.33236 14.8385 8.05176 14.3223C8.77962 13.7975 9.736 13.2262 10.9209 12.6084C11.835 12.126 12.5544 11.7155 13.0791 11.377C13.6123 11.0299 14.0524 10.6068 14.3994 10.1074C14.7549 9.60807 14.9326 9.01986 14.9326 8.34277C14.9326 7.80111 14.8141 7.33138 14.5771 6.93359C14.3402 6.52734 14.0016 6.21842 13.5615 6.00684C13.1299 5.78678 12.6263 5.67676 12.0508 5.67676C11.4583 5.67676 10.9378 5.79525 10.4893 6.03223C10.0407 6.26074 9.67253 6.58236 9.38477 6.99707C8.90047 7.69502 8.07224 8.21556 7.26149 7.96184L6.85733 7.83536C5.9386 7.54784 5.36479 6.58442 5.81532 5.73368C5.98261 5.41779 6.17796 5.11528 6.40137 4.82617C6.98535 4.07292 7.75977 3.47624 8.72461 3.03613C9.69792 2.59603 10.849 2.37598 12.1777 2.37598C13.4896 2.37598 14.6364 2.62565 15.6182 3.125C16.6084 3.62435 17.3701 4.31836 17.9033 5.20703C18.445 6.08724 18.7158 7.0944 18.7158 8.22852C18.7158 9.41341 18.4577 10.4206 17.9414 11.25C17.4251 12.0794 16.8031 12.748 16.0752 13.2559C15.3473 13.7552 14.4079 14.3011 13.2568 14.8936C12.6559 15.2067 12.1481 15.486 11.7334 15.7314C11.3187 15.9769 10.9505 16.2562 10.6289 16.5693C10.3104 16.8711 10.079 17.2102 9.93485 17.5867C9.93207 17.5939 9.93066 17.6016 9.93066 17.6094C9.93066 17.645 9.9595 17.6738 9.99508 17.6738H17.2559C18.1744 17.6738 18.9189 18.4184 18.9189 19.3369C18.9189 20.2554 18.1744 21 17.2559 21H6.88379C6.08449 21 5.43652 20.352 5.43652 19.5527Z" fill="#091723" style="fill:#091723;fill:color(display-p3 0.0353 0.0902 0.1373);fill-opacity:1;"/>
</svg>
