<svg width="24" height="24" viewBox="0 0 24 24" fill="none" xmlns="http://www.w3.org/2000/svg">
<path d="M12.5459 21.292C11.1071 21.292 9.82064 20.945 8.68652 20.251C7.56087 19.557 6.6722 18.516 6.02051 17.1279C5.36882 15.7399 5.04297 14.043 5.04297 12.0371C5.04297 10.0143 5.36458 8.2793 6.00781 6.83203C6.65951 5.38477 7.5778 4.28451 8.7627 3.53125C9.94759 2.76953 11.3356 2.38867 12.9268 2.38867C13.9085 2.38867 14.8014 2.54102 15.6055 2.8457C16.418 3.14193 17.1077 3.58203 17.6748 4.16602C17.8471 4.3408 18.006 4.52734 18.1518 4.72564C18.7411 5.52759 18.2141 6.58245 17.2791 6.9234L17.1994 6.95245C16.3003 7.28033 15.3501 6.74055 14.5898 6.15918C14.1582 5.82064 13.5954 5.65137 12.9014 5.65137C12.0381 5.65137 11.3102 5.87988 10.7178 6.33691C10.1338 6.79395 9.68945 7.44141 9.38477 8.2793C9.08498 9.1037 8.92039 10.0797 8.89098 11.2072C8.89019 11.2376 8.91464 11.2627 8.94503 11.2627C8.96555 11.2627 8.98428 11.2511 8.99363 11.2328C9.213 10.8042 9.52535 10.4079 9.93066 10.0439C10.3454 9.67155 10.8574 9.37533 11.4668 9.15527C12.0762 8.92676 12.7617 8.8125 13.5234 8.8125C14.6576 8.8125 15.6689 9.06217 16.5576 9.56152C17.4548 10.0609 18.153 10.7591 18.6523 11.6562C19.1602 12.5534 19.4141 13.5859 19.4141 14.7539C19.4141 16.0234 19.1136 17.1576 18.5127 18.1562C17.9118 19.1465 17.0866 19.9167 16.0371 20.4668C14.9961 21.0169 13.8324 21.292 12.5459 21.292ZM12.5078 18.1182C13.1426 18.1182 13.6969 17.9785 14.1709 17.6992C14.6449 17.4115 15.0088 17.0306 15.2627 16.5566C15.5251 16.0742 15.6562 15.5326 15.6562 14.9316C15.6562 14.3138 15.5293 13.7637 15.2754 13.2812C15.0215 12.7988 14.6576 12.4222 14.1836 12.1514C13.7096 11.8721 13.151 11.7324 12.5078 11.7324C11.873 11.7324 11.3187 11.8721 10.8447 12.1514C10.3792 12.4222 10.0153 12.7988 9.75293 13.2812C9.49902 13.7637 9.37207 14.3096 9.37207 14.9189C9.37207 15.5114 9.49479 16.0531 9.74023 16.5439C9.98568 17.0264 10.3454 17.4115 10.8193 17.6992C11.2933 17.9785 11.8561 18.1182 12.5078 18.1182Z" fill="#091723" style="fill:#091723;fill:color(display-p3 0.0353 0.0902 0.1373);fill-opacity:1;"/>
</svg>
