<svg width="24" height="24" viewBox="0 0 24 24" fill="none" xmlns="http://www.w3.org/2000/svg">
<path fill-rule="evenodd" clip-rule="evenodd" d="M18.93 15.8099C19.2066 15.3319 19.8183 15.1686 20.2963 15.4452C20.7744 15.7218 20.9377 16.3335 20.6611 16.8116C20.3112 17.4162 19.8988 17.9827 19.4313 18.5016C18.9639 19.0204 18.4435 19.4893 17.8789 19.9002C17.314 20.3113 16.7075 20.6625 16.0688 20.9473C15.4316 21.2314 14.7651 21.4483 14.0785 21.5935C13.3999 21.737 12.7043 21.81 12 21.81C11.4477 21.81 11 21.3623 11 20.81C11 20.2577 11.4477 19.81 12 19.81C12.565 19.81 13.1219 19.7516 13.6647 19.6368C14.213 19.5208 14.7453 19.3476 15.2543 19.1206C15.7649 18.893 16.25 18.6121 16.702 18.2831C17.1541 17.9541 17.571 17.5784 17.9454 17.1629C18.3198 16.7473 18.65 16.2938 18.93 15.8099ZM3.70366 15.4452C4.1817 15.1686 4.79344 15.3319 5.07003 15.8099C5.34998 16.2938 5.68016 16.7473 6.05457 17.1629C6.42898 17.5784 6.84589 17.9541 7.29801 18.2831C7.75001 18.6121 8.23514 18.893 8.74571 19.1206C9.25012 19.3456 9.47669 19.9368 9.25178 20.4412C9.02686 20.9456 8.43562 21.1722 7.93121 20.9473C7.29252 20.6625 6.68596 20.3113 6.12111 19.9002C5.55655 19.4893 5.03611 19.0204 4.56871 18.5016C4.10118 17.9827 3.68877 17.4162 3.33892 16.8116C3.06233 16.3335 3.22563 15.7218 3.70366 15.4452ZM12.8932 2.79794C13.0075 2.25761 13.5382 1.91223 14.0785 2.02651C14.7651 2.17172 15.4316 2.38859 16.0688 2.67273C16.7075 2.95752 17.314 3.3087 17.8789 3.7198C18.4435 4.13068 18.9639 4.59964 19.4313 5.1184C19.8988 5.63731 20.3112 6.20378 20.6611 6.80844C21.0109 7.41299 21.2966 8.05311 21.5129 8.71927C21.7279 9.38139 21.8734 10.0665 21.9461 10.7658C21.9819 11.1112 22 11.4596 22 11.81C22 12.1604 21.9819 12.5088 21.9461 12.8542C21.889 13.4035 21.3974 13.8025 20.8481 13.7455C20.2988 13.6884 19.8997 13.1968 19.9568 12.6475C19.9855 12.3708 20 12.0914 20 11.81C20 11.5286 19.9855 11.2492 19.9568 10.9725C19.8987 10.4132 19.7824 9.8658 19.6107 9.33692C19.4379 8.80481 19.2096 8.29335 18.93 7.81006C18.65 7.32621 18.3198 6.8727 17.9454 6.45714C17.571 6.04158 17.1541 5.66592 16.702 5.33687C16.25 5.0079 15.7649 4.72702 15.2543 4.49936C14.7453 4.27239 14.213 4.09921 13.6647 3.98322C13.1243 3.86894 12.7789 3.33827 12.8932 2.79794ZM2.48706 8.71927C2.65762 8.19398 3.22171 7.90642 3.747 8.07698C4.27229 8.24753 4.55986 8.81163 4.3893 9.33692C4.21757 9.8658 4.10133 10.4132 4.04323 10.9725C4.01449 11.2492 4 11.5286 4 11.81C4 12.0914 4.01449 12.3708 4.04323 12.6475C4.1003 13.1968 3.70123 13.6884 3.15191 13.7455C2.60258 13.8025 2.111 13.4035 2.05394 12.8542C2.01806 12.5088 2 12.1604 2 11.81C2 11.4596 2.01806 11.1112 2.05394 10.7658C2.12658 10.0665 2.27208 9.38139 2.48706 8.71927ZM6.12111 3.7198C6.56765 3.39481 7.1931 3.49334 7.51809 3.93989C7.84309 4.38643 7.74455 5.01188 7.29801 5.33687C6.84589 5.66592 6.42898 6.04158 6.05457 6.45714C5.68489 6.86745 5.05258 6.90039 4.64227 6.5307C4.23196 6.16102 4.19903 5.52871 4.56871 5.1184C5.03611 4.59964 5.55655 4.13068 6.12111 3.7198ZM10.13 2C10.6823 2 11.13 2.44772 11.13 3C11.13 3.55228 10.6823 4 10.13 4C9.57772 4 9.13 3.55228 9.13 3C9.13 2.44772 9.57772 2 10.13 2Z" fill="#091723" style="fill:#091723;fill:color(display-p3 0.0353 0.0902 0.1373);fill-opacity:1;"/>
</svg>
