<svg width="24" height="24" viewBox="0 0 24 24" fill="none" xmlns="http://www.w3.org/2000/svg">
<path fill-rule="evenodd" clip-rule="evenodd" d="M12 1C12.5128 1 12.9355 1.38604 12.9933 1.88338L13 2L13.0007 3.05501C17.1721 3.51646 20.4841 6.82878 20.9451 11.0003L22 11C22.5523 11 23 11.4477 23 12C23 12.5128 22.614 12.9355 22.1166 12.9933L22 13L20.945 13.0007C20.4836 17.1718 17.1718 20.4836 13.0007 20.945L13 22C13 22.5523 12.5523 23 12 23C11.4872 23 11.0645 22.614 11.0067 22.1166L11 22L11.0003 20.9451C6.82878 20.4841 3.51646 17.1721 3.05501 13.0007L2 13C1.44772 13 1 12.5523 1 12C1 11.4872 1.38604 11.0645 1.88338 11.0067L2 11L3.0549 11.0003C3.51593 6.82844 6.82844 3.51593 11.0003 3.0549L11 2C11 1.44772 11.4477 1 12 1ZM11 5.07089C7.93431 5.50941 5.50941 7.93431 5.07089 11H6C6.55228 11 7 11.4477 7 12C7 12.5128 6.61396 12.9355 6.11662 12.9933L6 13L5.07103 13.001C5.50993 16.0662 7.93464 18.4906 11 18.9291V18C11 17.4477 11.4477 17 12 17C12.5128 17 12.9355 17.386 12.9933 17.8834L13 18L13.001 18.9291C16.0659 18.4901 18.4901 16.0659 18.9291 13.001L18 13C17.4477 13 17 12.5523 17 12C17 11.4872 17.386 11.0645 17.8834 11.0067L18 11H18.9291C18.4906 7.93464 16.0662 5.50993 13.001 5.07103L13 6C13 6.55228 12.5523 7 12 7C11.4872 7 11.0645 6.61396 11.0067 6.11662L11 6V5.07089ZM12 10C13.1046 10 14 10.8954 14 12C14 13.1046 13.1046 14 12 14C10.8954 14 10 13.1046 10 12C10 10.8954 10.8954 10 12 10Z" fill="#091723" style="fill:#091723;fill:color(display-p3 0.0353 0.0902 0.1373);fill-opacity:1;"/>
</svg>
