<svg width="24" height="24" viewBox="0 0 24 24" fill="none" xmlns="http://www.w3.org/2000/svg">
<path fill-rule="evenodd" clip-rule="evenodd" d="M12 2C17.5228 2 22 6.47715 22 12C22 17.5228 17.5228 22 12 22C6.47715 22 2 17.5228 2 12C2 6.47715 6.47715 2 12 2ZM11.9387 16C11.3865 16 10.9387 16.4477 10.9387 17C10.9387 17.5523 11.3865 18 11.9387 18C12.491 18 12.9387 17.5523 12.9387 17C12.9387 16.4477 12.491 16 11.9387 16ZM11.9387 6L11.7483 6.00529C10.3596 6.08252 9.16133 6.99919 8.71779 8.3091C8.55837 8.7799 8.8108 9.29079 9.2816 9.4502C9.71618 9.59735 10.1849 9.39359 10.3799 8.99107L10.4227 8.88639C10.6252 8.28845 11.1628 7.86424 11.792 7.80668L11.9387 7.8C12.8229 7.80055 13.5387 8.51668 13.5387 9.4C13.5387 9.98463 13.2226 10.5115 12.7284 10.7921L12.5424 10.8865L12.3773 10.9859C11.6086 11.4774 11.1088 12.3062 11.0455 13.2305L11.0387 13.43V13.7L11.0458 13.8129C11.1013 14.2567 11.4799 14.6 11.9387 14.6C12.3976 14.6 12.7762 14.2567 12.8317 13.8129L12.8387 13.7V13.43L12.8468 13.2961C12.8843 12.988 13.0498 12.713 13.3036 12.5318L13.4177 12.46L13.525 12.4079C14.6271 11.8263 15.3387 10.6778 15.3387 9.4C15.3387 7.58482 13.9163 6.10188 12.1253 6.00503L11.9387 6Z" fill="#091723" style="fill:#091723;fill:color(display-p3 0.0353 0.0902 0.1373);fill-opacity:1;"/>
</svg>
