<svg width="24" height="24" viewBox="0 0 24 24" fill="none" xmlns="http://www.w3.org/2000/svg">
<path d="M4.5 11.5001V15.5001C4.5 16.3301 5.17 17.0001 6 17.0001C6.83 17.0001 7.5 16.3301 7.5 15.5001V11.5001C7.5 10.6701 6.83 10.0001 6 10.0001C5.17 10.0001 4.5 10.6701 4.5 11.5001ZM10.5 11.5001V15.5001C10.5 16.3301 11.17 17.0001 12 17.0001C12.83 17.0001 13.5 16.3301 13.5 15.5001V11.5001C13.5 10.6701 12.83 10.0001 12 10.0001C11.17 10.0001 10.5 10.6701 10.5 11.5001ZM4 22.0001H20C20.83 22.0001 21.5 21.3301 21.5 20.5001C21.5 19.6701 20.83 19.0001 20 19.0001H4C3.17 19.0001 2.5 19.6701 2.5 20.5001C2.5 21.3301 3.17 22.0001 4 22.0001ZM16.5 11.5001V15.5001C16.5 16.3301 17.17 17.0001 18 17.0001C18.83 17.0001 19.5 16.3301 19.5 15.5001V11.5001C19.5 10.6701 18.83 10.0001 18 10.0001C17.17 10.0001 16.5 10.6701 16.5 11.5001ZM11.07 1.49007L3.17 5.65007C2.76 5.86007 2.5 6.29007 2.5 6.75007C2.5 7.44007 3.06 8.00007 3.75 8.00007H20.26C20.94 8.00007 21.5 7.44007 21.5 6.75007C21.5 6.29007 21.24 5.86007 20.83 5.65007L12.93 1.49007C12.35 1.18007 11.65 1.18007 11.07 1.49007Z" fill="#091723" style="fill:#091723;fill:color(display-p3 0.0353 0.0902 0.1373);fill-opacity:1;"/>
</svg>
