<svg width="24" height="24" viewBox="0 0 24 24" fill="none" xmlns="http://www.w3.org/2000/svg">
<path fill-rule="evenodd" clip-rule="evenodd" d="M21.266 8.23314C21.7486 9.41938 22 10.6931 22 12C22 17.5228 17.5228 22 12 22L11.7201 21.9962C6.32667 21.8479 2 17.4292 2 12C2 10.6931 2.25135 9.41938 2.73402 8.23314C2.94217 7.72158 3.52561 7.47562 4.03717 7.68377C4.54873 7.89192 4.79469 8.47536 4.58654 8.98692C4.20085 9.9348 4 10.9526 4 12C4 16.3349 7.44784 19.8645 11.7508 19.9962L12 20C16.4183 20 20 16.4183 20 12C20 10.9526 19.7991 9.9348 19.4135 8.98692C19.2053 8.47536 19.4513 7.89192 19.9628 7.68377C20.4744 7.47562 21.0578 7.72158 21.266 8.23314ZM12 11C12.5523 11 13 11.4477 13 12C13 12.5523 12.5523 13 12 13C11.4477 13 11 12.5523 11 12C11 11.4477 11.4477 11 12 11ZM12 6.5C13.4777 6.5 14.8649 7.08677 15.8891 8.11091C16.2796 8.50144 16.2796 9.1346 15.8891 9.52513C15.4986 9.91565 14.8654 9.91565 14.4749 9.52513C13.8221 8.87234 12.9418 8.5 12 8.5L11.7838 8.50657C10.9241 8.55894 10.1277 8.92255 9.52513 9.52513C9.1346 9.91565 8.50144 9.91565 8.11091 9.52513C7.72039 9.1346 7.72039 8.50144 8.11091 8.11091C9.07105 7.15078 10.3503 6.57505 11.7241 6.50684L12 6.5ZM12 2C14.6874 2 17.2085 3.06632 19.0711 4.92893C19.4616 5.31946 19.4616 5.95262 19.0711 6.34315C18.6805 6.73367 18.0474 6.73367 17.6569 6.34315C16.1656 4.85189 14.1515 4 12 4L11.6936 4.00577C9.65786 4.08258 7.76339 4.9229 6.34315 6.34315C5.95262 6.73367 5.31946 6.73367 4.92893 6.34315C4.53841 5.95262 4.53841 5.31946 4.92893 4.92893C6.71393 3.14393 9.10366 2.09024 11.665 2.00553L12 2Z" fill="#091723" style="fill:#091723;fill:color(display-p3 0.0353 0.0902 0.1373);fill-opacity:1;"/>
</svg>
