<svg width="24" height="24" viewBox="0 0 24 24" fill="none" xmlns="http://www.w3.org/2000/svg">
<path d="M2.5873 11.8889H10.1825C10.7116 11.8889 11.1085 11.7539 11.373 11.4841C11.6376 11.2142 11.7698 10.8068 11.7698 10.2618V6.61895C11.7698 6.07397 11.6376 5.6692 11.373 5.40464C11.1085 5.1348 10.7116 4.99988 10.1825 4.99988H2.5873C2.0582 4.99988 1.66138 5.1348 1.39683 5.40464C1.13228 5.6692 1 6.07397 1 6.61895V10.2618C1 10.8068 1.13228 11.2142 1.39683 11.4841C1.66138 11.7539 2.0582 11.8889 2.5873 11.8889ZM4.50794 19.4128H11.1508C11.6852 19.4128 12.0847 19.2778 12.3492 19.008C12.6138 18.7434 12.746 18.3387 12.746 17.7937V15.1667C12.746 14.6164 12.6138 14.209 12.3492 13.9444C12.0847 13.6746 11.6852 13.5397 11.1508 13.5397H4.50794C3.97884 13.5397 3.57937 13.6746 3.30952 13.9444C3.04497 14.209 2.9127 14.6164 2.9127 15.1667V17.7937C2.9127 18.3387 3.04497 18.7434 3.30952 19.008C3.57937 19.2778 3.97884 19.4128 4.50794 19.4128ZM15.8968 18.3731H21.4048C21.9339 18.3731 22.3307 18.2381 22.5952 17.9683C22.8651 17.6985 23 17.291 23 16.7461V7.75388C23 7.2089 22.8651 6.80149 22.5952 6.53164C22.3307 6.2618 21.9339 6.12688 21.4048 6.12688H15.8968C15.3624 6.12688 14.963 6.2618 14.6984 6.53164C14.4339 6.80149 14.3016 7.2089 14.3016 7.75388V16.7461C14.3016 17.291 14.4339 17.6985 14.6984 17.9683C14.963 18.2381 15.3624 18.3731 15.8968 18.3731Z" fill="#091723" style="fill:#091723;fill:color(display-p3 0.0353 0.0902 0.1373);fill-opacity:1;"/>
</svg>
