<svg width="24" height="24" viewBox="0 0 24 24" fill="none" xmlns="http://www.w3.org/2000/svg">
<path d="M12.0059 2.69336C13.1104 2.69336 14.0059 3.58879 14.0059 4.69336V17.75H16.8877C17.7852 17.75 18.5127 18.4775 18.5127 19.375C18.5127 20.2725 17.7852 21 16.8877 21H7.26465C6.36719 21 5.63965 20.2725 5.63965 19.375C5.63965 18.4775 6.36719 17.75 7.26465 17.75H10.1211V7.55505C10.1211 7.51332 10.0873 7.47949 10.0455 7.47949C10.0287 7.47949 10.0123 7.48514 9.99901 7.49546C9.38643 7.97042 8.70349 8.35019 7.9502 8.63477C7.7452 8.71308 7.53488 8.78418 7.31923 8.84808C6.35446 9.13393 5.47461 8.3306 5.47461 7.32438C5.47461 6.49742 6.07959 5.81074 6.85937 5.53542C7.10186 5.4498 7.33852 5.35303 7.56934 5.24512C8.22949 4.93197 8.82194 4.55957 9.34668 4.12793C9.58892 3.92476 9.81402 3.71348 10.022 3.49409C10.4694 3.02212 11.0665 2.69336 11.7168 2.69336H12.0059Z" fill="#091723" style="fill:#091723;fill:color(display-p3 0.0353 0.0902 0.1373);fill-opacity:1;"/>
</svg>
