<svg width="24" height="24" viewBox="0 0 24 24" fill="none" xmlns="http://www.w3.org/2000/svg">
<path d="M4.5 15.5003V11.5003C4.5 10.6703 5.17 10.0003 6 10.0003C6.83 10.0003 7.5 10.6703 7.5 11.5003V15.5003C7.5 16.3303 6.83 17.0003 6 17.0003C5.17 17.0003 4.5 16.3303 4.5 15.5003Z" fill="#091723" style="fill:#091723;fill:color(display-p3 0.0353 0.0902 0.1373);fill-opacity:1;"/>
<path d="M3.17 5.65031L11.07 1.49031C11.65 1.18031 12.35 1.18031 12.93 1.49031L20.83 5.65031C21.24 5.86031 21.5 6.29031 21.5 6.75031C21.5 7.44031 20.94 8.00031 20.26 8.00031H3.75C3.06 8.00031 2.5 7.44031 2.5 6.75031C2.5 6.29031 2.76 5.86031 3.17 5.65031Z" fill="#091723" style="fill:#091723;fill:color(display-p3 0.0353 0.0902 0.1373);fill-opacity:1;"/>
<path d="M10.5 11.5C10.5 10.6716 11.1716 10 12 10C12.8284 10 13.5 10.6716 13.5 11.5V14.5C13.5 15.3284 12.8284 16 12 16C11.1716 16 10.5 15.3284 10.5 14.5V11.5Z" fill="#091723" style="fill:#091723;fill:color(display-p3 0.0353 0.0902 0.1373);fill-opacity:1;"/>
<path d="M16.5 11.5C16.5 10.6716 17.1716 10 18 10C18.8284 10 19.5 10.6716 19.5 11.5V14.5C19.5 15.3284 18.8284 16 18 16C17.1716 16 16.5 15.3284 16.5 14.5V11.5Z" fill="#091723" style="fill:#091723;fill:color(display-p3 0.0353 0.0902 0.1373);fill-opacity:1;"/>
<path d="M4 19C3.17157 19 2.5 19.6716 2.5 20.5C2.5 21.3284 3.17157 22 4 22H6.5C7.32843 22 8 21.3284 8 20.5C8 19.6716 7.32843 19 6.5 19H4Z" fill="#091723" style="fill:#091723;fill:color(display-p3 0.0353 0.0902 0.1373);fill-opacity:1;"/>
<path d="M13.4824 21.8516C13.3066 22.1475 13.2188 22.5122 13.2188 22.9458C13.2188 23.2225 13.443 23.4468 13.7197 23.4468H17.3101C17.628 23.4468 17.8857 23.189 17.8857 22.8711C17.8857 22.5532 17.628 22.2954 17.3101 22.2954H14.7967C14.7844 22.2954 14.7744 22.2854 14.7744 22.2731C14.7744 22.2704 14.7749 22.2677 14.7759 22.2652C14.8258 22.1349 14.9059 22.0175 15.0161 21.9131C15.1274 21.8047 15.2549 21.708 15.3984 21.623C15.542 21.5381 15.7178 21.4414 15.9258 21.333C16.3242 21.1279 16.6494 20.939 16.9014 20.7661C17.1533 20.5903 17.3687 20.3589 17.5474 20.0718C17.7261 19.7847 17.8154 19.436 17.8154 19.0259C17.8154 18.6333 17.7217 18.2847 17.5342 17.98C17.3496 17.6724 17.0859 17.4321 16.7432 17.2593C16.4033 17.0864 16.0063 17 15.5522 17C15.0923 17 14.6938 17.0762 14.3569 17.2285C14.0229 17.3809 13.7549 17.5874 13.5527 17.8481C13.4754 17.9482 13.4078 18.0529 13.3499 18.1623C13.1939 18.4568 13.3925 18.7903 13.7106 18.8898L13.8505 18.9336C14.1311 19.0214 14.4178 18.8412 14.5854 18.5996C14.6851 18.4561 14.8125 18.3447 14.9678 18.2656C15.123 18.1836 15.3032 18.1426 15.5083 18.1426C15.7075 18.1426 15.8818 18.1807 16.0312 18.2568C16.1836 18.3301 16.3008 18.437 16.3828 18.5776C16.4648 18.7153 16.5059 18.8779 16.5059 19.0654C16.5059 19.2998 16.4443 19.5034 16.3213 19.6763C16.2012 19.8491 16.0488 19.9956 15.8643 20.1157C15.6826 20.2329 15.4336 20.375 15.1172 20.542C14.707 20.7559 14.376 20.9536 14.124 21.1353C13.875 21.314 13.6611 21.5527 13.4824 21.8516Z" fill="#091723" style="fill:#091723;fill:color(display-p3 0.0353 0.0902 0.1373);fill-opacity:1;"/>
<path d="M19.9731 23.3633C20.2954 23.4893 20.6733 23.5522 21.1069 23.5522C21.6079 23.5522 22.0415 23.4673 22.4077 23.2974C22.7739 23.1274 23.0537 22.8916 23.2471 22.5898C23.4434 22.2881 23.5415 21.9424 23.5415 21.5527C23.5415 21.207 23.4653 20.8906 23.313 20.6035C23.1606 20.3164 22.9248 20.0864 22.6055 19.9136C22.3455 19.7729 22.0332 19.6894 21.6684 19.6633L23.0395 18.466C23.2077 18.3191 23.3042 18.1067 23.3042 17.8834C23.3042 17.4562 22.9579 17.1099 22.5307 17.1099H19.459C19.1483 17.1099 18.8965 17.3617 18.8965 17.6724C18.8965 17.983 19.1483 18.2349 19.459 18.2349H21.7617L20.3779 19.4728C20.1461 19.6802 20.1108 20.0304 20.2961 20.2802C20.4539 20.4929 20.7367 20.5771 21.0015 20.5771C21.2505 20.5771 21.4614 20.6138 21.6343 20.687C21.8101 20.7603 21.9419 20.8657 22.0298 21.0034C22.1206 21.1382 22.166 21.3022 22.166 21.4956C22.166 21.6831 22.1206 21.8486 22.0298 21.9922C21.9419 22.1357 21.8174 22.2456 21.6562 22.3218C21.4951 22.3979 21.3076 22.436 21.0938 22.436C20.8945 22.436 20.7129 22.3994 20.5488 22.3262C20.3848 22.2529 20.2471 22.1519 20.1357 22.0229C19.9601 21.8141 19.6861 21.6528 19.4288 21.7437L18.7805 21.9726C18.7483 21.984 18.7275 22.0169 18.7383 22.0493C18.7441 22.0669 18.75 22.0859 18.7559 22.1064C18.8467 22.3848 18.9917 22.6323 19.1909 22.8491C19.3901 23.0659 19.6509 23.2373 19.9731 23.3633Z" fill="#091723" style="fill:#091723;fill:color(display-p3 0.0353 0.0902 0.1373);fill-opacity:1;"/>
<path d="M11.3181 23.4468C10.948 23.4468 10.6479 23.1467 10.6479 22.7766V18.7961C10.6479 18.7798 10.6348 18.7666 10.6185 18.7666C10.6119 18.7666 10.6056 18.7688 10.6004 18.7728C10.3799 18.9427 10.1364 19.0769 9.87012 19.1753C9.78928 19.2046 9.70629 19.2307 9.62114 19.2535C9.29315 19.3416 9 19.0685 9 18.7289C9 18.4384 9.21804 18.1999 9.49335 18.1074C9.57674 18.0794 9.65838 18.0472 9.73828 18.0107C9.97266 17.9053 10.1821 17.7749 10.3667 17.6196C10.4449 17.5548 10.5178 17.4875 10.5854 17.4176C10.7584 17.2385 10.9859 17.1099 11.2349 17.1099C11.651 17.1099 11.9883 17.4472 11.9883 17.8633V22.7766C11.9883 23.1467 11.6882 23.4468 11.3181 23.4468Z" fill="#091723" style="fill:#091723;fill:color(display-p3 0.0353 0.0902 0.1373);fill-opacity:1;"/>
</svg>
