<svg width="24" height="24" viewBox="0 0 24 24" fill="none" xmlns="http://www.w3.org/2000/svg">
<path fill-rule="evenodd" clip-rule="evenodd" d="M6.49994 11.5C4.01464 11.5 1.99994 9.4853 1.99994 7C1.99994 4.5147 4.01464 2.5 6.49994 2.5C8.98524 2.5 10.9999 4.5147 10.9999 7C10.9999 9.4853 8.98524 11.5 6.49994 11.5ZM6.49994 9.5C7.88064 9.5 8.99994 8.3807 8.99994 7C8.99994 5.6193 7.88064 4.5 6.49994 4.5C5.11924 4.5 3.99994 5.6193 3.99994 7C3.99994 8.3807 5.11924 9.5 6.49994 9.5Z" fill="#091723" style="fill:#091723;fill:color(display-p3 0.0353 0.0902 0.1373);fill-opacity:1;"/>
<path d="M10.9999 19.5H5.46202L20.6839 5.2295L20.7701 5.1381C21.0876 4.7558 21.0781 4.188 20.7295 3.8161C20.3517 3.4131 19.7189 3.3927 19.316 3.7705L3.99994 18.1293V13.5C3.99994 12.9477 3.55222 12.5 2.99994 12.5C2.44765 12.5 1.99994 12.9477 1.99994 13.5V20.5C1.99994 21.0523 2.44765 21.5 2.99994 21.5H10.9999C11.5522 21.5 11.9999 21.0523 11.9999 20.5C11.9999 19.9477 11.5522 19.5 10.9999 19.5Z" fill="#091723" style="fill:#091723;fill:color(display-p3 0.0353 0.0902 0.1373);fill-opacity:1;"/>
<path fill-rule="evenodd" clip-rule="evenodd" d="M17.4999 21.5C15.0147 21.5 12.9999 19.4853 12.9999 17C12.9999 14.5147 15.0147 12.5 17.4999 12.5C19.9852 12.5 21.9999 14.5147 21.9999 17C21.9999 19.4853 19.9852 21.5 17.4999 21.5ZM17.4999 19.5C18.8806 19.5 19.9999 18.3807 19.9999 17C19.9999 15.6193 18.8806 14.5 17.4999 14.5C16.1192 14.5 14.9999 15.6193 14.9999 17C14.9999 18.3807 16.1192 19.5 17.4999 19.5Z" fill="#091723" style="fill:#091723;fill:color(display-p3 0.0353 0.0902 0.1373);fill-opacity:1;"/>
</svg>
