<svg width="24" height="24" viewBox="0 0 24 24" fill="none" xmlns="http://www.w3.org/2000/svg">
<path fill-rule="evenodd" clip-rule="evenodd" d="M9.51413 21C10.0226 21 10.4159 20.7846 10.6942 20.3638L19.7123 6.03569C19.9137 5.71271 20 5.43868 20 5.17443C20 4.47956 19.5204 4 18.8296 4C18.3595 4 18.0718 4.17616 17.7839 4.63615L9.46616 18.0933L5.19695 12.5049C4.90915 12.1231 4.61174 11.9666 4.18961 11.9666C3.49887 11.9666 3 12.4657 3 13.1508C3 13.4542 3.10553 13.7478 3.35496 14.0512L8.3245 20.3736C8.66029 20.8042 9.01525 21 9.51413 21Z" fill="#091723" style="fill:#091723;fill:color(display-p3 0.0353 0.0902 0.1373);fill-opacity:1;"/>
</svg>
