<svg width="24" height="24" viewBox="0 0 24 24" fill="none" xmlns="http://www.w3.org/2000/svg">
<path fill-rule="evenodd" clip-rule="evenodd" d="M17.8628 7.00071C18.1114 7.2771 18.3415 7.5687 18.5515 7.87381C18.3085 8.00637 18.0826 8.17478 17.8787 8.37868C17.3461 8.91121 17.0557 9.59414 17.0073 10.2907L17 10.5H13C12.1716 10.5 11.4216 10.8358 10.8787 11.3787C10.3358 11.9216 10 12.6716 10 13.5C10 14.3284 10.3358 15.0784 10.8787 15.6213C11.3763 16.119 12.048 16.4426 12.7946 16.4931L13 16.5H17C17 17.1294 17.1968 17.7588 17.5905 18.2879C15.9478 19.9564 13.6029 21 11 21C6.02944 21 2 17.1944 2 12.5C2 10.5132 2.72175 8.68563 3.93112 7.23836L4.13716 7.00071H17.8628ZM20.7071 9.79289L23.7071 12.7929C24.0976 13.1834 24.0976 13.8166 23.7071 14.2071L20.7071 17.2071C20.3166 17.5976 19.6834 17.5976 19.2929 17.2071C18.9024 16.8166 18.9024 16.1834 19.2929 15.7929L20.5858 14.5H13C12.4477 14.5 12 14.0523 12 13.5C12 12.9477 12.4477 12.5 13 12.5H20.5858L19.2929 11.2071C18.9024 10.8166 18.9024 10.1834 19.2929 9.79289C19.6834 9.40237 20.3166 9.40237 20.7071 9.79289ZM17 3C17.5523 3 18 3.44772 18 4C18 4.51284 17.614 4.93551 17.1166 4.99327L17 5H5C4.44772 5 4 4.55228 4 4C4 3.48716 4.38604 3.06449 4.88338 3.00673L5 3H17Z" fill="#091723" style="fill:#091723;fill:color(display-p3 0.0353 0.0902 0.1373);fill-opacity:1;"/>
</svg>
