<svg width="24" height="24" viewBox="0 0 24 24" fill="none" xmlns="http://www.w3.org/2000/svg">
<path fill-rule="evenodd" clip-rule="evenodd" d="M19.2941 9.5455C18.8497 9.5455 18.597 9.29264 18.597 8.83052V6.77275C18.597 5.86594 18.1002 5.40381 17.2462 5.40381H15.1373C14.6754 5.40381 14.4227 5.15095 14.4227 4.69755C14.4227 4.25286 14.6754 4 15.1373 4H17.2636C19.0937 4 20 4.89809 20 6.69428V8.83052C20 9.29264 19.756 9.5455 19.2941 9.5455ZM4.70588 9.5455C4.25272 9.5455 4 9.29264 4 8.83052V6.69428C4 4.89809 4.92375 4 6.73638 4H8.87146C9.32462 4 9.57734 4.25286 9.57734 4.69755C9.57734 5.15095 9.32462 5.40381 8.87146 5.40381H6.76253C5.89107 5.40381 5.40305 5.86594 5.40305 6.77275V8.83052C5.40305 9.29264 5.15904 9.5455 4.70588 9.5455ZM10.6754 12.9722C10.6754 12.7193 10.8758 12.5275 11.1373 12.5275H11.4248C11.5381 12.5275 11.6427 12.4665 11.6427 12.3095V9.57166C11.6427 9.28392 11.8257 9.10954 12.1046 9.10954C12.3834 9.10954 12.5577 9.28392 12.5577 9.57166V12.2311C12.5577 13.0507 12.122 13.4605 11.3377 13.4605H11.2593C10.8497 13.4605 10.6754 13.2512 10.6754 12.9722ZM8.30501 9.71117C8.30501 9.37112 8.54902 9.12698 8.88889 9.12698C9.24619 9.12698 9.48148 9.37112 9.48148 9.71117V10.8708C9.48148 11.2283 9.24619 11.4638 8.88889 11.4638C8.54902 11.4638 8.30501 11.2283 8.30501 10.8708V9.71117ZM14.3704 9.71117C14.3704 9.37112 14.6057 9.12698 14.963 9.12698C15.3028 9.12698 15.5381 9.37112 15.5381 9.71117V10.8708C15.5381 11.2283 15.3028 11.4638 14.963 11.4638C14.6057 11.4638 14.3704 11.2283 14.3704 10.8708V9.71117ZM11.8954 16.0501C10.8845 16.0501 9.87364 15.6142 9.17647 14.8992C9.09804 14.8033 9.03704 14.6986 9.03704 14.5504C9.03704 14.2888 9.22876 14.097 9.49891 14.097C9.66449 14.097 9.76035 14.1755 9.88235 14.2975C10.3791 14.8033 11.1373 15.1346 11.8954 15.1346C12.6449 15.1346 13.4292 14.8207 13.9085 14.2975C14.0305 14.1755 14.1176 14.097 14.2832 14.097C14.5447 14.097 14.7364 14.2888 14.7364 14.5504C14.7364 14.6986 14.6841 14.8033 14.6144 14.8992C13.8998 15.6142 12.8976 16.0501 11.8954 16.0501ZM6.73638 20C4.92375 20 4 19.1019 4 17.297V15.1695C4 14.7074 4.24401 14.4545 4.70588 14.4545C5.15033 14.4545 5.40305 14.7074 5.40305 15.1695V17.2272C5.40305 18.1341 5.89107 18.5962 6.76253 18.5962H8.87146C9.32462 18.5962 9.57734 18.849 9.57734 19.3025C9.57734 19.7471 9.32462 20 8.87146 20H6.73638ZM15.1373 20C14.6754 20 14.4227 19.7471 14.4227 19.3025C14.4227 18.849 14.6754 18.5962 15.1373 18.5962H17.2462C18.1002 18.5962 18.597 18.1341 18.597 17.2272V15.1695C18.597 14.7074 18.841 14.4545 19.2941 14.4545C19.7473 14.4545 20 14.7074 20 15.1695V17.297C20 19.0932 19.0937 20 17.2636 20H15.1373Z" fill="#091723" style="fill:#091723;fill:color(display-p3 0.0353 0.0902 0.1373);fill-opacity:1;"/>
</svg>
