<svg width="24" height="24" viewBox="0 0 24 24" fill="none" xmlns="http://www.w3.org/2000/svg">
<path d="M18.6485 5.04901C19.1172 4.58039 19.1172 3.82059 18.6485 3.35196C18.1799 2.88333 17.4201 2.88333 16.9515 3.35196L13.3372 6.56619L11.9594 5.36511C11.1969 4.70041 10.0581 4.70972 9.30654 5.38677L5.3928 8.91255C4.90241 9.35836 4.86627 10.1173 5.31208 10.6077C5.75789 11.0981 6.51683 11.1342 7.00721 10.6884L10.6234 7.401L12.0615 8.64379C12.8258 9.30427 13.9626 9.29115 14.7115 8.61322L18.6485 5.04901Z" fill="#091723" style="fill:#091723;fill:color(display-p3 0.0353 0.0902 0.1373);fill-opacity:1;"/>
<path d="M17.25 10.0005C17.9404 10.0005 18.5 10.5601 18.5 11.2505V19.7505C18.5 20.4408 17.9404 21.0005 17.25 21.0005C16.5596 21.0005 16 20.4408 16 19.7505V11.2505C16 10.5601 16.5596 10.0005 17.25 10.0005Z" fill="#091723" style="fill:#091723;fill:color(display-p3 0.0353 0.0902 0.1373);fill-opacity:1;"/>
<path d="M13.25 13.2005C13.25 12.5377 12.6904 12.0005 12 12.0005C11.3096 12.0005 10.75 12.5377 10.75 13.2005V19.8005C10.75 20.4632 11.3096 21.0005 12 21.0005C12.6904 21.0005 13.25 20.4632 13.25 19.8005V13.2005Z" fill="#091723" style="fill:#091723;fill:color(display-p3 0.0353 0.0902 0.1373);fill-opacity:1;"/>
<path d="M8 15.2106C8 14.5423 7.44036 14.0005 6.75 14.0005C6.05964 14.0005 5.5 14.5423 5.5 15.2106V19.7904C5.5 20.4587 6.05964 21.0005 6.75 21.0005C7.44036 21.0005 8 20.4587 8 19.7904V15.2106Z" fill="#091723" style="fill:#091723;fill:color(display-p3 0.0353 0.0902 0.1373);fill-opacity:1;"/>
</svg>
