<svg width="24" height="24" viewBox="0 0 24 24" fill="none" xmlns="http://www.w3.org/2000/svg">
<path d="M12 21.3047C10.7474 21.3047 9.6556 21.1227 8.72461 20.7588C7.79362 20.3949 7.04036 19.8997 6.46484 19.2734C5.88932 18.6471 5.47038 17.932 5.20801 17.1279C5.19108 17.0687 5.17415 17.0137 5.15723 16.9629C5.12604 16.8693 5.18607 16.7742 5.27907 16.7414L7.152 16.0799C7.89526 15.8174 8.68702 16.2834 9.19434 16.8867C9.51595 17.2591 9.91374 17.5511 10.3877 17.7627C10.8617 17.9743 11.3864 18.0801 11.9619 18.0801C12.5798 18.0801 13.1214 17.9701 13.5869 17.75C14.0524 17.5299 14.4121 17.2126 14.666 16.7979C14.9284 16.3831 15.0596 15.9049 15.0596 15.3633C15.0596 14.8047 14.9284 14.3307 14.666 13.9414C14.4121 13.5436 14.0312 13.2389 13.5234 13.0273C13.0241 12.8158 12.4147 12.71 11.6953 12.71C10.9305 12.71 10.1134 12.4665 9.65773 11.8522C9.12242 11.1306 9.22436 10.1187 9.89403 9.51962L13.8916 5.94336H7.23926C6.3418 5.94336 5.61426 5.21582 5.61426 4.31836C5.61426 3.4209 6.3418 2.69336 7.23926 2.69336H16.3477C17.4522 2.69336 18.3477 3.58879 18.3477 4.69336V5.0333C18.3477 5.61148 18.0974 6.16138 17.6615 6.5412L13.6123 10.0693C14.6702 10.1455 15.5758 10.3867 16.3291 10.793C17.2516 11.2923 17.9329 11.9567 18.373 12.7861C18.8132 13.6156 19.0332 14.5296 19.0332 15.5283C19.0332 16.654 18.7497 17.6527 18.1826 18.5244C17.624 19.3962 16.8158 20.0775 15.7578 20.5684C14.6999 21.0592 13.4473 21.3047 12 21.3047Z" fill="#091723" style="fill:#091723;fill:color(display-p3 0.0353 0.0902 0.1373);fill-opacity:1;"/>
</svg>
