<svg width="24" height="24" viewBox="0 0 24 24" fill="none" xmlns="http://www.w3.org/2000/svg">
<path d="M12 2C14.1756 2 16.3023 2.64514 18.1113 3.85383C19.9202 5.06253 21.3301 6.78049 22.1627 8.79048C22.9952 10.8005 23.2131 13.0122 22.7886 15.146C22.3642 17.2798 21.3166 19.2398 19.7782 20.7782C19.3877 21.1687 18.7545 21.1687 18.364 20.7782C17.9734 20.3876 17.9734 19.7545 18.364 19.364C19.6226 18.1053 20.4798 16.5016 20.8271 14.7558C21.1743 13.01 20.9961 11.2004 20.3149 9.55585C19.6337 7.91131 18.4802 6.50571 17.0001 5.51677C15.5201 4.52784 13.78 4 12 4C10.22 4 8.47992 4.52784 6.99988 5.51677C5.51983 6.50571 4.36628 7.91131 3.68509 9.55585C3.0039 11.2004 2.82568 13.01 3.17294 14.7558C3.52021 16.5016 4.37738 18.1053 5.63605 19.364C6.02657 19.7545 6.02657 20.3876 5.63605 20.7782C5.24552 21.1687 4.61236 21.1687 4.22183 20.7782C2.68346 19.2398 1.63581 17.2798 1.21137 15.146C0.786934 13.0122 1.00477 10.8005 1.83733 8.79048C2.6699 6.7805 4.0798 5.06253 5.88874 3.85383C7.69768 2.64514 9.82442 2 12 2Z" fill="#091723" style="fill:#091723;fill:color(display-p3 0.0353 0.0902 0.1373);fill-opacity:1;"/>
<path d="M10.8398 15.9091L7.93987 9.48326C7.70635 8.96583 7.90292 8.35563 8.39455 8.07178C8.88618 7.78794 9.51291 7.92281 9.84426 8.38376L13.9592 14.1081C14.5842 14.9776 14.3219 16.1966 13.3945 16.732C12.4672 17.2674 11.2803 16.8851 10.8398 15.9091Z" fill="#091723" style="fill:#091723;fill:color(display-p3 0.0353 0.0902 0.1373);fill-opacity:1;"/>
</svg>
