<svg width="24" height="24" viewBox="0 0 24 24" fill="none" xmlns="http://www.w3.org/2000/svg">
<path d="M11.3145 21.292C10.3327 21.292 9.43555 21.1439 8.62305 20.8477C7.81901 20.543 7.12923 20.0986 6.55371 19.5146C6.38471 19.3406 6.22848 19.1549 6.08504 18.9575C5.49992 18.1525 6.02714 17.0982 6.96212 16.7573L7.03286 16.7315C7.93695 16.4018 8.89416 16.9403 9.65137 17.5342C10.083 17.8643 10.6458 18.0293 11.3398 18.0293C12.2031 18.0293 12.9268 17.8008 13.5107 17.3438C14.1032 16.8867 14.5518 16.2393 14.8564 15.4014C15.1562 14.577 15.3208 13.601 15.3502 12.4734C15.351 12.4431 15.3266 12.418 15.2962 12.418C15.2757 12.418 15.2569 12.4296 15.2476 12.4478C15.0282 12.8765 14.7159 13.2728 14.3105 13.6367C13.8958 14.0091 13.3838 14.3096 12.7744 14.5381C12.165 14.7581 11.4795 14.8682 10.7178 14.8682C9.58366 14.8682 8.56803 14.6185 7.6709 14.1191C6.78223 13.6198 6.08398 12.9215 5.57617 12.0244C5.07682 11.1273 4.82715 10.0947 4.82715 8.92676C4.82715 7.65723 5.1276 6.52734 5.72852 5.53711C6.32943 4.53841 7.15039 3.764 8.19141 3.21387C9.24089 2.66374 10.4089 2.38867 11.6953 2.38867C13.1341 2.38867 14.4163 2.73568 15.542 3.42969C16.6761 4.1237 17.569 5.16471 18.2207 6.55273C18.8724 7.94076 19.1982 9.6377 19.1982 11.6436C19.1982 13.6663 18.8724 15.4014 18.2207 16.8486C17.5775 18.2959 16.6634 19.4004 15.4785 20.1621C14.2936 20.9154 12.9056 21.292 11.3145 21.292ZM11.7334 11.9482C12.3682 11.9482 12.9183 11.8128 13.3838 11.542C13.8577 11.2627 14.2217 10.8818 14.4756 10.3994C14.7295 9.91699 14.8564 9.37109 14.8564 8.76172C14.8564 8.16927 14.7337 7.63184 14.4883 7.14941C14.2513 6.65853 13.8958 6.27344 13.4219 5.99414C12.9479 5.70638 12.3851 5.5625 11.7334 5.5625C11.0986 5.5625 10.5443 5.70638 10.0703 5.99414C9.59635 6.27344 9.22819 6.6543 8.96582 7.13672C8.71191 7.61068 8.58496 8.14811 8.58496 8.74902C8.58496 9.36686 8.71191 9.91699 8.96582 10.3994C9.21973 10.8818 9.58366 11.2627 10.0576 11.542C10.5316 11.8128 11.0902 11.9482 11.7334 11.9482Z" fill="#091723" style="fill:#091723;fill:color(display-p3 0.0353 0.0902 0.1373);fill-opacity:1;"/>
</svg>
