<svg width="24" height="24" viewBox="0 0 24 24" fill="none" xmlns="http://www.w3.org/2000/svg">
<path d="M7.00439 6.00684C6.0894 6.00684 5.34766 5.26509 5.34766 4.3501C5.34766 3.43511 6.0894 2.69336 7.00439 2.69336H17.0332C18.1378 2.69336 19.0332 3.58879 19.0332 4.69336V5.00122C19.0332 5.40803 18.9081 5.80447 18.6811 6.14207C18.6461 6.1941 18.6112 6.24635 18.5762 6.29883C18.4238 6.51888 18.2757 6.73893 18.1318 6.95898C17.1501 8.47396 16.3206 9.88314 15.6436 11.1865C14.9749 12.4814 14.3698 13.9372 13.8281 15.5537C13.4321 16.7545 13.0897 18.0649 12.8011 19.4851C12.6239 20.3566 11.8692 21 10.9799 21C9.86185 21 9.00359 20.0006 9.2314 18.906C9.46836 17.7675 9.74376 16.7008 10.0576 15.7061C10.557 14.1234 11.1156 12.6973 11.7334 11.4277C12.3597 10.1497 13.1257 8.77018 14.0312 7.28906C14.1582 7.08594 14.2852 6.88281 14.4121 6.67969C14.5453 6.47151 14.6786 6.26742 14.8118 6.06744C14.8161 6.06103 14.8184 6.05351 14.8184 6.04582C14.8184 6.02429 14.8009 6.00684 14.7794 6.00684H7.00439Z" fill="#091723" style="fill:#091723;fill:color(display-p3 0.0353 0.0902 0.1373);fill-opacity:1;"/>
</svg>
