<svg width="24" height="24" viewBox="0 0 24 24" fill="none" xmlns="http://www.w3.org/2000/svg">
<path fill-rule="evenodd" clip-rule="evenodd" d="M12 2C17.5228 2 22 6.47715 22 12C22 17.5228 17.5228 22 12 22C6.47715 22 2 17.5228 2 12C2 6.47715 6.47715 2 12 2ZM12 17C11.3646 17 10.7415 17.0191 10.1397 17.0555C10.6431 18.8584 11.3625 20 12 20C12.6375 20 13.3569 18.8584 13.8598 17.0556C13.2585 17.0191 12.6354 17 12 17ZM8.11382 17.2547L7.79569 17.3C7.25238 17.3834 6.74514 17.4827 6.28391 17.5958C7.01295 18.3414 7.88597 18.9439 8.85798 19.3594C8.6144 18.8443 8.40054 18.2666 8.21891 17.638L8.11382 17.2547ZM15.8858 17.2535L15.8474 17.4007C15.6522 18.1217 15.4158 18.78 15.1418 19.3591C16.1139 18.9437 16.987 18.3413 17.7158 17.5971C17.1659 17.4608 16.5502 17.3456 15.8858 17.2535ZM7.51976 12.9998L4.06188 12.9999C4.19069 14.0329 4.51645 15.0048 5.00041 15.8767C5.78702 15.633 6.70973 15.4348 7.72462 15.2888C7.64658 14.7426 7.58814 14.1744 7.55047 13.5898L7.51976 12.9998ZM19.9381 12.9999L16.4802 12.9998C16.4486 13.7932 16.3794 14.5606 16.2752 15.2903C17.2903 15.4348 18.213 15.633 18.9991 15.8766C19.4835 15.0048 19.8093 14.0329 19.9381 12.9999ZM14.4768 12.9997H9.52316C9.55705 13.7293 9.62695 14.4267 9.72492 15.0793C10.4594 15.0267 11.222 15 12 15C12.778 15 13.5406 15.0267 14.2752 15.0781C14.373 14.4267 14.4429 13.7293 14.4768 12.9997ZM5.00086 8.12342L4.96366 8.19023C4.5001 9.04457 4.1876 9.99282 4.062 10.9991L7.5198 10.9992C7.55143 10.2062 7.62061 9.43914 7.72484 8.70969C6.70973 8.56524 5.78702 8.36698 5.00086 8.12342ZM14.2751 8.92067L14.1768 8.92863C13.4726 8.97562 12.7433 9 12 9C11.222 9 10.4594 8.9733 9.7248 8.9219C9.62698 9.57323 9.55712 10.2701 9.52321 10.9991L14.4768 10.9993C14.4429 10.2701 14.373 9.57298 14.2751 8.92067ZM18.9996 8.12326L18.9644 8.13412C18.1859 8.37279 17.2754 8.56738 16.2754 8.7112C16.3794 9.43882 16.4486 10.2059 16.4802 10.9991H19.938C19.8091 9.96644 19.4834 8.99492 18.9996 8.12326ZM12 4L11.9231 4.00546C11.3054 4.09244 10.6232 5.21331 10.1405 6.94341C10.7415 6.98092 11.3646 7 12 7C12.6354 7 13.2585 6.98092 13.8603 6.94453C13.3569 5.14158 12.6375 4 12 4ZM8.85816 4.64088L8.72443 4.69915C7.80566 5.112 6.97892 5.69319 6.28348 6.40344C6.83339 6.53903 7.44945 6.65432 8.11415 6.74649C8.31626 5.96708 8.56581 5.25891 8.85816 4.64088ZM15.142 4.64061L15.187 4.73771C15.46 5.33271 15.6944 6.00789 15.8863 6.7461C16.5502 6.65437 17.1659 6.53916 17.7161 6.40419C16.9871 5.6586 16.114 5.05614 15.142 4.64061Z" fill="#091723" style="fill:#091723;fill:color(display-p3 0.0353 0.0902 0.1373);fill-opacity:1;"/>
</svg>
