<svg width="24" height="24" viewBox="0 0 24 24" fill="none" xmlns="http://www.w3.org/2000/svg">
<path d="M4 14C4 12.1167 4.55833 10.3083 5.675 8.57499C6.79167 6.84166 8.325 5.32499 10.275 4.02499C10.6417 3.77499 11.021 3.76232 11.413 3.98699C11.8043 4.21232 12 4.54999 12 4.99999V6.29999C12 6.86666 12.196 7.34166 12.588 7.72499C12.9793 8.10832 13.4583 8.29999 14.025 8.29999C14.3083 8.29999 14.5793 8.23766 14.838 8.11299C15.096 7.98766 15.325 7.80832 15.525 7.57499C15.6583 7.40832 15.8293 7.30399 16.038 7.26199C16.246 7.22066 16.4417 7.26666 16.625 7.39999C17.675 8.14999 18.5 9.10832 19.1 10.275C19.7 11.4417 20 12.6833 20 14C20 15.4667 19.6417 16.804 18.925 18.012C18.2083 19.2207 17.2667 20.175 16.1 20.875C16.3833 20.475 16.6043 20.0373 16.763 19.562C16.921 19.0873 17 18.5833 17 18.05C17 17.3833 16.875 16.7543 16.625 16.163C16.375 15.571 16.0167 15.0417 15.55 14.575L12 11.1L8.475 14.575C7.99167 15.0583 7.625 15.5917 7.375 16.175C7.125 16.7583 7 17.3833 7 18.05C7 18.5833 7.07933 19.0873 7.238 19.562C7.396 20.0373 7.61667 20.475 7.9 20.875C6.73333 20.175 5.79167 19.2207 5.075 18.012C4.35833 16.804 4 15.4667 4 14ZM12 13.9L14.125 15.975C14.4083 16.2583 14.625 16.575 14.775 16.925C14.925 17.275 15 17.65 15 18.05C15 18.8667 14.7083 19.5623 14.125 20.137C13.5417 20.7123 12.8333 21 12 21C11.1667 21 10.4583 20.7123 9.875 20.137C9.29167 19.5623 9 18.8667 9 18.05C9 17.6667 9.075 17.296 9.225 16.938C9.375 16.5793 9.59167 16.2583 9.875 15.975L12 13.9Z" fill="#091723" style="fill:#091723;fill:color(display-p3 0.0353 0.0902 0.1373);fill-opacity:1;"/>
</svg>
