<svg width="24" height="24" viewBox="0 0 24 24" fill="none" xmlns="http://www.w3.org/2000/svg">
<path d="M15.4087 21C14.3605 21 13.5107 20.1503 13.5107 19.1021V17.2803H7.02003C5.94215 17.2803 5.06836 16.4065 5.06836 15.3286C5.06836 14.914 5.20042 14.5101 5.4454 14.1755L13.2542 3.51174C13.6309 2.99734 14.2303 2.69336 14.8679 2.69336H15.3066C16.4112 2.69336 17.3066 3.58879 17.3066 4.69336V14.2588H18.1953C19.0297 14.2588 19.7061 14.9352 19.7061 15.7695C19.7061 16.6039 19.0297 17.2803 18.1953 17.2803H17.3066V19.1021C17.3066 20.1503 16.4569 21 15.4087 21ZM8.90234 14.2588H13.5107V8.02539L8.90234 14.2588Z" fill="#091723" style="fill:#091723;fill:color(display-p3 0.0353 0.0902 0.1373);fill-opacity:1;"/>
</svg>
