<svg width="24" height="24" viewBox="0 0 24 24" fill="none" xmlns="http://www.w3.org/2000/svg">
<path fill-rule="evenodd" clip-rule="evenodd" d="M11 3.76948C11.9104 3.2424 13.0636 3.51326 13.6494 4.36601L13.733 4.49826L21.2641 17.5065C21.4404 17.8111 21.5332 18.1567 21.5332 18.5086C21.5332 19.563 20.7173 20.4268 19.6825 20.5031L19.5332 20.5086H4.47103C4.11915 20.5086 3.77349 20.4158 3.46896 20.2394C2.55856 19.7124 2.21925 18.5775 2.66708 17.6448L2.74018 17.5065L10.2713 4.49826C10.4463 4.19584 10.6976 3.94457 11 3.76948ZM12.0021 15.5086C11.4498 15.5086 11.0021 15.9563 11.0021 16.5086C11.0021 17.0609 11.4498 17.5086 12.0021 17.5086C12.5544 17.5086 13.0021 17.0609 13.0021 16.5086C13.0021 15.9563 12.5544 15.5086 12.0021 15.5086ZM12.0021 8.5086C11.4893 8.5086 11.0666 8.89464 11.0088 9.39198L11.0021 9.5086V12.5086C11.0021 13.0609 11.4498 13.5086 12.0021 13.5086C12.5149 13.5086 12.9376 13.1226 12.9954 12.6252L13.0021 12.5086V9.5086C13.0021 8.95632 12.5544 8.5086 12.0021 8.5086Z" fill="#091723" style="fill:#091723;fill:color(display-p3 0.0353 0.0902 0.1373);fill-opacity:1;"/>
</svg>
