<svg width="24" height="24" viewBox="0 0 24 24" fill="none" xmlns="http://www.w3.org/2000/svg">
<path fill-rule="evenodd" clip-rule="evenodd" d="M10.1017 9.57476C8.36961 12.1072 5.816 15.3975 1.2 15.3975C0.592487 15.3975 0.0999992 14.905 0.0999985 14.2975C0.0999978 13.69 0.592484 13.1975 1.2 13.1975C4.58399 13.1975 6.55536 10.8628 8.28578 8.33278C8.44541 8.09939 8.60606 7.85914 8.76772 7.61741C9.42026 6.64161 10.089 5.6415 10.7717 4.97023C11.2174 4.5319 11.7721 4.1225 12.456 3.96597C13.1823 3.79976 13.8973 3.95309 14.5659 4.35428C15.0615 4.65163 15.4389 5.05897 15.668 5.56645C15.8916 6.0616 15.9434 6.58316 15.9081 7.07423C15.8398 8.022 15.4308 9.0417 14.9664 9.98822C14.5644 10.8075 14.0667 11.6756 13.5875 12.5115C13.5022 12.6603 13.4175 12.808 13.3341 12.9543C12.768 13.9462 12.2535 14.8782 11.8999 15.7225C11.5425 16.5758 11.3304 17.2063 11.3021 17.6805C11.2893 17.8964 11.3194 18.0271 11.3558 18.1094C11.3881 18.1823 11.4506 18.2759 11.6102 18.3823C11.7963 18.5063 11.9152 18.5234 11.9992 18.5212C12.1023 18.5186 12.2631 18.4823 12.5147 18.3437C12.9744 18.0903 13.4628 17.6652 14.1394 17.0764C14.2872 16.9477 14.4441 16.8112 14.6116 16.6669C16.3802 15.1438 18.8866 13.1975 22.8 13.1975C23.4075 13.1975 23.9 13.69 23.9 14.2975C23.9 14.905 23.4075 15.3975 22.8 15.3975C19.7133 15.3975 17.7256 16.8885 16.0472 18.334C15.9171 18.446 15.7851 18.5614 15.6517 18.6781C14.9755 19.2692 14.2631 19.8921 13.5765 20.2705C13.1368 20.5127 12.6263 20.706 12.0552 20.7205C11.465 20.7355 10.9067 20.5573 10.3898 20.2128C9.91825 19.8984 9.56238 19.4926 9.34436 19.0005C9.13048 18.5177 9.07817 18.0176 9.10604 17.5497C9.15924 16.6563 9.52096 15.7076 9.87067 14.8726C10.2827 13.8888 10.861 12.8492 11.4233 11.8639C11.5116 11.7092 11.5994 11.5559 11.6865 11.404C12.1673 10.565 12.6234 9.76899 12.9913 9.0192C13.4349 8.11513 13.6777 7.41652 13.7137 6.91625C13.7305 6.6833 13.6975 6.54839 13.663 6.4719C13.634 6.40772 13.5798 6.32822 13.4341 6.24077C13.1652 6.07946 13.0271 6.09216 12.9469 6.11052C12.8243 6.13856 12.6192 6.23892 12.3142 6.53887C11.8083 7.03639 11.311 7.77767 10.678 8.72145C10.498 8.98983 10.307 9.27458 10.1017 9.57476Z" fill="#091723" style="fill:#091723;fill:color(display-p3 0.0353 0.0902 0.1373);fill-opacity:1;"/>
</svg>
