<svg width="24" height="24" viewBox="0 0 24 24" fill="none" xmlns="http://www.w3.org/2000/svg">
<path fill-rule="evenodd" clip-rule="evenodd" d="M18.8953 3.57445C20.7888 5.4679 20.8462 8.50215 19.0675 10.4647L18.8953 10.6455L12.5314 17.0095L12.4031 17.1305C11.225 18.1795 9.41842 18.1392 8.28869 17.0095C7.16398 15.8848 7.11899 14.0892 8.15372 12.9108L8.28869 12.7668L13.2385 7.81709C13.629 7.42657 14.2622 7.42657 14.6527 7.81709C15.0132 8.17758 15.0409 8.74481 14.7359 9.1371L14.6527 9.23131L9.7029 14.181C9.31238 14.5716 9.31238 15.2047 9.7029 15.5953C10.0634 15.9557 10.6306 15.9835 11.0229 15.6784L11.1172 15.5953L17.4811 9.23131L17.6022 9.10306C18.6512 7.92499 18.6108 6.1184 17.4811 4.98867C16.3564 3.86396 14.5608 3.81897 13.3825 4.8537L13.2385 4.98867L6.87447 11.3526L6.72437 11.5092C4.9232 13.471 4.97324 16.5225 6.87447 18.4237C8.76792 20.3171 11.8022 20.3745 13.7648 18.5958L13.9456 18.4237L18.8953 13.4739C19.2859 13.0834 19.919 13.0834 20.3095 13.4739C20.67 13.8344 20.6978 14.4017 20.3927 14.7939L20.3095 14.8882L15.3598 19.8379C12.6261 22.5716 8.19393 22.5716 5.46026 19.8379C2.78872 17.1664 2.728 12.8727 5.27811 10.1274L5.46026 9.93841L11.8243 3.57445L11.9809 3.42436C13.9427 1.62318 16.9941 1.67322 18.8953 3.57445Z" fill="#091723" style="fill:#091723;fill:color(display-p3 0.0353 0.0902 0.1373);fill-opacity:1;"/>
</svg>
