<svg width="24" height="24" viewBox="0 0 24 24" fill="none" xmlns="http://www.w3.org/2000/svg">
<path fill-rule="evenodd" clip-rule="evenodd" d="M14 20C14 21.1046 13.1046 22 12 22C10.9456 22 10.0818 21.1841 10.0055 20.1493L10 20H14ZM12 2C13.1046 2 14 2.89543 14 4L14.0007 4.34165C16.2635 5.14177 17.9032 7.26084 17.9959 9.77506L18 10V13C18 14.3088 18.6285 15.4707 19.6002 16.2005C19.8434 16.3832 20 16.6733 20 17C20 17.5523 19.5523 18 19 18H5C4.44772 18 4 17.5523 4 17C4 16.7142 4.11993 16.4563 4.31221 16.2741L4.39977 16.2005C5.3143 15.5136 5.92487 14.444 5.99353 13.2294L6 13V10L6.00414 9.77506C6.09682 7.26047 7.73695 5.14114 10.0003 4.3413L10 4C10 2.89543 10.8954 2 12 2Z" fill="#091723" style="fill:#091723;fill:color(display-p3 0.0353 0.0902 0.1373);fill-opacity:1;"/>
</svg>
