<svg width="24" height="24" viewBox="0 0 24 24" fill="none" xmlns="http://www.w3.org/2000/svg">
<path d="M11.9362 9.28371L5.77676 3.10834C5.74171 3.07329 5.70028 3.04461 5.65567 3.02868C5.61106 3.00956 5.56008 3 5.51228 3C5.46449 3 5.4135 3.00956 5.36889 3.02868C5.32428 3.0478 5.28286 3.07647 5.24781 3.10834L2.06453 6.30755C2.01675 6.35533 1.9955 6.41981 2.00079 6.48189V16.2047C2.00079 16.4501 2.09957 16.6859 2.27164 16.8579L6.42998 21.0003C6.48096 21.0513 6.54788 21.0864 6.62117 21.1023C6.69445 21.1182 6.76774 21.1087 6.83466 21.08C6.90158 21.0513 6.96212 21.0035 7.00035 20.943C7.03859 20.8824 7.06408 20.8092 7.0609 20.7359V11.5906L11.7801 16.3035C11.8438 16.3672 11.9203 16.3991 11.9999 16.3991V9.31876C11.9808 9.31876 11.9585 9.30602 11.9362 9.28371Z" fill="#091723" style="fill:#091723;fill:color(display-p3 0.0353 0.0902 0.1373);fill-opacity:1;"/>
<path d="M12.0638 9.28371L18.2232 3.10834C18.2583 3.07329 18.2997 3.04461 18.3443 3.02868C18.3889 3.00956 18.4399 3 18.4877 3C18.5355 3 18.5865 3.00956 18.6311 3.02868C18.6757 3.0478 18.7171 3.07647 18.7522 3.10834L21.9355 6.30755C21.9832 6.35533 22.0045 6.41981 21.9992 6.48189V16.2047C21.9992 16.4501 21.9004 16.6859 21.7284 16.8579L17.57 21.0003C17.519 21.0513 17.4521 21.0864 17.3788 21.1023C17.3055 21.1182 17.2323 21.1087 17.1653 21.08C17.0984 21.0513 17.0379 21.0035 16.9996 20.943C16.9614 20.8824 16.9359 20.8092 16.9391 20.7359V11.5906L12.2199 16.3035C12.1562 16.3672 12.0797 16.3991 12.0001 16.3991V9.31876C12.0192 9.31876 12.0415 9.30602 12.0638 9.28371Z" fill="#091723" style="fill:#091723;fill:color(display-p3 0.0353 0.0902 0.1373);fill-opacity:1;"/>
</svg>
