<svg width="24" height="24" viewBox="0 0 24 24" fill="none" xmlns="http://www.w3.org/2000/svg">
<path fill-rule="evenodd" clip-rule="evenodd" d="M17.5 12.5C19.9853 12.5 22 14.5147 22 17C22 19.4853 19.9853 21.5 17.5 21.5C15.0147 21.5 13 19.4853 13 17C13 14.5147 15.0147 12.5 17.5 12.5ZM17.5 14.5C16.1193 14.5 15 15.6193 15 17C15 18.3807 16.1193 19.5 17.5 19.5C18.8807 19.5 20 18.3807 20 17C20 15.6193 18.8807 14.5 17.5 14.5Z" fill="#091723" style="fill:#091723;fill:color(display-p3 0.0353 0.0902 0.1373);fill-opacity:1;"/>
<path d="M13 4.5H18.5379L3.31606 18.7705L3.22988 18.8619C2.91236 19.2442 2.92179 19.812 3.27046 20.1839C3.64819 20.5869 4.28103 20.6073 4.68394 20.2295L20 5.8707V10.5C20 11.0523 20.4477 11.5 21 11.5C21.5523 11.5 22 11.0523 22 10.5V3.5C22 2.94771 21.5523 2.5 21 2.5H13C12.4477 2.5 12 2.94772 12 3.5C12 4.05228 12.4477 4.5 13 4.5Z" fill="#091723" style="fill:#091723;fill:color(display-p3 0.0353 0.0902 0.1373);fill-opacity:1;"/>
<path fill-rule="evenodd" clip-rule="evenodd" d="M6.5 2.5C8.98528 2.5 11 4.51472 11 7C11 9.48528 8.98528 11.5 6.5 11.5C4.01472 11.5 2 9.48528 2 7C2 4.51472 4.01472 2.5 6.5 2.5ZM6.5 4.5C5.11929 4.5 4 5.61929 4 7C4 8.38071 5.11929 9.5 6.5 9.5C7.88071 9.5 9 8.38071 9 7C9 5.61929 7.88071 4.5 6.5 4.5Z" fill="#091723" style="fill:#091723;fill:color(display-p3 0.0353 0.0902 0.1373);fill-opacity:1;"/>
</svg>
