<svg width="24" height="24" viewBox="0 0 24 24" fill="none" xmlns="http://www.w3.org/2000/svg">
<path fill-rule="evenodd" clip-rule="evenodd" d="M3.10535 9.61188C3.25442 9.5474 3.36067 9.42489 3.42411 9.24434C3.91255 7.88381 4.59289 6.74735 5.46512 5.83496C6.33734 4.92256 7.32692 4.23585 8.43386 3.77482C9.54079 3.31378 10.6874 3.08327 11.8736 3.08327C12.6792 3.08327 13.4008 3.16387 14.0383 3.32507C14.6758 3.48627 15.2642 3.7184 15.8034 4.02145C15.9683 4.11172 16.1301 4.15202 16.2886 4.14235C16.4472 4.13268 16.5582 4.04724 16.6217 3.88604C16.6978 3.72484 16.7057 3.58782 16.6455 3.47498C16.5852 3.36214 16.4916 3.26703 16.3648 3.18966C15.6797 2.75119 14.9755 2.4433 14.2524 2.26598C13.5292 2.08866 12.7363 2 11.8736 2C10.4971 2 9.19031 2.24986 7.95334 2.74958C6.71636 3.2493 5.61894 3.99566 4.66108 4.98865C3.70322 5.98165 2.94518 7.22611 2.38695 8.72205C2.30449 8.95418 2.29656 9.15085 2.36316 9.31205C2.42977 9.47325 2.53285 9.57964 2.67241 9.63122C2.81196 9.68281 2.95628 9.67636 3.10535 9.61188ZM21.503 13.0068C21.6552 13.0068 21.7789 12.9487 21.8741 12.8327C21.9692 12.7166 22.0104 12.5747 21.9978 12.4071C21.8645 11.1562 21.6409 10.0487 21.3269 9.08475C21.0129 8.12078 20.6038 7.26158 20.0995 6.50716C19.5952 5.75274 18.9941 5.05958 18.2964 4.42768C18.1631 4.30516 18.022 4.25358 17.8729 4.27292C17.7239 4.29227 17.6081 4.35352 17.5256 4.45669C17.4305 4.55986 17.3861 4.68399 17.3924 4.82907C17.3988 4.97415 17.4717 5.11117 17.6113 5.24013C18.5057 6.09771 19.251 7.09877 19.8473 8.24329C20.4436 9.38781 20.8179 10.7854 20.9701 12.4361C20.9891 12.5909 21.0447 12.7247 21.1366 12.8375C21.2286 12.9503 21.3507 13.0068 21.503 13.0068ZM18.8577 19.2646C19.01 19.213 19.1147 19.1098 19.1717 18.955C19.3494 18.4779 19.5175 17.8379 19.6761 17.0352C19.8346 16.2324 19.9139 15.2765 19.9139 14.1674C19.9139 12.6973 19.7236 11.3577 19.343 10.1487C18.9624 8.93967 18.4169 7.89993 17.7064 7.02945C16.9959 6.15897 16.1459 5.48676 15.1563 5.01283C14.1668 4.53891 13.0567 4.30194 11.826 4.30194C10.7984 4.30194 9.82942 4.50344 8.91913 4.90644C8.00884 5.30944 7.2064 5.86397 6.51179 6.57003C5.81718 7.27609 5.27164 8.09176 4.87517 9.01705C4.47871 9.94234 4.28047 10.9273 4.28047 11.9719C4.28047 12.4748 4.32805 12.9294 4.4232 13.3356C4.51835 13.7418 4.61351 14.1158 4.70866 14.4576C4.80381 14.7993 4.85139 15.1314 4.85139 15.4538C4.85139 15.7633 4.79588 16.0567 4.68487 16.3339C4.57386 16.6112 4.41369 16.8433 4.20435 17.0303C4.09651 17.1335 4.03149 17.2576 4.00929 17.4027C3.98709 17.5478 4.01722 17.6783 4.09969 17.7944C4.18849 17.9234 4.31061 17.9991 4.46602 18.0217C4.62144 18.0443 4.76575 18.0007 4.89896 17.8911C5.22882 17.6074 5.4778 17.2496 5.6459 16.8175C5.81401 16.3855 5.89489 15.9309 5.88854 15.4538C5.88854 15.0282 5.84414 14.6526 5.75533 14.327C5.66652 14.0014 5.57454 13.658 5.47939 13.2969C5.38424 12.9358 5.33666 12.4941 5.33666 11.9719C5.33666 11.0691 5.50793 10.2212 5.85048 9.42811C6.19303 8.63501 6.66244 7.9354 7.25873 7.32928C7.85501 6.72317 8.54487 6.24763 9.32828 5.90266C10.1117 5.55769 10.9443 5.38521 11.826 5.38521C13.247 5.38521 14.4823 5.75274 15.5322 6.48782C16.582 7.22289 17.3972 8.24974 17.9776 9.56836C18.558 10.887 18.8482 12.4232 18.8482 14.1771C18.8546 15.2023 18.7864 16.0776 18.6437 16.803C18.5009 17.5284 18.3503 18.0975 18.1917 18.5101C18.1283 18.6584 18.1203 18.8035 18.1679 18.9454C18.2155 19.0872 18.3027 19.1904 18.4296 19.2549C18.5628 19.3129 18.7055 19.3161 18.8577 19.2646ZM7.91528 15.212C8.05483 15.1539 8.14999 15.054 8.20073 14.9121C8.25148 14.7703 8.25148 14.6188 8.20073 14.4576C8.09289 14.1481 7.9692 13.795 7.82964 13.3985C7.69008 13.0019 7.62031 12.5425 7.62031 12.0202C7.62031 11.2078 7.80902 10.4743 8.18646 9.81983C8.5639 9.16535 9.07455 8.6479 9.71841 8.26747C10.3623 7.88704 11.0807 7.69682 11.8736 7.69682C12.1781 7.69682 12.4286 7.70972 12.6253 7.73551C12.8219 7.7613 13.0122 7.80805 13.1962 7.87575C13.3802 7.94346 13.6022 8.04501 13.8623 8.18042C14.0082 8.2449 14.143 8.25941 14.2667 8.22394C14.3904 8.18848 14.4808 8.11916 14.5379 8.016C14.6076 7.88059 14.6219 7.73712 14.5807 7.58559C14.5394 7.43406 14.4395 7.31316 14.2809 7.22289C13.9765 7.0359 13.6117 6.88598 13.1867 6.77314C12.7617 6.6603 12.324 6.60388 11.8736 6.60388C11.1314 6.60388 10.4384 6.74251 9.79453 7.01978C9.15067 7.29704 8.58451 7.68392 8.09607 8.18042C7.60762 8.67692 7.22701 9.2524 6.95424 9.90688C6.68147 10.5613 6.54509 11.2658 6.54509 12.0202C6.54509 12.5876 6.61011 13.1099 6.74015 13.5871C6.87019 14.0642 7.00816 14.4962 7.15406 14.8831C7.22384 15.0443 7.32692 15.1572 7.46331 15.2217C7.59969 15.2861 7.75035 15.2829 7.91528 15.212ZM15.4275 21.3247C15.5956 21.3182 15.7241 21.2505 15.8129 21.1216C16.3711 20.3543 16.8167 19.3983 17.1498 18.2538C17.4828 17.1093 17.6493 15.8987 17.6493 14.622C17.6493 13.687 17.5891 12.8697 17.4685 12.1701C17.348 11.4705 17.1815 10.8531 16.969 10.3179C16.7565 9.78275 16.5138 9.29593 16.2411 8.85746C16.1459 8.70271 16.0238 8.60277 15.8747 8.55763C15.7257 8.51249 15.5877 8.52216 15.4608 8.58665C15.3213 8.66402 15.2356 8.78331 15.2039 8.94451C15.1722 9.10571 15.2071 9.27013 15.3086 9.43778C15.7463 10.0761 16.0714 10.8354 16.2839 11.7155C16.4964 12.5957 16.6026 13.5774 16.6026 14.6607C16.6026 15.8149 16.4567 16.9062 16.1649 17.9347C15.8731 18.9631 15.483 19.7868 14.9946 20.4059C14.9058 20.5219 14.8598 20.6541 14.8566 20.8024C14.8534 20.9507 14.9058 21.0764 15.0136 21.1796C15.1214 21.2828 15.2594 21.3311 15.4275 21.3247ZM12.6824 21.8567C13.1645 21.4117 13.6022 20.8137 13.9955 20.0625C14.3888 19.3113 14.7028 18.4569 14.9375 17.4994C15.1722 16.5419 15.2896 15.5376 15.2896 14.4866C15.2832 13.4291 15.1674 12.4812 14.9422 11.643C14.7171 10.8048 14.3555 10.1406 13.8575 9.65057C13.3596 9.16052 12.6919 8.91549 11.8546 8.91549C11.2837 8.91549 10.7714 9.03639 10.3179 9.27819C9.86431 9.51999 9.50431 9.85852 9.23789 10.2938C8.97146 10.729 8.83825 11.2368 8.83825 11.8171C8.83825 12.1653 8.88424 12.5361 8.97622 12.9294C9.0682 13.3227 9.16018 13.7289 9.25216 14.1481C9.34414 14.5672 9.3933 14.9895 9.39965 15.4151C9.40599 16.3243 9.24582 17.169 8.91913 17.9492C8.59244 18.7294 8.12144 19.3709 7.50612 19.8739C7.37925 19.9835 7.30472 20.1092 7.28252 20.2511C7.26032 20.393 7.29045 20.5251 7.37291 20.6477C7.47441 20.7831 7.60128 20.8572 7.75352 20.8701C7.90576 20.883 8.04532 20.8346 8.17219 20.725C8.91437 20.1189 9.48528 19.3516 9.88492 18.4231C10.2846 17.4946 10.4812 16.4919 10.4749 15.4151C10.4685 14.8735 10.4162 14.3931 10.3179 13.974C10.2195 13.5548 10.1228 13.1792 10.0276 12.8472C9.9325 12.5151 9.88492 12.2008 9.88492 11.9041C9.88492 11.3303 10.0657 10.8692 10.4273 10.521C10.7889 10.1729 11.2646 9.99876 11.8546 9.99876C12.4382 9.99876 12.9044 10.2035 13.2533 10.6129C13.6022 11.0224 13.8575 11.5721 14.0193 12.262C14.181 12.952 14.2683 13.7193 14.2809 14.564C14.3127 15.5118 14.2302 16.4032 14.0335 17.2383C13.8369 18.0733 13.5625 18.8148 13.2105 19.4628C12.8584 20.1109 12.4604 20.6348 12.0163 21.0345C11.9021 21.1313 11.8324 21.2489 11.807 21.3876C11.7816 21.5262 11.8102 21.6568 11.8926 21.7793C11.9814 21.9082 12.1051 21.9808 12.2637 21.9969C12.4223 22.013 12.5619 21.9663 12.6824 21.8567ZM3.07204 15.1346C3.2116 15.0959 3.31151 15.0105 3.37177 14.8783C3.43204 14.7461 3.44631 14.5962 3.41459 14.4285C3.29407 13.9643 3.20367 13.4807 3.14341 12.9777C3.08315 12.4748 3.0657 11.9041 3.09108 11.2658C3.09742 11.0917 3.05619 10.9563 2.96738 10.8596C2.87857 10.7628 2.76439 10.708 2.62483 10.6951C2.44721 10.6758 2.30766 10.7161 2.20616 10.816C2.10467 10.916 2.0444 11.0433 2.02537 11.1981C1.98731 11.7268 1.99207 12.291 2.03965 12.8907C2.08722 13.4904 2.20299 14.1061 2.38695 14.738C2.43136 14.9057 2.52016 15.0266 2.65338 15.1007C2.78659 15.1749 2.92615 15.1862 3.07204 15.1346ZM12.5254 16.774C12.6491 16.687 12.7268 16.5564 12.7585 16.3823C12.841 15.9632 12.887 15.5166 12.8965 15.0427C12.906 14.5688 12.8743 14.0868 12.8013 13.5968C12.7284 13.1067 12.619 12.6295 12.4731 12.1653C12.4096 11.9847 12.3145 11.8606 12.1876 11.7929C12.0607 11.7252 11.9243 11.7139 11.7784 11.7591C11.6389 11.8042 11.5342 11.8896 11.4644 12.0154C11.3947 12.1411 11.3852 12.2846 11.4359 12.4458C11.5755 12.8907 11.6769 13.3308 11.7404 13.766C11.8038 14.2013 11.8324 14.6252 11.826 15.0379C11.8197 15.4506 11.7816 15.8503 11.7118 16.2372C11.6865 16.3855 11.7055 16.5209 11.7689 16.6434C11.8324 16.7659 11.9465 16.8401 12.1115 16.8659C12.2637 16.8917 12.4017 16.8611 12.5254 16.774ZM6.26915 19.516C6.49117 19.3935 6.72905 19.1968 6.98279 18.926C7.23653 18.6552 7.46648 18.3505 7.67264 18.012C7.8788 17.6735 8.02312 17.3463 8.10558 17.0303C8.14999 16.8949 8.14206 16.7579 8.08179 16.6193C8.02153 16.4806 7.91845 16.3823 7.77255 16.3243C7.63299 16.2856 7.50137 16.3017 7.37767 16.3726C7.25397 16.4436 7.16675 16.5564 7.116 16.7111C6.99548 17.1045 6.82579 17.4527 6.60694 17.7557C6.38809 18.0588 6.11373 18.3264 5.78387 18.5585C5.61894 18.6681 5.51904 18.7922 5.48415 18.9309C5.44926 19.0695 5.46036 19.1968 5.51745 19.3129C5.5682 19.4354 5.66335 19.5209 5.80291 19.5692C5.94246 19.6176 6.09788 19.5999 6.26915 19.516ZM10.2941 21.4698C10.6493 21.2054 11.0172 20.8072 11.3978 20.2753C11.7784 19.7433 12.0544 19.184 12.2257 18.5972C12.2637 18.4811 12.2637 18.3505 12.2257 18.2055C12.1876 18.0604 12.0956 17.9588 11.9497 17.9008C11.7848 17.8492 11.6405 17.8557 11.5168 17.9201C11.3931 17.9846 11.3059 18.0813 11.2551 18.2103C11.0331 18.8035 10.7857 19.2887 10.5129 19.6659C10.2402 20.0432 9.95153 20.351 9.64704 20.5896C9.52652 20.6928 9.45198 20.8153 9.42344 20.9572C9.39489 21.099 9.42185 21.2312 9.50431 21.3537C9.58044 21.4891 9.69938 21.5665 9.86113 21.5858C10.0229 21.6052 10.1672 21.5665 10.2941 21.4698Z" fill="#091723" style="fill:#091723;fill:color(display-p3 0.0353 0.0902 0.1373);fill-opacity:1;"/>
</svg>
