<svg width="24" height="24" viewBox="0 0 24 24" fill="none" xmlns="http://www.w3.org/2000/svg">
<path d="M12 16.5V7.5C14.4853 7.5 16.5 9.51472 16.5 12C16.5 14.4143 14.5988 16.3845 12.2118 16.4951L12 16.5Z" fill="#091723" style="fill:#091723;fill:color(display-p3 0.0353 0.0902 0.1373);fill-opacity:1;"/>
<path fill-rule="evenodd" clip-rule="evenodd" d="M22 12C22 6.47715 17.5228 2 12 2C6.47715 2 2 6.47715 2 12C2 17.5228 6.47715 22 12 22C17.5228 22 22 17.5228 22 12ZM12 20C16.4183 20 20 16.4183 20 12C20 7.58172 16.4183 4 12 4V7.5L11.7882 7.5049C9.40124 7.61551 7.5 9.58573 7.5 12C7.5 14.3411 9.28776 16.2647 11.5725 16.48L11.7882 16.4951L12 16.5V20Z" fill="#091723" style="fill:#091723;fill:color(display-p3 0.0353 0.0902 0.1373);fill-opacity:1;"/>
</svg>
