<svg width="24" height="24" viewBox="0 0 24 24" fill="none" xmlns="http://www.w3.org/2000/svg">
<path d="M12.0381 21.292C10.8786 21.292 9.82487 21.11 8.87695 20.7461C7.92904 20.3737 7.14193 19.8659 6.51562 19.2227C6.29273 18.9907 6.09502 18.7481 5.92251 18.4947C5.39344 17.7176 5.87688 16.7361 6.74008 16.3638L7.24101 16.1478C7.95776 15.8387 8.77408 16.2189 9.2832 16.8105C9.60482 17.166 9.99414 17.4453 10.4512 17.6484C10.9167 17.8516 11.4329 17.9531 12 17.9531C12.6517 17.9531 13.2103 17.8304 13.6758 17.585C14.1413 17.3395 14.4967 16.9925 14.7422 16.5439C14.9961 16.0869 15.123 15.5579 15.123 14.957C15.123 14.3477 14.9919 13.8229 14.7295 13.3828C14.4756 12.9427 14.1159 12.6084 13.6504 12.3799C13.1849 12.1429 12.6475 12.0244 12.0381 12.0244C11.5472 12.0244 11.0944 12.0879 10.6797 12.2148C10.2734 12.3418 9.91374 12.5026 9.60059 12.6973C9.56628 12.7192 9.53224 12.7415 9.49847 12.7641C8.99258 13.1037 8.39798 13.3243 7.79378 13.2456L7.64402 13.2261C6.57552 13.0869 5.80935 12.1262 5.91132 11.0535L6.53392 4.50409C6.63152 3.47747 7.4937 2.69336 8.52495 2.69336H16.4814C17.3789 2.69336 18.1064 3.4209 18.1064 4.31836C18.1064 5.21582 17.3789 5.94336 16.4814 5.94336H10.0068L9.59235 10.2892C9.58996 10.3142 9.60968 10.3359 9.63488 10.3359C9.64549 10.3359 9.65572 10.332 9.6636 10.3249C10.1178 9.9155 10.6427 9.59757 11.2383 9.37109C11.8477 9.13411 12.5374 9.01562 13.3076 9.01562C14.3656 9.01562 15.3262 9.2526 16.1895 9.72656C17.0527 10.1921 17.734 10.8691 18.2334 11.7578C18.7327 12.638 18.9824 13.6748 18.9824 14.8682C18.9824 16.1123 18.6989 17.221 18.1318 18.1943C17.5732 19.1676 16.7692 19.9294 15.7197 20.4795C14.6702 21.0212 13.443 21.292 12.0381 21.292Z" fill="#091723" style="fill:#091723;fill:color(display-p3 0.0353 0.0902 0.1373);fill-opacity:1;"/>
</svg>
