<svg width="24" height="24" viewBox="0 0 24 24" fill="none" xmlns="http://www.w3.org/2000/svg">
<path d="M16.8057 5.00744C16.3286 5.06639 15.9595 5.46828 15.9595 5.95532L15.967 6.07517C16.0268 6.5462 16.4338 6.91067 16.9271 6.91066L18.6951 6.91053L18.7005 6.9158L12.8624 12.6671L10.1255 9.96497C9.74765 9.59189 9.13498 9.59189 8.7571 9.96497L2.28341 16.3691C1.90553 16.7422 1.90553 17.3471 2.28341 17.7202C2.66129 18.0933 3.27395 18.0933 3.65183 17.7202L9.44132 11.9915L12.1782 14.6936C12.556 15.0667 13.1687 15.0667 13.5466 14.6936L20.0635 8.27213L20.0648 10.0085L20.0723 10.1283C20.132 10.5993 20.5391 10.9638 21.0324 10.9638C21.5668 10.9638 22 10.536 22 10.0085L22 5.95534L21.9942 5.85073L21.973 5.73019L21.9421 5.629L21.9094 5.55108L21.8576 5.45606L21.7926 5.36422L21.7561 5.32107L21.6749 5.24093L21.6075 5.18695L21.5101 5.12431L21.4138 5.07706L21.3001 5.03706L21.2085 5.01583L21.0908 5.00173L21.0324 5L16.9271 5L16.8057 5.00744Z" fill="#091723" style="fill:#091723;fill:color(display-p3 0.0353 0.0902 0.1373);fill-opacity:1;"/>
</svg>
