<svg width="24" height="24" viewBox="0 0 24 24" fill="none" xmlns="http://www.w3.org/2000/svg">
<path fill-rule="evenodd" clip-rule="evenodd" d="M11.2927 12.7069C12.4643 13.8785 14.3638 13.8785 15.5353 12.7069L19.0709 9.17137C20.2424 7.9998 20.2424 6.1003 19.0709 4.92873C17.8993 3.75716 15.9998 3.75716 14.8282 4.92873L12.9377 6.81927C12.1785 6.5491 11.3821 6.41401 10.5856 6.41401C10.5618 6.41401 10.538 6.41413 10.5142 6.41437L13.414 3.51451C15.3666 1.56189 18.5325 1.56189 20.4851 3.51451C22.4377 5.46714 22.4377 8.63296 20.4851 10.5856L16.9495 14.1211C14.9969 16.0737 11.8311 16.0737 9.87848 14.1211C9.63632 13.879 9.42419 13.6181 9.24209 13.3433L9.87848 12.7069C10.0737 12.5116 10.3297 12.414 10.5856 12.414C10.8415 12.414 11.0974 12.5116 11.2927 12.7069ZM4.92873 19.0709C6.1003 20.2424 7.9998 20.2424 9.17137 19.0709L11.0619 17.1803C11.8211 17.4505 12.6175 17.5856 13.414 17.5856C13.4378 17.5856 13.4616 17.5855 13.4854 17.5852L10.5856 20.4851C8.63296 22.4377 5.46714 22.4377 3.51451 20.4851C1.56189 18.5325 1.56189 15.3666 3.51451 13.414L7.05005 9.87848C9.00267 7.92585 12.1685 7.92585 14.1211 9.87848C14.3633 10.1206 14.5754 10.3815 14.7575 10.6563L14.1211 11.2927C13.9259 11.488 13.6699 11.5856 13.414 11.5856C13.1581 11.5856 12.9022 11.488 12.7069 11.2927C11.5353 10.1211 9.63584 10.1211 8.46426 11.2927L4.92873 14.8282C3.75716 15.9998 3.75716 17.8993 4.92873 19.0709Z" fill="#091723" style="fill:#091723;fill:color(display-p3 0.0353 0.0902 0.1373);fill-opacity:1;"/>
</svg>
