<svg width="24" height="24" viewBox="0 0 24 24" fill="none" xmlns="http://www.w3.org/2000/svg">
<path fill-rule="evenodd" clip-rule="evenodd" d="M13.4583 14.0055C13.8894 13.7277 14.4538 13.8232 14.7717 14.21L14.8406 14.3043L18.8065 20.4583C18.9105 20.6198 18.9659 20.8079 18.9659 21C18.9659 21.5128 18.5798 21.9355 18.0825 21.9933L17.9659 22H10.0341C9.84198 22 9.65391 21.9446 9.49241 21.8406C9.06134 21.5628 8.91517 21.0093 9.13602 20.56L9.19354 20.4583L13.1594 14.3043C13.2366 14.1846 13.3385 14.0827 13.4583 14.0055ZM9 8C9.55228 8 10 8.44772 10 9V15C10 15.5523 9.55228 16 9 16H3C2.44772 16 2 15.5523 2 15V9C2 8.44772 2.44772 8 3 8H9ZM17 2C19.7614 2 22 4.23858 22 7C22 9.76142 19.7614 12 17 12C14.2386 12 12 9.76142 12 7C12 4.23858 14.2386 2 17 2Z" fill="#091723" style="fill:#091723;fill:color(display-p3 0.0353 0.0902 0.1373);fill-opacity:1;"/>
</svg>
