<svg width="24" height="24" viewBox="0 0 24 24" fill="none" xmlns="http://www.w3.org/2000/svg">
<path d="M12.3428 21.292C10.9378 21.292 9.68522 21.0719 8.58496 20.6318C7.4847 20.1917 6.61719 19.5527 5.98242 18.7148C5.35612 17.877 5.04297 16.8825 5.04297 15.7314C5.04297 14.9613 5.19108 14.2799 5.4873 13.6875C5.78353 13.0866 6.19401 12.5915 6.71875 12.2021C7.24349 11.8044 7.85286 11.4954 8.54688 11.2754V11.1992C7.64128 10.8438 6.9388 10.3317 6.43945 9.66309C5.9401 8.986 5.69043 8.19889 5.69043 7.30176C5.69043 6.31152 5.97819 5.44401 6.55371 4.69922C7.12923 3.95443 7.92057 3.38737 8.92773 2.99805C9.9349 2.60026 11.0648 2.40137 12.3174 2.40137C13.5361 2.40137 14.6491 2.59603 15.6562 2.98535C16.6634 3.36621 17.459 3.92904 18.043 4.67383C18.6354 5.41016 18.9316 6.2819 18.9316 7.28906C18.9316 8.19466 18.682 8.986 18.1826 9.66309C17.6833 10.3402 16.9766 10.848 16.0625 11.1865V11.2754C16.7311 11.4785 17.3278 11.7747 17.8525 12.1641C18.3773 12.5534 18.792 13.0485 19.0967 13.6494C19.4098 14.2503 19.5664 14.9486 19.5664 15.7441C19.5664 16.8867 19.2575 17.877 18.6396 18.7148C18.0218 19.5527 17.167 20.1917 16.0752 20.6318C14.9834 21.0719 13.7393 21.292 12.3428 21.292ZM12.3047 18.1309C12.9395 18.1309 13.498 18.0208 13.9805 17.8008C14.4714 17.5807 14.848 17.276 15.1104 16.8867C15.3812 16.4889 15.5166 16.0277 15.5166 15.5029C15.5166 14.9782 15.3812 14.5212 15.1104 14.1318C14.848 13.734 14.4714 13.4294 13.9805 13.2178C13.498 12.9977 12.9437 12.8877 12.3174 12.8877C11.6657 12.8877 11.0944 12.9977 10.6035 13.2178C10.1211 13.4294 9.74447 13.734 9.47363 14.1318C9.21126 14.5212 9.08008 14.9782 9.08008 15.5029C9.08008 16.0361 9.21549 16.5016 9.48633 16.8994C9.75716 17.2887 10.1338 17.5934 10.6162 17.8135C11.1071 18.0251 11.6699 18.1309 12.3047 18.1309ZM12.292 10.0439C12.876 10.0439 13.388 9.94661 13.8281 9.75195C14.2767 9.54883 14.6195 9.26953 14.8564 8.91406C15.1019 8.55013 15.2246 8.12695 15.2246 7.64453C15.2246 7.17904 15.1019 6.76855 14.8564 6.41309C14.611 6.04915 14.2682 5.76986 13.8281 5.5752C13.388 5.37207 12.8802 5.27051 12.3047 5.27051C11.7207 5.27051 11.2044 5.37207 10.7559 5.5752C10.3158 5.76986 9.97298 6.04915 9.72754 6.41309C9.49056 6.76855 9.37207 7.17904 9.37207 7.64453C9.37207 8.13542 9.49479 8.56283 9.74023 8.92676C9.98568 9.28223 10.3285 9.55729 10.7686 9.75195C11.2171 9.94661 11.7249 10.0439 12.292 10.0439Z" fill="#091723" style="fill:#091723;fill:color(display-p3 0.0353 0.0902 0.1373);fill-opacity:1;"/>
</svg>
