<svg width="24" height="24" viewBox="0 0 24 24" fill="none" xmlns="http://www.w3.org/2000/svg">
<path d="M12.0047 22C17.4884 22 22 17.4884 22 12.0047C22 6.51156 17.4884 2 11.9953 2C6.50212 2 2 6.51156 2 12.0047C2 17.4884 6.51156 22 12.0047 22ZM10.9571 16.7522C10.5323 16.7522 10.1831 16.554 9.89051 16.1859L7.68193 13.5621C7.4554 13.2978 7.37046 13.0524 7.37046 12.7692C7.37046 12.1746 7.85182 11.7027 8.44644 11.7027C8.78622 11.7027 9.0505 11.8443 9.30533 12.1463L10.9382 14.1284L14.5908 8.33318C14.8457 7.92732 15.1571 7.71968 15.5347 7.71968C16.1199 7.71968 16.6484 8.15385 16.6484 8.74847C16.6484 8.98443 16.554 9.2487 16.3841 9.4941L11.9953 16.1671C11.7499 16.5352 11.3723 16.7522 10.9571 16.7522Z" fill="#091723" style="fill:#091723;fill:color(display-p3 0.0353 0.0902 0.1373);fill-opacity:1;"/>
</svg>
