<svg width="24" height="24" viewBox="0 0 24 24" fill="none" xmlns="http://www.w3.org/2000/svg">
<path fill-rule="evenodd" clip-rule="evenodd" d="M19.9994 2C20.3255 2 20.6471 2.01952 20.9631 2.05745C21.2608 2.11 21.5394 2.31 21.6345 2.60419C21.8716 3.3606 21.9994 4.16537 21.9994 5C21.9994 9.4183 18.4177 13 13.9994 13L13.864 12.997L13.8315 13.0547C13.3382 13.7945 13.0541 14.652 13.0066 15.5367L12.9994 15.8028V20C12.9994 20.5523 12.5517 21 11.9994 21C11.4866 21 11.0639 20.614 11.0061 20.1166L10.9994 20V18C10.9994 17.1232 10.6161 16.2939 9.95647 15.7262L9.90917 15.6897C9.30928 15.8909 8.66708 16 7.9994 16C4.80849 16 2.19936 13.5091 2.01036 10.3657C1.9994 9.9953 2.24421 9.66 2.55653 9.5182C3.30274 9.1851 4.12945 9 4.9994 9C7.94701 9 10.3982 11.1255 10.9038 13.9275L10.9994 14C11.0674 14.051 11.134 14.1036 11.199 14.1577C11.3879 13.3731 11.7149 12.6239 12.1674 11.9453L12.2204 11.8729C12.0758 11.273 11.9994 10.6454 11.9994 10C11.9994 5.58172 15.5811 2 19.9994 2Z" fill="#091723" style="fill:#091723;fill:color(display-p3 0.0353 0.0902 0.1373);fill-opacity:1;"/>
</svg>
