<svg width="24" height="24" viewBox="0 0 24 24" fill="none" xmlns="http://www.w3.org/2000/svg">
<path d="M12 7.0125C14.76 7.0125 17 9.2525 17 12.0125C17 12.5225 16.9 13.0125 16.76 13.4725L19.82 16.5325C21.21 15.3025 22.31 13.7625 23 12.0025C21.27 7.6225 17 4.5125 12 4.5125C10.73 4.5125 9.51 4.7125 8.36 5.0825L10.53 7.2525C11 7.1125 11.49 7.0125 12 7.0125ZM2.71 3.6725C2.32 4.0625 2.32 4.69251 2.71 5.0825L4.68 7.0525C3.06 8.3425 1.77 10.0425 1 12.0125C2.73 16.4025 7 19.5125 12 19.5125C13.52 19.5125 14.97 19.2125 16.31 18.6925L19.03 21.4125C19.42 21.8025 20.05 21.8025 20.44 21.4125C20.83 21.0225 20.83 20.3925 20.44 20.0025L4.13 3.6725C3.74 3.2825 3.1 3.2825 2.71 3.6725ZM12 17.0125C9.24 17.0125 7 14.7725 7 12.0125C7 11.2425 7.18 10.5125 7.49 9.8725L9.06 11.4425C9.03 11.6225 9 11.8125 9 12.0125C9 13.6725 10.34 15.0125 12 15.0125C12.2 15.0125 12.38 14.9825 12.57 14.9425L14.14 16.5125C13.49 16.8325 12.77 17.0125 12 17.0125ZM14.97 11.6825C14.82 10.2825 13.72 9.1925 12.33 9.0425L14.97 11.6825Z" fill="#091723" style="fill:#091723;fill:color(display-p3 0.0353 0.0902 0.1373);fill-opacity:1;"/>
</svg>
