<svg width="24" height="24" viewBox="0 0 24 24" fill="none" xmlns="http://www.w3.org/2000/svg">
<path fill-rule="evenodd" clip-rule="evenodd" d="M10.0005 16.9997C11.6571 16.9997 13.0006 18.3432 13.0006 19.9998C13.0006 21.6564 11.6571 23 10.0005 23C8.34388 23 7.00032 21.6564 7.00032 19.9998C7.00032 18.3432 8.34388 16.9997 10.0005 16.9997ZM18.5015 11.9982C20.9882 11.9982 23 14.0136 23 16.4967C23 18.9799 20.9847 20.9952 18.5015 20.9952C16.0184 20.9952 14.003 18.9799 14.003 16.4967C14.003 14.0136 16.0184 11.9982 18.5015 11.9982ZM7.9992 1C11.8646 1 14.9984 4.13381 14.9984 7.9992C14.9984 11.8646 11.8646 14.9984 7.9992 14.9984C4.13381 14.9984 1 11.8646 1 7.9992C1 4.13381 4.13381 1 7.9992 1ZM7.9992 8.16803C9.80703 8.16803 11.2772 9.24428 11.337 10.5878V10.6723C11.337 11.133 10.9642 11.5058 10.5034 11.5058H5.49145C5.0307 11.5058 4.65787 11.133 4.65787 10.6723C4.65787 9.29001 6.15268 8.16803 7.9992 8.16803ZM7.9992 3.99313C8.9207 3.99313 9.66986 4.74229 9.66986 5.66379C9.66986 6.58529 8.9207 7.33445 7.9992 7.33445C7.0777 7.33445 6.32854 6.58529 6.32854 5.66379C6.32854 4.74229 7.0777 3.99313 7.9992 3.99313Z" fill="#091723" style="fill:#091723;fill:color(display-p3 0.0353 0.0902 0.1373);fill-opacity:1;"/>
</svg>
