<svg width="24" height="24" viewBox="0 0 24 24" fill="none" xmlns="http://www.w3.org/2000/svg">
<path fill-rule="evenodd" clip-rule="evenodd" d="M15 13C19.3281 13 22.8535 15.5778 22.9955 18.7979L23 19C23 20.1046 22.1046 21 21 21H9C7.89543 21 7 20.1046 7 19C7 15.6863 10.5817 13 15 13ZM5 7C5.51284 7 5.93551 7.38604 5.99327 7.88338L6 8V9.999L8 10C8.51284 10 8.93551 10.386 8.99327 10.8834L9 11C9 11.5128 8.61396 11.9355 8.11662 11.9933L8 12H6V14C6 14.5128 5.61396 14.9355 5.11662 14.9933L5 15C4.48716 15 4.06449 14.614 4.00673 14.1166L4 14V12H2C1.48716 12 1.06449 11.614 1.00673 11.1166L1 11C1 10.4872 1.38604 10.0645 1.88338 10.0067L2 10H4V8C4 7.48716 4.38604 7.06449 4.88338 7.00673L5 7ZM15 3C17.2091 3 19 4.79086 19 7C19 9.20914 17.2091 11 15 11C12.7909 11 11 9.20914 11 7C11 4.79086 12.7909 3 15 3Z" fill="#091723" style="fill:#091723;fill:color(display-p3 0.0353 0.0902 0.1373);fill-opacity:1;"/>
</svg>
