<svg width="24" height="24" viewBox="0 0 24 24" fill="none" xmlns="http://www.w3.org/2000/svg">
<path d="M19.9444 12.4444C19.9444 13.2477 19.557 13.9604 18.9589 14.406C18.5517 14.7094 18.0468 14.8889 17.5 14.8889C16.9532 14.8889 16.4484 14.7094 16.0412 14.406C15.443 13.9604 15.0556 13.2477 15.0556 12.4444C15.0556 11.0944 16.15 10 17.5 10C18.85 10 19.9444 11.0944 19.9444 12.4444Z" fill="#091723" style="fill:#091723;fill:color(display-p3 0.0353 0.0902 0.1373);fill-opacity:1;"/>
<path d="M19.2446 16.3515C21.0346 16.8644 22.3195 18.1437 22.3861 19.6543L22.3889 19.7778C22.3889 20.4528 21.8417 21 21.1667 21H13.8333C13.1583 21 12.6111 20.4528 12.6111 19.7778C12.6111 18.2137 13.9169 16.8784 15.7554 16.3515C16.2972 16.1962 16.8854 16.1111 17.5 16.1111C18.1146 16.1111 18.7028 16.1962 19.2446 16.3515Z" fill="#091723" style="fill:#091723;fill:color(display-p3 0.0353 0.0902 0.1373);fill-opacity:1;"/>
<path d="M9.61092 3C11.8205 3 13.6111 4.79092 13.6111 7.00005C13.6111 9.20918 11.8205 11 9.61092 11C7.40193 11 5.61131 9.20918 5.61131 7.00005C5.61131 4.79092 7.40193 3 9.61092 3Z" fill="#091723" style="fill:#091723;fill:color(display-p3 0.0353 0.0902 0.1373);fill-opacity:1;"/>
<path d="M9.61092 13C5.19295 13 1.61111 15.6863 1.61111 19C1.61111 20.1045 2.50643 21 3.61092 21L10.851 21C10.6964 20.6231 10.6111 20.2104 10.6111 19.7778C10.6111 17.5457 12.0634 15.8845 13.842 14.9688C13.5663 14.5699 13.3538 14.1232 13.2195 13.6437C12.1353 13.232 10.9092 13 9.61092 13Z" fill="#091723" style="fill:#091723;fill:color(display-p3 0.0353 0.0902 0.1373);fill-opacity:1;"/>
</svg>
