<svg width="24" height="24" viewBox="0 0 24 24" fill="none" xmlns="http://www.w3.org/2000/svg">
<path fill-rule="evenodd" clip-rule="evenodd" d="M10 17C11.6569 17 13 18.3431 13 20C13 21.6569 11.6569 23 10 23C8.34315 23 7 21.6569 7 20C7 18.3431 8.34315 17 10 17ZM18.5 12C20.9853 12 23 14.0147 23 16.5C23 18.9853 20.9853 21 18.5 21C16.0147 21 14 18.9853 14 16.5C14 14.0147 16.0147 12 18.5 12ZM8 1C11.866 1 15 4.13401 15 8C15 11.866 11.866 15 8 15C4.13401 15 1 11.866 1 8C1 4.13401 4.13401 1 8 1ZM8.5 4C7.22974 4 6.18076 4.94737 6.02105 6.17409L6.00532 6.33562L6 6.5L5.99997 7H5.75L5.64823 7.00685C5.31543 7.05199 5.05199 7.31543 5.00685 7.64823L5 7.75L5.00685 7.85177C5.05199 8.18457 5.31543 8.44801 5.64823 8.49315L5.75 8.5H5.99997L6 8.75C6 9.08429 5.67506 9.76456 5.37154 10.081L5.28148 10.1643L5.21197 10.227L5.18333 10.2587C5.16902 10.2752 5.15542 10.2923 5.1424 10.31C5.13435 10.3211 5.12663 10.3324 5.11946 10.3437C5.10757 10.3621 5.09646 10.3811 5.08599 10.4009C5.0811 10.4102 5.07642 10.4196 5.07221 10.4285C5.06124 10.4516 5.05141 10.4753 5.04262 10.5005C5.04003 10.5078 5.03756 10.5152 5.03532 10.5219C5.02711 10.5476 5.02025 10.574 5.01488 10.6013C5.0134 10.6086 5.01203 10.6159 5.01073 10.6229C5.00714 10.6439 5.00443 10.6652 5.00263 10.6872L5.00087 10.7137L5.00052 10.7793L5.00206 10.8069L5.00411 10.8291L5.01608 10.9053C5.01812 10.9149 5.02035 10.9246 5.02292 10.9347C5.02883 10.9581 5.03584 10.981 5.04366 11.0028C5.04761 11.0138 5.05184 11.0248 5.05649 11.0361C5.08314 11.1006 5.11854 11.1606 5.16129 11.2147L5.16282 11.2166L5.16435 11.2185L5.227 11.287L5.25868 11.3167C5.26692 11.3238 5.27532 11.3308 5.28387 11.3376L5.30999 11.3576C5.3211 11.3657 5.3324 11.3734 5.34373 11.3805C5.36215 11.3924 5.38112 11.4035 5.40089 11.414C5.4102 11.4189 5.4196 11.4236 5.42849 11.4278C5.45158 11.4388 5.47532 11.4486 5.50047 11.4574C5.50783 11.46 5.51522 11.4624 5.52188 11.4647C5.54762 11.4729 5.57397 11.4797 5.60126 11.4851C5.60859 11.4866 5.61595 11.488 5.6229 11.4893C5.64646 11.4933 5.6704 11.4962 5.69524 11.498L5.71321 11.4991L5.74037 11.4999L5.75 11.5H10.25L10.3518 11.4932C10.7178 11.4435 11 11.1297 11 10.75C11 10.3703 10.7178 10.0565 10.3518 10.0068L10.25 10L7.18442 10.0004C7.34637 9.64191 7.45756 9.27091 7.49012 8.94192L7.5 8.75L7.49997 8.5H9.25L9.35177 8.49315C9.68457 8.44801 9.94801 8.18457 9.99315 7.85177L10 7.75L9.99315 7.64823C9.94801 7.31543 9.68457 7.05199 9.35177 7.00685L9.25 7H7.49997L7.5 6.5L7.50673 6.38338C7.56449 5.88604 7.98716 5.5 8.5 5.5C8.76541 5.5 9.01268 5.60285 9.19874 5.78462C9.49502 6.07408 9.96986 6.06855 10.2593 5.77227C10.5488 5.47599 10.5433 5.00115 10.247 4.71168C9.78344 4.25882 9.16118 4 8.5 4Z" fill="#091723" style="fill:#091723;fill:color(display-p3 0.0353 0.0902 0.1373);fill-opacity:1;"/>
</svg>
