<svg width="24" height="24" viewBox="0 0 24 24" fill="none" xmlns="http://www.w3.org/2000/svg">
<path fill-rule="evenodd" clip-rule="evenodd" d="M12 2C17.5228 2 22 6.47715 22 12C22 13.9162 21.461 15.7066 20.5264 17.2277L22.0152 20.7021C22.2328 21.2098 21.9976 21.7976 21.49 22.0152C21.2384 22.123 20.9537 22.123 20.7021 22.0152L17.2277 20.5264C15.7066 21.461 13.9162 22 12 22C6.47715 22 2 17.5228 2 12C2 6.47715 6.47715 2 12 2ZM12 6C11.6203 6 11.3065 6.28215 11.2568 6.64823L11.25 6.75L11.2498 6.95158C9.43585 7.20399 8 8.35939 8 9.9C8 11.3835 9.33146 12.5099 11.0498 12.8167L11.2498 12.8484L11.2499 15.2333C10.5869 15.1125 10.0493 14.8393 9.77579 14.5091L9.7018 14.4084C9.43274 13.9905 8.87582 13.8698 8.45788 14.1389C8.03995 14.4079 7.91925 14.9648 8.18831 15.3828C8.73306 16.2289 9.78046 16.8116 11.0036 17.0176L11.2505 17.0538L11.25 17.25L11.2568 17.3518C11.3065 17.7178 11.6203 18 12 18C12.3797 18 12.6935 17.7178 12.7432 17.3518L12.75 17.25L12.7508 17.0537C14.6718 16.814 16.2 15.6647 16.2 14.1C16.2 12.5912 14.779 11.4687 12.9551 11.1755L12.7508 11.1463L12.7511 8.77826C13.2963 8.89539 13.746 9.13505 14.0021 9.43589L14.0545 9.50226L14.0987 9.56857C14.3568 9.99336 14.9104 10.1285 15.3352 9.8704C15.76 9.6123 15.8951 9.05871 15.637 8.63391C15.5599 8.50691 15.4715 8.38514 15.3728 8.26919C14.8217 7.62177 13.9675 7.17407 12.9955 6.99162L12.7502 6.95157L12.75 6.75L12.7432 6.64823C12.6935 6.28215 12.3797 6 12 6ZM12.7507 12.9656C13.7378 13.1433 14.4 13.6507 14.4 14.1C14.4 14.5212 13.818 14.9935 12.9318 15.1973L12.7507 15.2344V12.9656ZM11.25 8.77666V11.0233C10.3791 10.8388 9.8 10.3517 9.8 9.9C9.8 9.47839 10.3045 9.02596 11.0798 8.81749L11.25 8.77666Z" fill="#091723" style="fill:#091723;fill:color(display-p3 0.0353 0.0902 0.1373);fill-opacity:1;"/>
</svg>
