<svg width="24" height="24" viewBox="0 0 24 24" fill="none" xmlns="http://www.w3.org/2000/svg">
<path fill-rule="evenodd" clip-rule="evenodd" d="M13 3C14.807 3 16.4463 3.96743 17.3329 5.50348C17.609 5.98181 17.445 6.59338 16.9667 6.86946C16.4884 7.14553 15.8768 6.98158 15.6007 6.50325C15.0678 5.57999 14.085 5 13 5C11.4023 5 10.0963 6.24892 10.0051 7.82373L9.999 7.989L10 8V11H15C15.5128 11 15.9355 11.386 15.9933 11.8834L16 12C16 12.5128 15.614 12.9355 15.1166 12.9933L15 13H10V17C10 17.729 9.80497 18.4125 9.46423 19.0011L18 19C18.5523 19 19 19.4477 19 20C19 20.5128 18.614 20.9355 18.1166 20.9933L18 21H6C5.44772 21 5 20.5523 5 20C5 19.4872 5.38604 19.0645 5.88338 19.0067L6.14926 18.9945C7.13238 18.922 7.91786 18.1388 7.99396 17.1567L8 17V13H7C6.48716 13 6.06449 12.614 6.00673 12.1166L6 12C6 11.4872 6.38604 11.0645 6.88338 11.0067L7 11H8V8C8 5.31125 10.1223 3.11818 12.7831 3.00462L13 3Z" fill="#091723" style="fill:#091723;fill:color(display-p3 0.0353 0.0902 0.1373);fill-opacity:1;"/>
</svg>
