<svg width="24" height="24" viewBox="0 0 24 24" fill="none" xmlns="http://www.w3.org/2000/svg">
<path fill-rule="evenodd" clip-rule="evenodd" d="M21 5C22.1046 5 23 5.89543 23 7V17C23 18.1046 22.1046 19 21 19H3C1.89543 19 1 18.1046 1 17V7C1 5.89543 1.89543 5 3 5H21ZM3.001 14L3 17H6C6 15.3435 4.6574 14.0005 3.001 14ZM21 14C19.3431 14 18 15.3431 18 17H21V14ZM12 8.5C10.6193 8.5 9.5 10.067 9.5 12C9.5 13.933 10.6193 15.5 12 15.5C13.3807 15.5 14.5 13.933 14.5 12C14.5 10.067 13.3807 8.5 12 8.5ZM21 10V7H18C18 8.59768 19.2489 9.90366 20.8237 9.99491L21 10ZM6 7H3V10L3.17627 9.99491C4.75108 9.90366 6 8.59768 6 7Z" fill="#091723" style="fill:#091723;fill:color(display-p3 0.0353 0.0902 0.1373);fill-opacity:1;"/>
</svg>
