<svg width="24" height="24" viewBox="0 0 24 24" fill="none" xmlns="http://www.w3.org/2000/svg">
<g clip-path="url(#clip0_6086_1079)">
<path d="M8.5 10C12.366 10 15.5 13.134 15.5 17C15.5 20.866 12.366 24 8.5 24C4.63403 24 1.5 20.866 1.5 17C1.5 13.134 4.63403 10 8.5 10ZM9 13C7.72985 13 6.68129 13.9473 6.52148 15.1738L6.50586 15.3359L6.5 15.5V16H6.25L6.14844 16.0068C5.81567 16.052 5.552 16.3156 5.50684 16.6484L5.5 16.75L5.50684 16.8516C5.552 17.1844 5.81567 17.448 6.14844 17.4932L6.25 17.5H6.5V17.75C6.5 18.0842 6.17548 18.7645 5.87207 19.0811L5.78125 19.1641L5.71191 19.2266L5.68359 19.2588C5.6693 19.2752 5.65567 19.292 5.64258 19.3096C5.63452 19.3207 5.62646 19.3324 5.61914 19.3438C5.60745 19.3621 5.59641 19.3816 5.58594 19.4014L5.57227 19.4287C5.56131 19.4518 5.55174 19.4758 5.54297 19.501L5.53516 19.5215C5.52686 19.5472 5.52002 19.5743 5.51465 19.6016L5.51074 19.623L5.50684 19.6484C5.50513 19.6611 5.50391 19.6745 5.50293 19.6875L5.50098 19.7139V19.7793L5.50195 19.8066L5.50391 19.8291L5.5166 19.9053L5.52344 19.9346L5.53125 19.9648L5.54395 20.0029L5.55664 20.0361C5.58348 20.1006 5.61844 20.1608 5.66113 20.2148L5.66309 20.2168L5.66406 20.2188L5.72754 20.2871L5.75879 20.3164L5.78418 20.3379L5.81055 20.3574C5.82146 20.3655 5.8326 20.3738 5.84375 20.3809C5.86201 20.3927 5.88165 20.4036 5.90137 20.4141L5.92871 20.4277C5.95185 20.4387 5.97589 20.4482 6.00098 20.457L6.02246 20.4648C6.04794 20.473 6.07439 20.48 6.10156 20.4854L6.12305 20.4893C6.14665 20.4932 6.17049 20.4963 6.19531 20.498L6.21289 20.499L6.24023 20.5H10.75L10.8516 20.4932C11.2175 20.4435 11.5 20.1297 11.5 19.75C11.5 19.3703 11.2175 19.0565 10.8516 19.0068L10.75 19H7.68457C7.8465 18.6418 7.95748 18.2711 7.99023 17.9424L8 17.75V17.5H9.75L9.85156 17.4932C10.1843 17.448 10.448 17.1844 10.4932 16.8516L10.5 16.75L10.4932 16.6484C10.448 16.3156 10.1843 16.052 9.85156 16.0068L9.75 16H8V15.5L8.00684 15.3838C8.06445 14.8865 8.48706 14.5 9 14.5C9.26538 14.5 9.51318 14.6024 9.69922 14.7842C9.99561 15.0736 10.4705 15.0687 10.7598 14.7725C11.0491 14.4762 11.043 14.0013 10.7471 13.7119C10.2834 13.259 9.66113 13 9 13ZM11.1338 0.00390625C11.4038 -0.0197176 11.6472 0.0600709 11.8643 0.242188C12.0813 0.424284 12.2019 0.649948 12.2256 0.919922C12.2492 1.1898 12.1702 1.43344 11.9883 1.65039L10.4131 3.52734C11.9117 3.34892 13.3746 3.4664 14.8008 3.87988C16.2268 4.29339 17.5209 4.98809 18.6826 5.96289C20.1507 7.19482 21.2135 8.69579 21.8711 10.4658C22.5287 12.236 22.7097 14.063 22.4131 15.9463C22.3653 16.2106 22.2259 16.4094 21.9951 16.542C21.7642 16.6746 21.5096 16.7109 21.2324 16.6523C20.9554 16.5938 20.7473 16.447 20.6084 16.2109C20.4694 15.9747 20.4171 15.7185 20.4521 15.4434C20.6749 13.9333 20.5119 12.4745 19.9629 11.0674C19.4139 9.66044 18.5582 8.46994 17.3965 7.49512C16.4262 6.68092 15.3351 6.10804 14.123 5.77637C12.911 5.44471 11.6739 5.36941 10.4121 5.55078L12.4805 7.28613C12.6974 7.46818 12.8181 7.69399 12.8418 7.96387C12.8654 8.2337 12.7863 8.47741 12.6045 8.69434C12.4224 8.91138 12.1958 9.03204 11.9258 9.05566C11.6559 9.07925 11.4123 9.00037 11.1953 8.81836L7.36523 5.60449C7.14819 5.42237 7.02753 5.19581 7.00391 4.92578C6.98032 4.65581 7.06009 4.41232 7.24219 4.19531L10.4561 0.365234C10.6381 0.148269 10.8639 0.0275651 11.1338 0.00390625Z" fill="#091723" style="fill:#091723;fill:color(display-p3 0.0353 0.0902 0.1373);fill-opacity:1;"/>
</g>
<defs>
<clipPath id="clip0_6086_1079">
<rect width="24" height="24" fill="white" style="fill:white;fill-opacity:1;"/>
</clipPath>
</defs>
</svg>
