<svg width="24" height="24" viewBox="0 0 24 24" fill="none" xmlns="http://www.w3.org/2000/svg">
<path fill-rule="evenodd" clip-rule="evenodd" d="M12 2C17.5228 2 22 6.47715 22 12C22 13.9162 21.461 15.7066 20.5264 17.2277L22.0152 20.7021C22.2328 21.2098 21.9976 21.7976 21.49 22.0152C21.2384 22.123 20.9537 22.123 20.7021 22.0152L17.2277 20.5264C15.7066 21.461 13.9162 22 12 22C6.47715 22 2 17.5228 2 12C2 6.47715 6.47715 2 12 2ZM12.5 7L12.3135 7.00503C10.5842 7.09854 9.19854 8.4842 9.10503 10.2135L9.1 10.4V11.2H8.9L8.78711 11.207C8.38032 11.2579 8.05792 11.5803 8.00701 11.9871L8 12.1L8.00701 12.2129C8.05792 12.6197 8.38032 12.9421 8.78711 12.993L8.9 13H9.099L9.1 14.1L9.09175 14.2453C9.04819 14.6336 8.83596 15.0216 8.54403 15.254L8.431 15.3335C8.431 15.3335 8.42888 15.3348 8.42697 15.3342C8.17071 15.4928 8 15.7765 8 16.1C8 16.5588 8.34334 16.9375 8.78711 16.993L8.9 17H15.1L15.2129 16.993C15.6567 16.9375 16 16.5588 16 16.1C16 15.6412 15.6567 15.2625 15.2129 15.207L15.1 15.2L10.7015 15.2007C10.8043 14.9193 10.8697 14.624 10.8917 14.3249L10.9 14.1L10.899 13H13.1L13.2129 12.993C13.6197 12.9421 13.9421 12.6197 13.993 12.2129L14 12.1L13.993 11.9871C13.9421 11.5803 13.6197 11.2579 13.2129 11.207L13.1 11.2H10.9L10.899 10.399L10.9065 10.2544C10.9758 9.48693 11.5869 8.87578 12.3544 8.80654L12.5 8.8C13.0133 8.8 13.4839 9.04302 13.7826 9.44304L13.8669 9.56767C14.126 9.99182 14.68 10.1256 15.1041 9.86645C15.5283 9.6073 15.662 9.05337 15.4029 8.62922C14.8259 7.68488 13.8251 7.07494 12.7103 7.00645L12.5 7Z" fill="#091723" style="fill:#091723;fill:color(display-p3 0.0353 0.0902 0.1373);fill-opacity:1;"/>
</svg>
