<svg width="24" height="24" viewBox="0 0 24 24" fill="none" xmlns="http://www.w3.org/2000/svg">
<path fill-rule="evenodd" clip-rule="evenodd" d="M22 9V18C22 19.1046 21.1046 20 20 20H4C2.89543 20 2 19.1046 2 18V9H22ZM7 13H5C4.48716 13 4.06449 13.386 4.00673 13.8834L4 14V15C4 15.5128 4.38604 15.9355 4.88338 15.9933L5 16H7C7.51284 16 7.93551 15.614 7.99327 15.1166L8 15V14C8 13.4872 7.61396 13.0645 7.11662 13.0067L7 13ZM20 4C21.1046 4 22 4.89543 22 6V7H2V6C2 4.89543 2.89543 4 4 4H20Z" fill="#091723" style="fill:#091723;fill:color(display-p3 0.0353 0.0902 0.1373);fill-opacity:1;"/>
</svg>
