<svg width="24" height="24" viewBox="0 0 24 24" fill="none" xmlns="http://www.w3.org/2000/svg">
<path fill-rule="evenodd" clip-rule="evenodd" d="M7.049 5.9998L5.15535 7.8947C4.93414 8.11591 4.76572 8.38316 4.66149 8.67646L4.60675 8.85541L4.08583 10.8762C3.97943 11.2889 3.98032 11.722 4.08842 12.1343C4.42457 13.4164 5.69744 14.2039 6.98036 13.955L7.14071 13.9185L9.15259 13.391C9.45283 13.3123 9.73113 13.1682 9.96797 12.97L10.1049 12.8446L16.949 5.9998H21C22.1046 5.9998 23 6.89523 23 7.9998V17.9998C23 19.1044 22.1046 19.9998 21 19.9998H3C1.89543 19.9998 1 19.1044 1 17.9998V7.9998C1 6.89523 1.89543 5.9998 3 5.9998H7.049ZM20 15.9998H4C3.44772 15.9998 3 16.4475 3 16.9998C3 17.5521 3.44772 17.9998 4 17.9998H20C20.5523 17.9998 21 17.5521 21 16.9998C21 16.4475 20.5523 15.9998 20 15.9998ZM20 11.9998H16C15.4477 11.9998 15 12.4475 15 12.9998C15 13.5521 15.4477 13.9998 16 13.9998H20C20.5523 13.9998 21 13.5521 21 12.9998C21 12.4475 20.5523 11.9998 20 11.9998ZM13.2322 2.64624L15.3536 4.76756L8.69072 11.4304L8.66978 11.4464L8.64537 11.4564L6.63349 11.9839C6.36637 12.0539 6.09306 11.8942 6.02303 11.627C6.00862 11.5721 6.00373 11.5153 6.00838 11.459L6.02251 11.3754L6.54344 9.35466L6.55343 9.33004L6.56956 9.30892L13.2322 2.64624ZM15.3891 0.489389C15.9749 -0.0963979 16.9246 -0.0963979 17.5104 0.489389C18.0596 1.03856 18.0939 1.90763 17.6134 2.49679L17.5104 2.61071L16.7678 3.35335L14.6464 1.23203L15.3891 0.489389Z" fill="#091723" style="fill:#091723;fill:color(display-p3 0.0353 0.0902 0.1373);fill-opacity:1;"/>
</svg>
