<svg width="24" height="24" viewBox="0 0 24 24" fill="none" xmlns="http://www.w3.org/2000/svg">
<path fill-rule="evenodd" clip-rule="evenodd" d="M4.4713 2.99992C4.08077 2.6094 3.44761 2.6094 3.05708 2.99992C2.66656 3.39045 2.66656 4.02361 3.05708 4.41414L3.64288 4.99994H3C1.89543 4.99994 1 5.89537 1 6.99994V16.9999C1 18.1045 1.89543 18.9999 3 18.9999H17.6429L19.6429 20.9999C20.0334 21.3904 20.6666 21.3904 21.0571 20.9999C21.4476 20.6094 21.4476 19.9762 21.0571 19.5857L4.4713 2.99992ZM13.4721 14.8291L9.61053 10.9676C9.53868 11.2939 9.5 11.6406 9.5 11.9999C9.5 13.9329 10.6193 15.4999 12 15.4999C12.5503 15.4999 13.0591 15.251 13.4721 14.8291ZM5.64288 6.99994L5.98114 7.3382C5.81954 8.77836 4.63836 9.91013 3.17627 9.99485L3 9.99994V6.99994H5.64288ZM3.001 13.9999L3 16.9999H6C6 15.3434 4.6574 14.0004 3.001 13.9999Z" fill="#091723" style="fill:#091723;fill:color(display-p3 0.0353 0.0902 0.1373);fill-opacity:1;"/>
<path fill-rule="evenodd" clip-rule="evenodd" d="M13.3917 9.09199C13.432 9.12985 13.4715 9.1693 13.51 9.21029L19.0338 14.734C19.5603 14.2767 20.2478 13.9999 21 13.9999V16.7003L22.5562 18.2564C22.8338 17.913 23 17.4759 23 16.9999V6.99994C23 5.89537 22.1046 4.99994 21 4.99994H9.29968L13.3917 9.09199ZM21 6.99994H18C18 8.59762 19.2489 9.9036 20.8237 9.99485L21 9.99994V6.99994Z" fill="#091723" style="fill:#091723;fill:color(display-p3 0.0353 0.0902 0.1373);fill-opacity:1;"/>
</svg>
