<svg width="24" height="24" viewBox="0 0 24 24" fill="none" xmlns="http://www.w3.org/2000/svg">
<path fill-rule="evenodd" clip-rule="evenodd" d="M12.0027 2C12.5155 2 12.9382 2.38604 12.9959 2.88338L13.0027 3L13.003 4.06738C14.772 4.30808 16.3136 5.17996 17.1381 6.46135C17.4369 6.9258 17.3027 7.54457 16.8382 7.84341C16.4069 8.1209 15.8426 8.02496 15.5249 7.63797L15.4562 7.54353C15.0039 6.84068 14.0997 6.30062 13.003 6.09282L13.0024 11.0614C15.7994 11.4086 18.0027 13.1919 18.0027 15.5C18.0027 17.8081 15.7994 19.5914 13.0024 19.9386L13.0027 21C13.0027 21.5523 12.5549 22 12.0027 22C11.4898 22 11.0672 21.614 11.0094 21.1166L11.0027 21L11.0024 19.9384C8.8275 19.6682 6.98585 18.5271 6.29012 16.8929C6.0738 16.3847 6.31037 15.7974 6.81852 15.5811C7.29038 15.3802 7.83049 15.5698 8.07844 16.0048L8.13031 16.1095C8.49847 16.9743 9.60261 17.6838 11.0022 17.9179L11.0019 12.9326C8.33946 12.57 6.25267 10.7834 6.25267 8.5C6.25267 6.21662 8.33946 4.42996 11.0019 4.06742L11.0027 3C11.0027 2.44772 11.4504 2 12.0027 2ZM13.003 13.0811V17.9189C14.7617 17.6273 16.0027 16.5915 16.0027 15.5C16.0027 14.4085 14.7617 13.3727 13.003 13.0811ZM11.0022 6.09177C9.38789 6.39545 8.25267 7.41061 8.25267 8.5C8.25267 9.58939 9.38789 10.6045 11.0022 10.9082V6.09177Z" fill="#091723" style="fill:#091723;fill:color(display-p3 0.0353 0.0902 0.1373);fill-opacity:1;"/>
</svg>
