<svg width="24" height="24" viewBox="0 0 24 24" fill="none" xmlns="http://www.w3.org/2000/svg">
<path d="M8 7C8 6.44772 8.44772 6 9 6H15C15.5523 6 16 6.44772 16 7C16 7.55228 15.5523 8 15 8H9C8.44772 8 8 7.55228 8 7Z" fill="#091723" style="fill:#091723;fill:color(display-p3 0.0353 0.0902 0.1373);fill-opacity:1;"/>
<path d="M9 9C8.44772 9 8 9.44772 8 10C8 10.5523 8.44772 11 9 11H10C10.5523 11 11 10.5523 11 10C11 9.44772 10.5523 9 10 9H9Z" fill="#091723" style="fill:#091723;fill:color(display-p3 0.0353 0.0902 0.1373);fill-opacity:1;"/>
<path fill-rule="evenodd" clip-rule="evenodd" d="M19.9945 3.85074C19.9182 2.81588 19.0544 2 18 2H6L5.85074 2.00549C4.81588 2.08183 4 2.94564 4 4V8.399L2.75061 9.39951C2.27618 9.77906 2 10.3537 2 10.9612V20L2.00549 20.1493C2.08183 21.1841 2.94564 22 4 22H20L20.1493 21.9945C21.1841 21.9182 22 21.0544 22 20V10.9612C22 10.3537 21.7238 9.77906 21.2494 9.39951L20 8.399V4L19.9945 3.85074ZM6 4H18V13.199L12 18L6 13.2V4Z" fill="#091723" style="fill:#091723;fill:color(display-p3 0.0353 0.0902 0.1373);fill-opacity:1;"/>
</svg>
