<svg width="24" height="24" viewBox="0 0 24 24" fill="none" xmlns="http://www.w3.org/2000/svg">
<path fill-rule="evenodd" clip-rule="evenodd" d="M18 2C19.0544 2 19.9182 2.81588 19.9945 3.85074L20 4V8.399L21.2494 9.39951C21.7238 9.77906 22 10.3537 22 10.9612V20C22 21.0544 21.1841 21.9182 20.1493 21.9945L20 22H4C2.94564 22 2.08183 21.1841 2.00549 20.1493L2 20V10.9612C2 10.3537 2.27618 9.77906 2.75061 9.39951L4 8.399V4C4 2.94564 4.81588 2.08183 5.85074 2.00549L6 2H18ZM18 4H6V13.2L12 18L18 13.199V4ZM12 5.5C12.2455 5.5 12.4496 5.67688 12.4919 5.91012L12.5 6L12.5005 6.28669C12.8313 6.33578 13.1473 6.43345 13.4342 6.57563C13.9433 6.82793 14.3458 7.21303 14.5666 7.68449C14.7423 8.05959 14.5807 8.50611 14.2056 8.68182C13.8305 8.85753 13.384 8.6959 13.2083 8.3208C13.1395 8.17399 12.9871 8.02813 12.7681 7.91963C12.6851 7.87849 12.5955 7.8442 12.5008 7.81747L12.5004 9.28154C13.8597 9.45461 14.95 10.3242 14.95 11.5C14.95 12.6758 13.8597 13.5454 12.5004 13.7185L12.5 14C12.5 14.2761 12.2761 14.5 12 14.5C11.7545 14.5 11.5504 14.3231 11.5081 14.0899L11.5 14L11.4999 13.7185C10.5068 13.5922 9.64789 13.0927 9.26034 12.3471C9.0693 11.9796 9.21237 11.5268 9.5799 11.3357C9.91679 11.1606 10.3254 11.2662 10.5383 11.5681L10.5913 11.6553C10.7143 11.8919 11.0546 12.1044 11.4996 12.1986L11.5001 10.7132C10.2454 10.5266 9.25 9.64819 9.25 8.5C9.25 7.35181 10.2454 6.47341 11.5001 6.28679L11.5 6C11.5 5.72386 11.7239 5.5 12 5.5ZM12.5011 10.8004V12.1996C13.0756 12.0798 13.45 11.768 13.45 11.5C13.45 11.232 13.0756 10.9202 12.5011 10.8004ZM11.4991 7.81599C11.0437 7.94231 10.75 8.2298 10.75 8.5C10.75 8.7702 11.0437 9.05769 11.4991 9.18401V7.81599Z" fill="#091723" style="fill:#091723;fill:color(display-p3 0.0353 0.0902 0.1373);fill-opacity:1;"/>
</svg>
