<svg width="24" height="24" viewBox="0 0 24 24" fill="none" xmlns="http://www.w3.org/2000/svg">
<path fill-rule="evenodd" clip-rule="evenodd" d="M18 2C19.0544 2 19.9182 2.81588 19.9945 3.85074L20 4V8.399L21.2494 9.39951C21.7238 9.77906 22 10.3537 22 10.9612V20C22 21.0544 21.1841 21.9182 20.1493 21.9945L20 22H4C2.94564 22 2.08183 21.1841 2.00549 20.1493L2 20V10.9612C2 10.3537 2.27618 9.77906 2.75061 9.39951L4 8.399V4C4 2.94564 4.81588 2.08183 5.85074 2.00549L6 2H18ZM18 4H6V13.2L12 18L18 13.199V4ZM9.25868 13.3167L9.228 13.287L9.16129 13.2147L9.10285 13.1293L9.04981 13.0193L9.02292 12.9347L9.00411 12.8291L9.00087 12.7143L9.01488 12.6013L9.04262 12.5005L9.08599 12.4009L9.1424 12.31L9.18333 12.2587L9.212 12.227L9.28148 12.1643C9.57724 11.9277 9.92907 11.2563 9.9906 10.86L10 10.75L9.99997 10.5H9.75C9.3703 10.5 9.05651 10.2178 9.00685 9.85177L9 9.75C9 9.3703 9.28215 9.05651 9.64823 9.00685L9.75 9H9.99997L10 8.5L10.0053 8.33562C10.09 7.03154 11.1745 6 12.5 6C13.1612 6 13.7834 6.25882 14.247 6.71168C14.5433 7.00115 14.5488 7.47599 14.2593 7.77227C13.9962 8.04162 13.5798 8.07067 13.2837 7.85625L13.1987 7.78462C13.0127 7.60285 12.7654 7.5 12.5 7.5C11.9872 7.5 11.5645 7.88604 11.5067 8.38338L11.5 8.5V9H13.25C13.6297 9 13.9435 9.28215 13.9932 9.64823L14 9.75C14 10.1297 13.7178 10.4435 13.3518 10.4932L13.25 10.5H11.5V10.75C11.5 11.122 11.3788 11.5702 11.1844 12.0004L14.25 12C14.6642 12 15 12.3358 15 12.75C15 13.1297 14.7178 13.4435 14.3518 13.4932L14.25 13.5L9.69524 13.498L9.60126 13.4851L9.50047 13.4574L9.40089 13.414L9.30999 13.3576L9.25868 13.3167Z" fill="#091723" style="fill:#091723;fill:color(display-p3 0.0353 0.0902 0.1373);fill-opacity:1;"/>
</svg>
