<svg width="24" height="24" viewBox="0 0 24 24" fill="none" xmlns="http://www.w3.org/2000/svg">
<path d="M17.6337 6.35292C16.0037 4.72292 13.6937 3.78292 11.1537 4.04292C7.48366 4.41292 4.46366 7.39292 4.05366 11.0629C3.50366 15.9129 7.25366 20.0029 11.9837 20.0029C15.1737 20.0029 17.9137 18.1329 19.1937 15.4429C19.5137 14.7729 19.0337 14.0029 18.2937 14.0029C17.9237 14.0029 17.5737 14.2029 17.4137 14.5329C16.2837 16.9629 13.5737 18.5029 10.6137 17.8429C8.39366 17.3529 6.60366 15.5429 6.13366 13.3229C5.29366 9.44292 8.24366 6.00292 11.9837 6.00292C13.6437 6.00292 15.1237 6.69292 16.2037 7.78292L14.6937 9.29292C14.0637 9.92292 14.5037 11.0029 15.3937 11.0029H18.9837C19.5337 11.0029 19.9837 10.5529 19.9837 10.0029V6.41292C19.9837 5.52292 18.9037 5.07292 18.2737 5.70292L17.6337 6.35292Z" fill="#091723" style="fill:#091723;fill:color(display-p3 0.0353 0.0902 0.1373);fill-opacity:1;"/>
</svg>
