<svg width="24" height="24" viewBox="0 0 24 24" fill="none" xmlns="http://www.w3.org/2000/svg">
<path d="M19.66 3.99004C17.02 2.19004 13.76 3.03004 12 5.09004C10.24 3.03004 6.98 2.18004 4.34 3.99004C2.94 4.95004 2.06 6.57004 2 8.28004C1.86 12.16 5.3 15.27 10.55 20.04L10.65 20.13C11.41 20.82 12.58 20.82 13.34 20.12L13.45 20.02C18.7 15.26 22.13 12.15 22 8.27004C21.94 6.57004 21.06 4.95004 19.66 3.99004ZM12.1 18.55L12 18.65L11.9 18.55C7.14 14.24 4 11.39 4 8.50004C4 6.50004 5.5 5.00004 7.5 5.00004C9.04 5.00004 10.54 5.99004 11.07 7.36004H12.94C13.46 5.99004 14.96 5.00004 16.5 5.00004C18.5 5.00004 20 6.50004 20 8.50004C20 11.39 16.86 14.24 12.1 18.55Z" fill="#091723" style="fill:#091723;fill:color(display-p3 0.0353 0.0902 0.1373);fill-opacity:1;"/>
</svg>
