<svg width="24" height="24" viewBox="0 0 24 24" fill="none" xmlns="http://www.w3.org/2000/svg">
<path d="M14.1172 17.2996C13.7272 17.6896 13.0971 17.6896 12.7071 17.2996C12.3276 16.9196 12.3176 16.2803 12.7071 15.8904L16.5879 12.0105L12.7071 8.11987C12.3174 7.72988 12.3172 7.09962 12.7071 6.70972C13.097 6.31981 13.7272 6.32001 14.1172 6.70972L18.7071 11.2996C19.0971 11.6896 19.0971 12.3197 18.7071 12.7097L14.1172 17.2996ZM7.11721 17.2996C6.72721 17.6896 6.09705 17.6896 5.70705 17.2996C5.32762 16.9196 5.31762 16.2803 5.70705 15.8904L9.58791 12.0105L5.70705 8.11987C5.31737 7.72988 5.31723 7.09962 5.70705 6.70972C6.09695 6.31981 6.72719 6.32001 7.11721 6.70972L11.7071 11.2996C12.0971 11.6896 12.0971 12.3197 11.7071 12.7097L7.11721 17.2996Z" fill="#091723" style="fill:#091723;fill:color(display-p3 0.0353 0.0902 0.1373);fill-opacity:1;"/>
</svg>
