<svg width="24" height="24" viewBox="0 0 24 24" fill="none" xmlns="http://www.w3.org/2000/svg">
<path d="M12 10.8L8.1 14.7C7.91667 14.8834 7.68334 14.975 7.4 14.975C7.11667 14.975 6.88334 14.8834 6.7 14.7C6.51667 14.5167 6.425 14.2834 6.425 14C6.425 13.7167 6.51667 13.4834 6.7 13.3L11.3 8.70002C11.5 8.50002 11.7333 8.40002 12 8.40002C12.2667 8.40002 12.5 8.50002 12.7 8.70002L17.3 13.3C17.4833 13.4834 17.575 13.7167 17.575 14C17.575 14.2834 17.4833 14.5167 17.3 14.7C17.1167 14.8834 16.8833 14.975 16.6 14.975C16.3167 14.975 16.0833 14.8834 15.9 14.7L12 10.8Z" fill="#091723" style="fill:#091723;fill:color(display-p3 0.0353 0.0902 0.1373);fill-opacity:1;"/>
</svg>
