<svg width="24" height="24" viewBox="0 0 24 24" fill="none" xmlns="http://www.w3.org/2000/svg">
<path d="M15.995 8.4L7.09501 17.3C6.91168 17.4833 6.67835 17.575 6.39501 17.575C6.11168 17.575 5.87835 17.4833 5.69501 17.3C5.51168 17.1167 5.42001 16.8833 5.42001 16.6C5.42001 16.3167 5.51168 16.0833 5.69501 15.9L14.595 7H6.99501C6.71168 7 6.47418 6.90417 6.28251 6.7125C6.09085 6.52083 5.99501 6.28333 5.99501 6C5.99501 5.71667 6.09085 5.47917 6.28251 5.2875C6.47418 5.09583 6.71168 5 6.99501 5H16.995C17.2783 5 17.5158 5.09583 17.7075 5.2875C17.8992 5.47917 17.995 5.71667 17.995 6V16C17.995 16.2833 17.8992 16.5208 17.7075 16.7125C17.5158 16.9042 17.2783 17 16.995 17C16.7117 17 16.4742 16.9042 16.2825 16.7125C16.0908 16.5208 15.995 16.2833 15.995 16V8.4Z" fill="#091723" style="fill:#091723;fill:color(display-p3 0.0353 0.0902 0.1373);fill-opacity:1;"/>
</svg>
