<svg width="24" height="24" viewBox="0 0 24 24" fill="none" xmlns="http://www.w3.org/2000/svg">
<path d="M9.88279 6.71045C10.2728 6.32045 10.9029 6.32045 11.2929 6.71045C11.6724 7.09037 11.6824 7.72974 11.2929 8.11963L7.41209 11.9995L11.2929 15.8901C11.6826 16.2801 11.6828 16.9104 11.2929 17.3003C10.903 17.6902 10.2728 17.69 9.88279 17.3003L5.29295 12.7104C4.90295 12.3204 4.90295 11.6903 5.29295 11.3003L9.88279 6.71045ZM16.8828 6.71045C17.2728 6.32045 17.9029 6.32045 18.2929 6.71045C18.6724 7.09037 18.6824 7.72974 18.2929 8.11963L14.4121 11.9995L18.2929 15.8901C18.6826 16.2801 18.6828 16.9104 18.2929 17.3003C17.903 17.6902 17.2728 17.69 16.8828 17.3003L12.2929 12.7104C11.9029 12.3204 11.9029 11.6903 12.2929 11.3003L16.8828 6.71045Z" fill="#091723" style="fill:#091723;fill:color(display-p3 0.0353 0.0902 0.1373);fill-opacity:1;"/>
</svg>
