<svg width="24" height="24" viewBox="0 0 24 24" fill="none" xmlns="http://www.w3.org/2000/svg">
<path d="M14.925 7.675L17.325 5.275C17.5083 5.09167 17.7417 5 18.025 5C18.3083 5 18.5417 5.09167 18.725 5.275C18.9083 5.45833 19 5.69167 19 5.975C19 6.25833 18.9083 6.49167 18.725 6.675L16.325 9.075H17.925C18.2083 9.075 18.4458 9.17083 18.6375 9.3625C18.8292 9.55417 18.925 9.79167 18.925 10.075C18.925 10.3583 18.8292 10.5958 18.6375 10.7875C18.4458 10.9792 18.2083 11.075 17.925 11.075H13.925C13.6417 11.075 13.4042 10.9792 13.2125 10.7875C13.0208 10.5958 12.925 10.3583 12.925 10.075V6.075C12.925 5.79167 13.0208 5.55417 13.2125 5.3625C13.4042 5.17083 13.6417 5.075 13.925 5.075C14.2083 5.075 14.4458 5.17083 14.6375 5.3625C14.8292 5.55417 14.925 5.79167 14.925 6.075V7.675Z" fill="#091723" style="fill:#091723;fill:color(display-p3 0.0353 0.0902 0.1373);fill-opacity:1;"/>
<path d="M7.67495 14.925H6.07495C5.79162 14.925 5.55412 14.8292 5.36245 14.6375C5.17078 14.4458 5.07495 14.2083 5.07495 13.925C5.07495 13.6417 5.17078 13.4042 5.36245 13.2125C5.55412 13.0208 5.79162 12.925 6.07495 12.925H10.075C10.3583 12.925 10.5958 13.0208 10.7875 13.2125C10.9791 13.4042 11.075 13.6417 11.075 13.925V17.925C11.075 18.2083 10.9791 18.4458 10.7875 18.6375C10.5958 18.8292 10.3583 18.925 10.075 18.925C9.79162 18.925 9.55412 18.8292 9.36245 18.6375C9.17078 18.4458 9.07495 18.2083 9.07495 17.925V16.325L6.67495 18.725C6.49162 18.9083 6.25828 19 5.97495 19C5.69162 19 5.45828 18.9083 5.27495 18.725C5.09162 18.5417 4.99995 18.3083 4.99995 18.025C4.99995 17.7417 5.09162 17.5083 5.27495 17.325L7.67495 14.925Z" fill="#091723" style="fill:#091723;fill:color(display-p3 0.0353 0.0902 0.1373);fill-opacity:1;"/>
</svg>
