<svg width="24" height="24" viewBox="0 0 24 24" fill="none" xmlns="http://www.w3.org/2000/svg">
<path d="M5 10V6C5 5.44772 5.44772 5 6 5C6.55228 5 7 5.44772 7 6V10C7 11.6569 8.34315 13 10 13H13.5885L11.0529 10.4644C10.6624 10.0739 10.6624 9.44074 11.0529 9.05022C11.4434 8.65969 12.0766 8.65969 12.4671 9.05022L16.7098 13.2929C17.1003 13.6834 17.1003 14.3165 16.7098 14.7071L12.4671 18.9497C12.0766 19.3402 11.4434 19.3402 11.0529 18.9497C10.6624 18.5592 10.6624 17.926 11.0529 17.5355L13.5884 15H10C7.23857 15 5 12.7614 5 10Z" fill="#091723" style="fill:#091723;fill:color(display-p3 0.0353 0.0902 0.1373);fill-opacity:1;"/>
</svg>
