<svg width="24" height="24" viewBox="0 0 24 24" fill="none" xmlns="http://www.w3.org/2000/svg">
<path fill-rule="evenodd" clip-rule="evenodd" d="M14.0731 4.2063C14.2803 3.69437 14.8633 3.44735 15.3752 3.65458C18.7469 5.01939 21 8.30044 21 12C21 14.7828 19.7252 17.3288 17.6585 19.0006L20 19C20.5523 19 21 19.4477 21 20C21 20.5128 20.614 20.9355 20.1166 20.9933L20 21H15C14.4872 21 14.0645 20.614 14.0067 20.1166L14 20V15C14 14.4477 14.4477 14 15 14C15.5128 14 15.9355 14.386 15.9933 14.8834L16 15L16.0005 17.7462C17.8422 16.4629 19 14.3391 19 12C19 9.12219 17.2474 6.57008 14.6248 5.50845C14.1129 5.30123 13.8658 4.71824 14.0731 4.2063ZM9 3C9.51284 3 9.93551 3.38604 9.99327 3.88338L10 4V9C10 9.55228 9.55228 10 9 10C8.48716 10 8.06449 9.61396 8.00673 9.11662L8 9L8.00052 6.25307C6.1582 7.53629 5 9.66052 5 12C5 14.8778 6.75256 17.4299 9.37522 18.4915C9.88715 18.6988 10.1342 19.2818 9.92694 19.7937C9.71971 20.3056 9.13672 20.5526 8.62478 20.3454C5.25312 18.9806 3 15.6996 3 12C3 9.21767 4.27439 6.67205 6.34054 5.00025L4 5C3.44772 5 3 4.55228 3 4C3 3.48716 3.38604 3.06449 3.88338 3.00673L4 3H9Z" fill="#091723" style="fill:#091723;fill:color(display-p3 0.0353 0.0902 0.1373);fill-opacity:1;"/>
</svg>
