<svg width="24" height="24" viewBox="0 0 24 24" fill="none" xmlns="http://www.w3.org/2000/svg">
<path fill-rule="evenodd" clip-rule="evenodd" d="M5.79283 11.2929C6.18336 10.9024 6.81652 10.9024 7.20705 11.2929C7.56753 11.6534 7.59526 12.2206 7.29024 12.6129L7.20705 12.7071L4.41394 15.5H12.9999C13.5128 15.5 13.9354 15.886 13.9932 16.3834L13.9999 16.5C13.9999 17.0128 13.6139 17.4355 13.1166 17.4933L12.9999 17.5H4.41394L7.20705 20.2929C7.56753 20.6534 7.59526 21.2206 7.29024 21.6129L7.20705 21.7071C6.84656 22.0676 6.27933 22.0953 5.88704 21.7903L5.79283 21.7071L1.29284 17.2071L1.19628 17.0953L1.12461 16.9841L1.07117 16.8713L1.03579 16.766L1.01096 16.6485L1.00391 16.5893L1.00012 16.4808L1.00391 16.4107L1.02018 16.2993L1.04968 16.1879L1.09362 16.0768L1.14594 15.9793L1.21273 15.8833C1.23761 15.8515 1.26437 15.8214 1.29284 15.7929L5.79283 11.2929ZM18.207 2.29289L22.707 6.79289C22.7424 6.82829 22.7746 6.86567 22.8036 6.90469L22.8753 7.01594L22.9287 7.12866L22.9641 7.23401L22.9889 7.35153L22.9959 7.40997L22.9999 7.5L22.9972 7.57524L22.9797 7.70073L22.9502 7.81214L22.9063 7.92322L22.8539 8.02071L22.7803 8.12545L22.707 8.20711L18.207 12.7071C17.8165 13.0976 17.1834 13.0976 16.7928 12.7071C16.4023 12.3166 16.4023 11.6834 16.7928 11.2929L19.5849 8.5H10.9999C10.4477 8.5 9.99994 8.05228 9.99994 7.5C9.99994 6.94772 10.4477 6.5 10.9999 6.5H19.5849L16.7928 3.70711C16.4023 3.31658 16.4023 2.68342 16.7928 2.29289C17.1834 1.90237 17.8165 1.90237 18.207 2.29289Z" fill="#091723" style="fill:#091723;fill:color(display-p3 0.0353 0.0902 0.1373);fill-opacity:1;"/>
</svg>
