<svg width="24" height="24" viewBox="0 0 24 24" fill="none" xmlns="http://www.w3.org/2000/svg">
<path d="M12.605 12L8.70499 8.10005C8.52166 7.91672 8.42999 7.68338 8.42999 7.40005C8.42999 7.11672 8.52166 6.88338 8.70499 6.70005C8.88833 6.51672 9.12166 6.42505 9.40499 6.42505C9.68833 6.42505 9.92166 6.51672 10.105 6.70005L14.705 11.3C14.805 11.4 14.8758 11.5084 14.9175 11.625C14.9592 11.7417 14.98 11.8667 14.98 12C14.98 12.1334 14.9592 12.2584 14.9175 12.375C14.8758 12.4917 14.805 12.6 14.705 12.7L10.105 17.3C9.92166 17.4834 9.68833 17.575 9.40499 17.575C9.12166 17.575 8.88833 17.4834 8.70499 17.3C8.52166 17.1167 8.42999 16.8834 8.42999 16.6C8.42999 16.3167 8.52166 16.0834 8.70499 15.9L12.605 12Z" fill="#091723" style="fill:#091723;fill:color(display-p3 0.0353 0.0902 0.1373);fill-opacity:1;"/>
</svg>
