<svg width="24" height="24" viewBox="0 0 24 24" fill="none" xmlns="http://www.w3.org/2000/svg">
<path d="M10.995 16.175V5C10.995 4.71667 11.0908 4.47917 11.2825 4.2875C11.4741 4.09583 11.7116 4 11.995 4C12.2783 4 12.5158 4.09583 12.7075 4.2875C12.8991 4.47917 12.995 4.71667 12.995 5V16.175L17.895 11.275C18.095 11.075 18.3283 10.9792 18.595 10.9875C18.8616 10.9958 19.095 11.1 19.295 11.3C19.4783 11.5 19.5742 11.7333 19.5825 12C19.5908 12.2667 19.495 12.5 19.295 12.7L12.695 19.3C12.595 19.4 12.4866 19.4708 12.37 19.5125C12.2533 19.5542 12.1283 19.575 11.995 19.575C11.8616 19.575 11.7366 19.5542 11.62 19.5125C11.5033 19.4708 11.395 19.4 11.295 19.3L4.69498 12.7C4.51165 12.5167 4.41998 12.2875 4.41998 12.0125C4.41998 11.7375 4.51165 11.5 4.69498 11.3C4.89498 11.1 5.13248 11 5.40748 11C5.68248 11 5.91998 11.1 6.11998 11.3L10.995 16.175Z" fill="#091723" style="fill:#091723;fill:color(display-p3 0.0353 0.0902 0.1373);fill-opacity:1;"/>
</svg>
