<svg width="24" height="24" viewBox="0 0 24 24" fill="none" xmlns="http://www.w3.org/2000/svg">
<path d="M12.137 3.58398C12.2727 3.60289 12.4063 3.65069 12.5374 3.72559C12.7121 3.82552 12.8418 3.97514 12.9251 4.1748L14.8001 8.625L19.6507 9.0498C19.8837 9.08319 20.0673 9.15884 20.2005 9.27539C20.3336 9.39199 20.4337 9.54248 20.5003 9.72559C20.5668 9.90871 20.579 10.0967 20.5374 10.2881L20.4945 10.4277C20.4398 10.5635 20.3498 10.6874 20.2249 10.7998L16.5501 13.9756L17.6507 18.7002C17.7006 18.9167 17.6832 19.1132 17.5999 19.2881L17.5316 19.4131C17.4566 19.5335 17.3629 19.638 17.2503 19.7256L17.1331 19.8037C17.0114 19.8724 16.8747 19.9123 16.7249 19.9248C16.5253 19.9414 16.3337 19.8917 16.1507 19.7754L12.0003 17.2754L7.84992 19.7754C7.66667 19.8919 7.47464 19.9415 7.27473 19.9248C7.07507 19.9081 6.90013 19.842 6.75031 19.7256C6.71589 19.6988 6.68355 19.6696 6.65266 19.6396C6.64453 19.6318 6.63711 19.6233 6.62922 19.6152C6.60793 19.5934 6.58721 19.5712 6.5677 19.5479C6.55803 19.5363 6.54861 19.5246 6.53938 19.5127C6.51462 19.4806 6.49071 19.4478 6.46906 19.4131L6.40071 19.2881L6.39973 19.2871C6.39646 19.2802 6.39498 19.2726 6.39192 19.2656C6.37783 19.2337 6.36553 19.2013 6.35578 19.168C6.35164 19.1538 6.3484 19.1394 6.34504 19.125C6.3384 19.0964 6.33297 19.0676 6.32942 19.0381C6.32748 19.0219 6.32555 19.0057 6.32453 18.9893C6.32262 18.9585 6.32319 18.9273 6.32453 18.8955C6.32722 18.8324 6.33446 18.7673 6.34992 18.7002L7.44953 13.9746L3.77473 10.7998C3.76525 10.7913 3.75744 10.7811 3.74836 10.7725C3.72316 10.7484 3.69916 10.7243 3.67707 10.6992C3.66282 10.683 3.64999 10.6661 3.63703 10.6494C3.62194 10.63 3.6074 10.6108 3.59406 10.5908C3.5834 10.5748 3.57235 10.5593 3.56281 10.543C3.54651 10.515 3.53284 10.4861 3.51985 10.457C3.49536 10.4022 3.47499 10.3458 3.46223 10.2871C3.42066 10.0956 3.43369 9.90782 3.50031 9.72461C3.56696 9.54153 3.66696 9.39195 3.80012 9.27539C3.93344 9.15873 4.11662 9.08314 4.34992 9.0498L9.19953 8.625L11.0745 4.1748C11.1579 3.97483 11.2873 3.82461 11.4622 3.72461C11.6372 3.62461 11.817 3.5752 12.0003 3.5752L12.137 3.58398ZM12.0003 14.9404L13.0325 15.5625L15.1654 16.8477L14.6029 14.4287L14.3284 13.252L15.2425 12.4619L17.1243 10.8359L14.6253 10.6172L13.4251 10.5127L12.9573 9.40137L12.0003 7.12988V14.9404Z" fill="#091723" style="fill:#091723;fill:color(display-p3 0.0353 0.0902 0.1373);fill-opacity:1;"/>
</svg>
