<svg width="24" height="24" viewBox="0 0 24 24" fill="none" xmlns="http://www.w3.org/2000/svg">
<path d="M12.0001 18.0999L14.3251 15.7749C14.5251 15.5749 14.7668 15.4749 15.0501 15.4749C15.3335 15.4749 15.5751 15.5749 15.7751 15.7749C15.9751 15.9749 16.0751 16.2166 16.0751 16.4999C16.0751 16.7832 15.9751 17.0249 15.7751 17.2249L12.7001 20.2999C12.6001 20.3999 12.4918 20.4707 12.3751 20.5124C12.2585 20.5541 12.1335 20.5749 12.0001 20.5749C11.8668 20.5749 11.7418 20.5541 11.6251 20.5124C11.5085 20.4707 11.4001 20.3999 11.3001 20.2999L8.22514 17.2249C8.02514 17.0249 7.92514 16.7832 7.92514 16.4999C7.92514 16.2166 8.02514 15.9749 8.22514 15.7749C8.42514 15.5749 8.66681 15.4749 8.95014 15.4749C9.23347 15.4749 9.47514 15.5749 9.67514 15.7749L12.0001 18.0999ZM12.0001 5.9999L9.67514 8.3249C9.47514 8.5249 9.23347 8.6249 8.95014 8.6249C8.66681 8.6249 8.42514 8.5249 8.22514 8.3249C8.02514 8.1249 7.92514 7.88324 7.92514 7.5999C7.92514 7.31657 8.02514 7.0749 8.22514 6.8749L11.3001 3.7999C11.4001 3.6999 11.5085 3.62907 11.6251 3.5874C11.7418 3.54574 11.8668 3.5249 12.0001 3.5249C12.1335 3.5249 12.2585 3.54574 12.3751 3.5874C12.4918 3.62907 12.6001 3.6999 12.7001 3.7999L15.7751 6.8749C15.9751 7.0749 16.0751 7.31657 16.0751 7.5999C16.0751 7.88324 15.9751 8.1249 15.7751 8.3249C15.5751 8.5249 15.3335 8.6249 15.0501 8.6249C14.7668 8.6249 14.5251 8.5249 14.3251 8.3249L12.0001 5.9999Z" fill="#091723" style="fill:#091723;fill:color(display-p3 0.0353 0.0902 0.1373);fill-opacity:1;"/>
</svg>
