<svg width="24" height="24" viewBox="0 0 24 24" fill="none" xmlns="http://www.w3.org/2000/svg">
<path fill-rule="evenodd" clip-rule="evenodd" d="M15.2065 10.6231C14.4803 10.2954 13.9051 9.72347 13.5591 9.02369C13.559 9.02339 13.5588 9.02309 13.5587 9.02279L12.0003 5.87303L10.4415 9.02632C10.4415 9.02643 10.4416 9.02621 10.4415 9.02632C10.0955 9.72636 9.5201 10.2988 8.79366 10.6266L8.7854 10.6303L5.70986 12.0013L8.79367 13.3734C9.51991 13.7011 10.095 14.273 10.4411 14.9728C10.4412 14.9731 10.4414 14.9734 10.4415 14.9737L12.0001 18.1239L13.5587 14.9737C13.5588 14.9734 13.559 14.9731 13.5591 14.9728C13.9051 14.273 14.4803 13.7011 15.2065 13.3734L15.2148 13.3697L18.2913 11.9982L15.2065 10.6231ZM10.8076 3.77264C11.3192 2.74245 12.6845 2.74245 13.1926 3.77264L15.3517 8.13681C15.4999 8.43669 15.7398 8.66954 16.0291 8.80008L20.1604 10.6417C21.2788 11.1392 21.2788 12.8573 20.1604 13.3548L16.0291 15.1964C15.7398 15.3269 15.4999 15.5598 15.3517 15.8597L13.1926 20.2238C12.681 21.254 11.3157 21.254 10.8076 20.2238L8.64847 15.8597C8.50029 15.5598 8.26038 15.3269 7.97109 15.1964L3.83977 13.3583C2.72138 12.8608 2.72138 11.1427 3.83977 10.6452L7.97109 8.80361C8.26038 8.67307 8.50029 8.44022 8.64847 8.14034L10.8076 3.77264Z" fill="#091723" style="fill:#091723;fill:color(display-p3 0.0353 0.0902 0.1373);fill-opacity:1;"/>
</svg>
