<svg width="24" height="24" viewBox="0 0 24 24" fill="none" xmlns="http://www.w3.org/2000/svg">
<path d="M6.34999 6.35292C7.97999 4.72292 10.29 3.78292 12.83 4.04292C16.5 4.41292 19.52 7.39292 19.93 11.0629C20.48 15.9129 16.73 20.0029 12 20.0029C8.80999 20.0029 6.06999 18.1329 4.79 15.4429C4.47 14.7729 4.95 14.0029 5.68999 14.0029C6.05999 14.0029 6.40999 14.2029 6.56999 14.5329C7.69999 16.9629 10.41 18.5029 13.37 17.8429C15.59 17.3529 17.38 15.5429 17.85 13.3229C18.69 9.44292 15.74 6.00292 12 6.00292C10.34 6.00292 8.85999 6.69292 7.77999 7.78292L9.28999 9.29292C9.91999 9.92292 9.47999 11.0029 8.58999 11.0029H4.99999C4.44999 11.0029 3.99999 10.5529 3.99999 10.0029V6.41292C3.99999 5.52292 5.07999 5.07292 5.70999 5.70292L6.34999 6.35292Z" fill="#091723" style="fill:#091723;fill:color(display-p3 0.0353 0.0902 0.1373);fill-opacity:1;"/>
</svg>
