<svg width="24" height="24" viewBox="0 0 24 24" fill="none" xmlns="http://www.w3.org/2000/svg">
<path fill-rule="evenodd" clip-rule="evenodd" d="M5 17.6591V20C5 20.5523 4.55228 21 4 21C3.44772 21 3 20.5523 3 20V15C3 14.4477 3.44772 14 4 14H4.55825C4.57357 13.9996 4.58886 13.9996 4.60411 14H9C9.55228 14 10 14.4477 10 15C10 15.5523 9.55228 16 9 16H6.25344C7.53669 17.842 9.66074 19 12 19C14.8778 19 17.4299 17.2474 18.4915 14.6248C18.6988 14.1129 19.2818 13.8658 19.7937 14.0731C20.3056 14.2803 20.5526 14.8633 20.3454 15.3752C18.9806 18.7469 15.6996 21 12 21C9.21753 21 6.6718 19.7255 5 17.6591ZM19 6.34085V4C19 3.44772 19.4477 3 20 3C20.5523 3 21 3.44772 21 4V9C21 9.55228 20.5523 10 20 10H19.4417C19.4264 10.0004 19.4111 10.0004 19.3959 10H15C14.4477 10 14 9.55228 14 9C14 8.44772 14.4477 8 15 8H17.7466C16.4633 6.15799 14.3393 5 12 5C9.12219 5 6.57008 6.75256 5.50845 9.37522C5.30123 9.88715 4.71824 10.1342 4.2063 9.92694C3.69437 9.71971 3.44735 9.13672 3.65458 8.62478C5.01939 5.25312 8.30044 3 12 3C14.7825 3 17.3282 4.27452 19 6.34085Z" fill="#091723" style="fill:#091723;fill:color(display-p3 0.0353 0.0902 0.1373);fill-opacity:1;"/>
</svg>
