<svg width="24" height="24" viewBox="0 0 24 24" fill="none" xmlns="http://www.w3.org/2000/svg">
<path d="M17 8.4L14.6 10.8C14.4167 10.9833 14.1834 11.075 13.9 11.075C13.6167 11.075 13.3834 10.9833 13.2 10.8C13.0167 10.6167 12.925 10.3833 12.925 10.1C12.925 9.81667 13.0167 9.58333 13.2 9.4L15.6 7H14C13.7167 7 13.4792 6.90417 13.2875 6.7125C13.0959 6.52083 13 6.28333 13 6C13 5.71667 13.0959 5.47917 13.2875 5.2875C13.4792 5.09583 13.7167 5 14 5H18C18.2834 5 18.5209 5.09583 18.7125 5.2875C18.9042 5.47917 19 5.71667 19 6V10C19 10.2833 18.9042 10.5208 18.7125 10.7125C18.5209 10.9042 18.2834 11 18 11C17.7167 11 17.4792 10.9042 17.2875 10.7125C17.0959 10.5208 17 10.2833 17 10V8.4Z" fill="#091723" style="fill:#091723;fill:color(display-p3 0.0353 0.0902 0.1373);fill-opacity:1;"/>
<path d="M8.4 17H10C10.2833 17 10.5208 17.0958 10.7125 17.2875C10.9042 17.4792 11 17.7167 11 18C11 18.2833 10.9042 18.5208 10.7125 18.7125C10.5208 18.9042 10.2833 19 10 19H6C5.71667 19 5.47917 18.9042 5.2875 18.7125C5.09583 18.5208 5 18.2833 5 18V14C5 13.7167 5.09583 13.4792 5.2875 13.2875C5.47917 13.0958 5.71667 13 6 13C6.28333 13 6.52083 13.0958 6.7125 13.2875C6.90417 13.4792 7 13.7167 7 14V15.6L9.4 13.2C9.58333 13.0167 9.81667 12.925 10.1 12.925C10.3833 12.925 10.6167 13.0167 10.8 13.2C10.9833 13.3833 11.075 13.6167 11.075 13.9C11.075 14.1833 10.9833 14.4167 10.8 14.6L8.4 17Z" fill="#091723" style="fill:#091723;fill:color(display-p3 0.0353 0.0902 0.1373);fill-opacity:1;"/>
</svg>
