<svg width="24" height="24" viewBox="0 0 24 24" fill="none" xmlns="http://www.w3.org/2000/svg">
<path d="M12 13.4142L7.46446 17.9498C7.26411 18.1501 7.02841 18.2503 6.75735 18.2503C6.48629 18.2503 6.25059 18.1501 6.05025 17.9498C5.8499 17.7494 5.74973 17.5137 5.74973 17.2427C5.74973 16.9716 5.8499 16.7359 6.05025 16.5356L10.5858 12L6.05025 7.46449C5.8499 7.26414 5.74973 7.02844 5.74973 6.75738C5.74973 6.48633 5.8499 6.25062 6.05025 6.05028C6.25059 5.84993 6.48629 5.74976 6.75735 5.74976C7.02841 5.74976 7.26411 5.84993 7.46446 6.05028L12 10.5858L16.5355 6.05028C16.7359 5.84993 16.9716 5.74976 17.2426 5.74976C17.5137 5.74976 17.7494 5.84993 17.9497 6.05028C18.1501 6.25062 18.2503 6.48633 18.2503 6.75738C18.2503 7.02844 18.1501 7.26414 17.9497 7.46449L13.4142 12L17.9497 16.5356C18.1501 16.7359 18.2503 16.9716 18.2503 17.2427C18.2503 17.5137 18.1501 17.7494 17.9497 17.9498C17.7494 18.1501 17.5137 18.2503 17.2426 18.2503C16.9716 18.2503 16.7359 18.1501 16.5355 17.9498L12 13.4142Z" fill="#091723" style="fill:#091723;fill:color(display-p3 0.0353 0.0902 0.1373);fill-opacity:1;"/>
</svg>
