<svg width="24" height="24" viewBox="0 0 24 24" fill="none" xmlns="http://www.w3.org/2000/svg">
<path fill-rule="evenodd" clip-rule="evenodd" d="M17.2929 13.2929C17.6534 12.9324 18.2206 12.9047 18.6129 13.2097L18.7071 13.2929L21.7071 16.2929L21.7485 16.3369L21.8037 16.4047L21.8753 16.5159L21.9288 16.6287L21.9642 16.734L21.9932 16.8825L22 17L21.9972 17.0752L21.9798 17.2007L21.9503 17.3121L21.9063 17.4232L21.854 17.5207L21.7872 17.6168L21.7071 17.7071L18.7071 20.7071C18.3166 21.0976 17.6834 21.0976 17.2929 20.7071C16.9324 20.3466 16.9047 19.7794 17.2097 19.3871L17.2929 19.2929L18.585 17.999L15.8907 18C15.0403 18 14.2298 17.639 13.6608 17.0069L11.845 14.989L13.191 13.494L15.1474 15.669C15.3371 15.8797 15.6072 16 15.8907 16L18.585 15.999L17.2929 14.7071C16.9324 14.3466 16.9047 13.7794 17.2097 13.3871L17.2929 13.2929ZM17.2929 3.29289C17.6534 2.93241 18.2206 2.90468 18.6129 3.2097L18.7071 3.29289L21.7071 6.29289L21.7485 6.33685L21.8241 6.43332L21.8753 6.51594L21.9288 6.62866L21.9642 6.73401L21.989 6.85153L21.9983 6.94075V7.05938L21.9931 7.11805L21.9726 7.23351L21.9401 7.34167L21.9063 7.42322L21.854 7.52071L21.7803 7.62545L21.7071 7.70711L18.7071 10.7071C18.3166 11.0976 17.6834 11.0976 17.2929 10.7071C16.9324 10.3466 16.9047 9.77939 17.2097 9.3871L17.2929 9.29289L18.585 7.999L15.8907 8C15.6477 8 15.4145 8.0884 15.2334 8.24635L15.1474 8.33104L7.33916 17.0069C6.81399 17.5904 6.083 17.9429 5.30473 17.9936L5.10928 18H3C2.44772 18 2 17.5523 2 17C2 16.4872 2.38604 16.0645 2.88338 16.0067L3 16H5.10928C5.35226 16 5.58546 15.9116 5.76656 15.7536L5.85257 15.669L13.6608 6.99311C14.186 6.40959 14.917 6.05714 15.6953 6.00637L15.8907 6L18.585 5.999L17.2929 4.70711C16.9324 4.34662 16.9047 3.77939 17.2097 3.3871L17.2929 3.29289ZM5.10928 6C5.95973 6 6.77023 6.36096 7.33916 6.99311L9.155 9.01L7.809 10.505L5.85257 8.33104C5.66293 8.12032 5.39276 8 5.10928 8H3C2.44772 8 2 7.55228 2 7C2 6.44772 2.44772 6 3 6H5.10928Z" fill="#091723" style="fill:#091723;fill:color(display-p3 0.0353 0.0902 0.1373);fill-opacity:1;"/>
</svg>
