<svg width="24" height="24" viewBox="0 0 24 24" fill="none" xmlns="http://www.w3.org/2000/svg">
<path d="M11.9625 21.9917C11.4128 21.9917 11.0213 21.6334 10.863 20.9586C10.5881 19.7423 10.3299 18.5259 10.0467 17.3096C9.62187 15.4851 8.48903 14.3521 6.66481 13.9355C5.49865 13.6689 4.32416 13.4023 3.14966 13.1441C3.04971 13.1191 2.94975 13.1024 2.84979 13.0691C2.30836 12.8858 1.99183 12.4609 2.00016 11.9444C2.00849 11.4279 2.35001 11.0363 2.93309 10.903C4.21587 10.6031 5.50698 10.3282 6.78976 10.0199C8.54733 9.59503 9.62187 8.47033 10.0467 6.72914C10.3382 5.52946 10.5881 4.32979 10.8547 3.13011C10.8797 2.99681 10.913 2.87185 10.963 2.74688C11.1629 2.25535 11.6293 1.95543 12.1125 2.00541C12.5873 2.04707 12.9621 2.38864 13.087 2.9135C13.3869 4.21315 13.6535 5.52113 13.97 6.81245C14.3865 8.52865 15.4777 9.60336 17.1936 10.0282C18.3431 10.3115 19.5093 10.5531 20.6671 10.8197C20.8004 10.853 20.9253 10.878 21.0586 10.9113C21.65 11.078 22.0082 11.5112 21.9999 12.0527C21.9915 12.5692 21.6334 12.9774 21.0253 13.1107C19.8008 13.394 18.568 13.6606 17.3352 13.9355C15.5443 14.3437 14.4031 15.4184 13.97 17.218C13.6618 18.4843 13.3952 19.7589 13.0954 21.0336C12.9538 21.6334 12.5123 21.9917 11.9709 22L11.9625 21.9917Z" fill="#091723" style="fill:#091723;fill:color(display-p3 0.0353 0.0902 0.1373);fill-opacity:1;"/>
</svg>
