<svg width="24" height="24" viewBox="0 0 24 24" fill="none" xmlns="http://www.w3.org/2000/svg">
<path d="M13.9739 22C13.5341 22 13.2143 21.7102 13.0943 21.1705C12.8744 20.2011 12.6645 19.2217 12.4447 18.2522C12.1048 16.7931 11.1953 15.8937 9.73604 15.5539C8.79652 15.334 7.85701 15.1341 6.92748 14.9143C6.84752 14.8943 6.76756 14.8843 6.68761 14.8543C6.25783 14.7144 5.99796 14.3646 6.00796 13.9548C6.00796 13.5451 6.28781 13.2353 6.74758 13.1253C7.77705 12.8855 8.80652 12.6656 9.83599 12.4158C11.2453 12.076 12.1048 11.1765 12.4347 9.78733C12.6645 8.8279 12.8644 7.86848 13.0843 6.90905C13.1043 6.80911 13.1343 6.69918 13.1743 6.59924C13.3342 6.20947 13.704 5.96962 14.0938 5.9996C14.4736 6.03958 14.7735 6.30941 14.8734 6.72916C15.1133 7.76854 15.3232 8.81791 15.583 9.84729C15.9229 11.2165 16.7924 12.076 18.1617 12.4158C19.0812 12.6456 20.0108 12.8355 20.9403 13.0454C21.0402 13.0654 21.1502 13.0953 21.2501 13.1153C21.7199 13.2453 22.0097 13.595 21.9997 14.0248C21.9997 14.4345 21.6999 14.7643 21.2201 14.8743C20.2407 15.1041 19.2512 15.314 18.2717 15.5339C16.8424 15.8637 15.9229 16.7232 15.583 18.1623C15.3432 19.1717 15.1233 20.2011 14.8834 21.2105C14.7735 21.6902 14.4136 21.98 13.9839 21.98L13.9739 22Z" fill="#091723" style="fill:#091723;fill:color(display-p3 0.0353 0.0902 0.1373);fill-opacity:1;"/>
<path d="M5.98795 9.99736C5.76807 9.99736 5.60815 9.85745 5.54818 9.58761C5.43824 9.09791 5.33829 8.61819 5.21835 8.12849C5.04844 7.39892 4.59867 6.94919 3.86904 6.7793C3.39928 6.66936 2.92952 6.56942 2.45976 6.45949C2.41978 6.45949 2.37981 6.4395 2.33983 6.42951C2.11994 6.35955 2 6.18965 2 5.97978C2 5.7699 2.13993 5.61999 2.36981 5.56003C2.87955 5.4401 3.39928 5.33017 3.90902 5.21024C4.60866 5.04034 5.03844 4.59061 5.20835 3.89103C5.32829 3.41132 5.42824 2.93161 5.52819 2.45189C5.53818 2.40192 5.54818 2.35195 5.56817 2.30198C5.66812 2.1021 5.84803 1.98218 6.04792 2.00216C6.23783 2.02215 6.38775 2.15207 6.43772 2.36195C6.55766 2.88164 6.66761 3.40132 6.78754 3.92101C6.95746 4.6106 7.38724 5.04034 8.07688 5.21024C8.53665 5.32017 9.0064 5.42011 9.46617 5.53005C9.51614 5.54004 9.56612 5.55003 9.62609 5.57002C9.86596 5.63998 10.0059 5.80988 10.0059 6.02975C10.0059 6.23962 9.85597 6.39952 9.61609 6.44949C9.12634 6.55943 8.63659 6.66936 8.13685 6.7793C7.41722 6.9392 6.96745 7.36894 6.78754 8.08851C6.66761 8.59821 6.55766 9.1079 6.43772 9.61759C6.37775 9.85745 6.20784 9.99736 5.98795 10.0074V9.99736Z" fill="#091723" style="fill:#091723;fill:color(display-p3 0.0353 0.0902 0.1373);fill-opacity:1;"/>
</svg>
