<svg width="24" height="24" viewBox="0 0 24 24" fill="none" xmlns="http://www.w3.org/2000/svg">
<path d="M12 17.275L7.85 19.775C7.66667 19.8916 7.475 19.9416 7.275 19.9249C7.075 19.9083 6.9 19.8416 6.75 19.725C6.6 19.6083 6.48333 19.4625 6.4 19.2874C6.31667 19.1124 6.3 18.9166 6.35 18.7L7.45 13.975L3.775 10.8C3.60833 10.65 3.50417 10.4791 3.4625 10.2875C3.42083 10.0958 3.43333 9.90828 3.5 9.72495C3.56667 9.54162 3.66667 9.39162 3.8 9.27495C3.93333 9.15828 4.11667 9.08328 4.35 9.04995L9.2 8.62495L11.075 4.17495C11.1583 3.97495 11.2875 3.82495 11.4625 3.72495C11.6375 3.62495 11.8167 3.57495 12 3.57495C12.1833 3.57495 12.3625 3.62495 12.5375 3.72495C12.7125 3.82495 12.8417 3.97495 12.925 4.17495L14.8 8.62495L19.65 9.04995C19.8833 9.08328 20.0667 9.15828 20.2 9.27495C20.3333 9.39162 20.4333 9.54162 20.5 9.72495C20.5667 9.90828 20.5792 10.0958 20.5375 10.2875C20.4958 10.4791 20.3917 10.65 20.225 10.8L16.55 13.975L17.65 18.7C17.7 18.9166 17.6833 19.1124 17.6 19.2874C17.5167 19.4625 17.4 19.6083 17.25 19.725C17.1 19.8416 16.925 19.9083 16.725 19.9249C16.525 19.9416 16.3333 19.8916 16.15 19.775L12 17.275Z" fill="#091723" style="fill:#091723;fill:color(display-p3 0.0353 0.0902 0.1373);fill-opacity:1;"/>
</svg>
