<svg width="24" height="24" viewBox="0 0 24 24" fill="none" xmlns="http://www.w3.org/2000/svg">
<path d="M11 7.82505L6.1 12.725C5.9 12.925 5.66667 13.0209 5.4 13.0125C5.13334 13.0042 4.9 12.9 4.7 12.7C4.51667 12.5 4.42084 12.2667 4.4125 12C4.40417 11.7334 4.5 11.5 4.7 11.3L11.3 4.70005C11.4 4.60005 11.5083 4.52922 11.625 4.48755C11.7417 4.44588 11.8667 4.42505 12 4.42505C12.1333 4.42505 12.2583 4.44588 12.375 4.48755C12.4917 4.52922 12.6 4.60005 12.7 4.70005L19.3 11.3C19.4833 11.4834 19.575 11.7125 19.575 11.9875C19.575 12.2625 19.4833 12.5 19.3 12.7C19.1 12.9 18.8625 13 18.5875 13C18.3125 13 18.075 12.9 17.875 12.7L13 7.82505V19C13 19.2834 12.9042 19.5209 12.7125 19.7125C12.5208 19.9042 12.2833 20 12 20C11.7167 20 11.4792 19.9042 11.2875 19.7125C11.0958 19.5209 11 19.2834 11 19V7.82505Z" fill="#091723" style="fill:#091723;fill:color(display-p3 0.0353 0.0902 0.1373);fill-opacity:1;"/>
</svg>
