<svg width="24" height="24" viewBox="0 0 24 24" fill="none" xmlns="http://www.w3.org/2000/svg">
<path fill-rule="evenodd" clip-rule="evenodd" d="M7 7C7 4.23858 9.23858 2 12 2C14.7614 2 17 4.23858 17 7C17 7.55228 16.5523 8 16 8C15.4872 8 15.0645 7.61396 15.0067 7.11662L15 7C15 5.34315 13.6569 4 12 4C10.4023 4 9.09634 5.24892 9.00509 6.82373L9 7V10H18C19.1046 10 20 10.8954 20 12V19C20 20.1046 19.1046 21 18 21H6C4.89543 21 4 20.1046 4 19V12C4 10.8954 4.89543 10 6 10H7V7Z" fill="#091723" style="fill:#091723;fill:color(display-p3 0.0353 0.0902 0.1373);fill-opacity:1;"/>
</svg>
