<svg width="24" height="24" viewBox="0 0 24 24" fill="none" xmlns="http://www.w3.org/2000/svg">
<path fill-rule="evenodd" clip-rule="evenodd" d="M17.5 4C19.0716 4 20.5129 4.55774 21.6368 5.48607C21.9199 5.71655 22 5.99236 22 6.24969V18.56C22 19.1123 21.5523 19.56 21 19.56C20.8623 19.56 20.731 19.5322 20.6116 19.4818C19.6875 18.9769 18.6273 18.69 17.5 18.69C15.7535 18.69 14.1679 19.3788 13 20.4996V5.80957C14.1679 4.6888 15.7535 4 17.5 4ZM6.5 4C8.24649 4 9.83211 4.6888 11 5.80957V20.4996C9.83211 19.3788 8.24649 18.69 6.5 18.69C5.37275 18.69 4.31252 18.9769 3.38836 19.4818C3.26896 19.5322 3.13773 19.56 3 19.56C2.44772 19.56 2 19.1123 2 18.56V6.24969C2 5.99236 2.08009 5.71655 2.36323 5.48607C3.48713 4.55774 4.92843 4 6.5 4Z" fill="#091723" style="fill:#091723;fill:color(display-p3 0.0353 0.0902 0.1373);fill-opacity:1;"/>
</svg>
