<svg width="24" height="24" viewBox="0 0 24 24" fill="none" xmlns="http://www.w3.org/2000/svg">
<path d="M8 22C6.9 22 6 21.1 6 20L6.01 16.82C6.01 16.29 6.22 15.79 6.59 15.41L10 12L6.59 8.57C6.22 8.2 6.01 7.69 6.01 7.16L6 4C6 2.9 6.9 2 8 2H16C17.1 2 18 2.9 18 4V7.16C18 7.69 17.79 8.2 17.42 8.57L14 12L17.41 15.4C17.79 15.78 18 16.29 18 16.82V20C18 21.1 17.1 22 16 22H8ZM16 7.09V5C16 4.45 15.55 4 15 4H9C8.45 4 8 4.45 8 5V7.09C8 7.36 8.11 7.61 8.29 7.8L12 11.5L15.71 7.79C15.89 7.61 16 7.35 16 7.09Z" fill="#091723" style="fill:#091723;fill:color(display-p3 0.0353 0.0902 0.1373);fill-opacity:1;"/>
</svg>
