<svg width="24" height="24" viewBox="0 0 24 24" fill="none" xmlns="http://www.w3.org/2000/svg">
<path fill-rule="evenodd" clip-rule="evenodd" d="M19 9.11325V22L17 20L15 22L13 20L11 22L9 20L7 22V16.0415L19 9.11325ZM16 16H12C11.4477 16 11 16.4477 11 17C11 17.5128 11.386 17.9355 11.8834 17.9933L12 18H16C16.5523 18 17 17.5523 17 17C17 16.4872 16.614 16.0645 16.1166 16.0067L16 16ZM15 2C16.1046 2 17 2.89543 17 4V7.95855L5 14.8868V4C5 2.89543 5.89543 2 7 2H15ZM8 8C7.44772 8 7 8.44772 7 9C7 9.55228 7.44772 10 8 10C8.55228 10 9 9.55228 9 9C9 8.44772 8.55228 8 8 8ZM14 4H8C7.44772 4 7 4.44772 7 5C7 5.51284 7.38604 5.93551 7.88338 5.99327L8 6H14C14.5523 6 15 5.55228 15 5C15 4.48716 14.614 4.06449 14.1166 4.00673L14 4Z" fill="#091723" style="fill:#091723;fill:color(display-p3 0.0353 0.0902 0.1373);fill-opacity:1;"/>
</svg>
