<svg width="24" height="24" viewBox="0 0 24 24" fill="none" xmlns="http://www.w3.org/2000/svg">
<path d="M7.16276 3.31561C6.95525 2.8948 6.39757 2.8948 6.18862 3.31561L5.30672 5.09978C5.24619 5.22228 5.1482 5.31739 5.03004 5.37072L3.3426 6.123C2.8858 6.32621 2.8858 7.02805 3.3426 7.23126L5.03004 7.9821C5.1482 8.03543 5.24619 8.13054 5.30672 8.25304L6.18862 10.0358C6.39613 10.4566 6.95381 10.4566 7.16276 10.0358L8.04466 8.25304C8.10518 8.13054 8.20317 8.03543 8.32134 7.9821L10.0088 7.22982C10.4656 7.02661 10.4656 6.32477 10.0088 6.12156L8.32134 5.36927C8.20317 5.31595 8.10518 5.22083 8.04466 5.09834L7.16276 3.31561Z" fill="#091723" style="fill:#091723;fill:color(display-p3 0.0353 0.0902 0.1373);fill-opacity:1;"/>
<path d="M19.265 12.1717C19.1521 11.9428 18.8487 11.9428 18.735 12.1717L18.2551 13.1425C18.2222 13.2092 18.1689 13.2609 18.1046 13.2899L17.1864 13.6993C16.9379 13.8098 16.9379 14.1917 17.1864 14.3023L18.1046 14.7108C18.1689 14.7399 18.2222 14.7916 18.2551 14.8583L18.735 15.8283C18.8479 16.0572 19.1513 16.0572 19.265 15.8283L19.7449 14.8583C19.7778 14.7916 19.8311 14.7399 19.8954 14.7108L20.8136 14.3015C21.0621 14.1909 21.0621 13.8091 20.8136 13.6985L19.8954 13.2892C19.8311 13.2601 19.7778 13.2084 19.7449 13.1417L19.265 12.1717Z" fill="#091723" style="fill:#091723;fill:color(display-p3 0.0353 0.0902 0.1373);fill-opacity:1;"/>
<path d="M16.735 3.17173C16.8487 2.94276 17.1521 2.94276 17.265 3.17173L17.7449 4.14174C17.7778 4.20839 17.8311 4.26015 17.8954 4.28916L18.8136 4.69849C19.0621 4.80906 19.0621 5.19094 18.8136 5.30151L17.8954 5.71084C17.8311 5.73985 17.7778 5.79161 17.7449 5.85826L17.265 6.82827C17.1513 7.05724 16.8479 7.05724 16.735 6.82827L16.2551 5.85826C16.2222 5.79161 16.1689 5.73985 16.1046 5.71084L15.1864 5.30229C14.9379 5.19173 14.9379 4.80984 15.1864 4.69927L16.1046 4.28994C16.1689 4.26093 16.2222 4.20917 16.2551 4.14252L16.735 3.17173Z" fill="#091723" style="fill:#091723;fill:color(display-p3 0.0353 0.0902 0.1373);fill-opacity:1;"/>
<path fill-rule="evenodd" clip-rule="evenodd" d="M13.1276 8.36749C13.9085 7.61222 15.1537 7.63296 15.909 8.41381C16.6643 9.19467 16.6436 10.4399 15.8627 11.1952L7.14932 19.6231C6.74586 20.0134 6.21841 20.1964 5.69863 20.1745C5.21225 20.1542 4.73254 19.9543 4.36737 19.5768C3.6121 18.7959 3.63284 17.5507 4.41369 16.7954L13.1276 8.36749ZM14.1578 11.453L12.8132 10.0629L13.8228 9.08628C14.2067 8.71497 14.8189 8.72517 15.1902 9.10905C15.5615 9.49293 15.5513 10.1051 15.1675 10.4764L14.1578 11.453Z" fill="#091723" style="fill:#091723;fill:color(display-p3 0.0353 0.0902 0.1373);fill-opacity:1;"/>
</svg>
