<svg width="24" height="24" viewBox="0 0 24 24" fill="none" xmlns="http://www.w3.org/2000/svg">
<path fill-rule="evenodd" clip-rule="evenodd" d="M15.0011 6C15.0011 4.34315 13.658 3 12.0011 3C10.4034 3 9.09744 4.24892 9.0062 5.82373L9.0011 6H7.0011C7.0011 3.23858 9.23968 1 12.0011 1C14.6899 1 16.8829 3.12231 16.9965 5.78311L17.0011 6H18.1222C19.1783 6 20.0524 6.82117 20.1183 7.87524L20.8683 19.8752C20.9372 20.9777 20.0994 21.9272 18.997 21.9961L18.8722 22H5.13C4.02544 22 3.13 21.1046 3.13 20L3.1339 19.8752L3.8839 7.87524C3.94978 6.82117 4.82388 6 5.88 6H15.0011ZM8.0011 8C7.44882 8 7.0011 8.44772 7.0011 9C7.0011 9.55228 7.44882 10 8.0011 10C8.55339 10 9.0011 9.55228 9.0011 9C9.0011 8.44772 8.55339 8 8.0011 8ZM16.0011 8C15.4488 8 15.0011 8.44772 15.0011 9C15.0011 9.55228 15.4488 10 16.0011 10C16.5534 10 17.0011 9.55228 17.0011 9C17.0011 8.44772 16.5534 8 16.0011 8Z" fill="#091723" style="fill:#091723;fill:color(display-p3 0.0353 0.0902 0.1373);fill-opacity:1;"/>
</svg>
