<svg width="24" height="24" viewBox="0 0 24 24" fill="none" xmlns="http://www.w3.org/2000/svg">
<path fill-rule="evenodd" clip-rule="evenodd" d="M12.002 2C15.0357 2 17.4981 4.46243 17.4981 7.5C17.4981 8.2121 17.3619 8.90717 17.1011 9.55443L16.9746 9.84391C16.1583 11.6619 15.142 13.3736 13.9522 14.95C15.4844 16.6078 17.2559 18.0473 19.2147 19.2125C19.9267 19.636 20.1605 20.5565 19.737 21.2685C19.3135 21.9805 18.393 22.2143 17.681 21.7908C15.5784 20.5401 13.6675 19.0093 11.9977 17.2521C10.3306 19.0093 8.41972 20.5401 6.31711 21.7908C5.60512 22.2143 4.68462 21.9805 4.26111 21.2685C3.8376 20.5565 4.07146 19.636 4.78345 19.2125C6.74223 18.0473 8.51371 16.6078 10.0469 14.9496C8.98846 13.5487 8.06782 12.0406 7.303 10.4459L7.01636 9.82881C6.67791 9.10542 6.50005 8.31383 6.50005 7.5C6.50005 4.53782 8.84177 2.12258 11.775 2.00452L12.002 2ZM11.9991 5C10.6193 5 9.50005 6.11929 9.50005 7.5C9.50005 7.85873 9.57475 8.20414 9.71734 8.52186L9.74278 8.57594C10.3664 9.97182 11.1233 11.2976 11.9978 12.5364C12.7653 11.4524 13.4406 10.3019 14.0153 9.09607L14.2808 8.52186C14.4234 8.20414 14.4981 7.85873 14.4981 7.5C14.4981 6.17484 13.4671 5.09049 12.1634 5.00538L11.9991 5Z" fill="#091723" style="fill:#091723;fill:color(display-p3 0.0353 0.0902 0.1373);fill-opacity:1;"/>
</svg>
