<svg width="24" height="24" viewBox="0 0 24 24" fill="none" xmlns="http://www.w3.org/2000/svg">
<path fill-rule="evenodd" clip-rule="evenodd" d="M12 2V8C12 9.05436 12.8159 9.91817 13.8507 9.99451L14 10H20V20C20 21.0544 19.1841 21.9182 18.1493 21.9945L18 22H6C4.94564 22 4.08183 21.1841 4.00549 20.1493L4 20V4C4 2.94564 4.81588 2.08183 5.85074 2.00549L6 2H12ZM10 17H7C6.44772 17 6 17.4477 6 18C6 18.5128 6.38604 18.9355 6.88338 18.9933L7 19H10C10.5523 19 11 18.5523 11 18C11 17.4872 10.614 17.0645 10.1166 17.0067L10 17ZM17 17H14C13.4477 17 13 17.4477 13 18C13 18.5128 13.386 18.9355 13.8834 18.9933L14 19H17C17.5523 19 18 18.5523 18 18C18 17.4872 17.614 17.0645 17.1166 17.0067L17 17ZM17 13H14C13.4477 13 13 13.4477 13 14C13 14.5523 13.4477 15 14 15H17C17.5523 15 18 14.5523 18 14C18 13.4477 17.5523 13 17 13ZM10 13H7C6.44772 13 6 13.4477 6 14C6 14.5128 6.38604 14.9355 6.88338 14.9933L7 15H10C10.5523 15 11 14.5523 11 14C11 13.4872 10.614 13.0645 10.1166 13.0067L10 13ZM14 2L20 8H14V2Z" fill="#091723" style="fill:#091723;fill:color(display-p3 0.0353 0.0902 0.1373);fill-opacity:1;"/>
</svg>
