<svg width="24" height="24" viewBox="0 0 24 24" fill="none" xmlns="http://www.w3.org/2000/svg">
<path fill-rule="evenodd" clip-rule="evenodd" d="M19.5 2V20.5006C19.4997 21.3287 18.8282 22 18 22C17.1816 22 16.5163 21.3446 16.5003 20.5301C16.4998 20.5133 16.4998 20.4964 16.5001 20.4794C16.5012 20.4011 16.5083 20.3242 16.5209 20.2492L17.1787 14H14.5C14.5 7.37258 16.7386 2 19.5 2ZM6.2 2.85V6.275C6.2 6.67541 6.52459 7 6.925 7C7.32541 7 7.65 6.67541 7.65 6.275V2.85C7.65 2.38056 8.03056 2 8.5 2C8.96944 2 9.35 2.38056 9.35 2.85V6.275C9.35 6.67541 9.67459 7 10.075 7C10.4754 7 10.8 6.67541 10.8 6.275V2.85C10.8 2.38056 11.1806 2 11.65 2C12.1194 2 12.5 2.38056 12.5 2.85V6.85C12.5 8.71294 11.2265 10.2784 9.50249 10.7233L9.99502 20.3769C9.99805 20.4142 9.99972 20.4519 9.99997 20.4899C10.0001 20.4985 10 20.5071 9.99992 20.5157C9.99149 21.3369 9.32318 22 8.5 22C7.67682 22 7.00851 21.3369 7.00008 20.5157C6.99996 20.5071 6.99994 20.4985 7.00003 20.4899C7.00028 20.4519 7.00195 20.4142 7.00498 20.3769L7.49751 10.7233C5.77355 10.2784 4.5 8.71294 4.5 6.85V2.85C4.5 2.38056 4.88056 2 5.35 2C5.81944 2 6.2 2.38056 6.2 2.85Z" fill="#091723" style="fill:#091723;fill:color(display-p3 0.0353 0.0902 0.1373);fill-opacity:1;"/>
</svg>
