<svg width="24" height="24" viewBox="0 0 24 24" fill="none" xmlns="http://www.w3.org/2000/svg">
<path d="M1.0443 12.0073C1.54609 6.39731 6.25958 2 12.0001 2C17.7406 2 22.4541 6.39731 22.9559 12.0073C22.9895 12.3823 22.5504 12.5776 22.2761 12.3198C20.622 10.766 18.0449 10.766 16.3908 12.3198L16.0001 12.6869C15.8127 12.8629 15.5208 12.8629 15.3334 12.6869C14.6587 12.053 13.8483 11.6474 13 11.4701V18C12.9993 18.0082 12.9984 18.0183 12.9974 18.0298C12.9877 18.1413 12.9657 18.3925 12.9399 18.5165C12.8836 18.7867 12.7699 19.155 12.5355 19.53C12.0274 20.3429 11.0698 21 9.5 21C7.93017 21 6.97259 20.3429 6.4645 19.53C6.2301 19.155 6.11639 18.7867 6.06008 18.5165C6.03159 18.3797 6.01669 18.2627 6.00884 18.1749L6 17.997V17C6 16.4477 6.44772 16 7 16C7.55228 16 8 16.4477 8 17V17.9853L8.01804 18.1085C8.03986 18.2133 8.0824 18.345 8.1605 18.47C8.27741 18.6571 8.56983 19 9.5 19C10.4302 19 10.7226 18.6571 10.8395 18.47C10.9176 18.345 10.9601 18.2133 10.982 18.1085C10.9925 18.0578 10.9981 18.0068 11 17.9853V11.4701C10.1518 11.6475 9.34148 12.0531 8.66677 12.6869C8.4794 12.8629 8.18748 12.8629 8.00011 12.6869L7.6094 12.3198C5.95533 10.766 3.37822 10.766 1.72415 12.3198C1.44977 12.5776 1.01076 12.3822 1.0443 12.0073Z" fill="#091723" style="fill:#091723;fill:color(display-p3 0.0353 0.0902 0.1373);fill-opacity:1;"/>
</svg>
