<svg width="24" height="24" viewBox="0 0 24 24" fill="none" xmlns="http://www.w3.org/2000/svg">
<path fill-rule="evenodd" clip-rule="evenodd" d="M15 21C15 22.1046 14.1046 23 13 23H11C9.89543 23 9 22.1046 9 21H15ZM12 1C16.4183 1 20 4.58172 20 9C20 11.5843 18.7746 13.8824 16.8732 15.3449L16.7999 15.3998C15.7677 16.1752 15.0797 17.3841 15.0065 18.7562L15 19H9C9 17.5279 8.29318 16.221 7.20041 15.4L7.12676 15.3449C5.22536 13.8824 4 11.5843 4 9C4 4.58172 7.58172 1 12 1ZM10.6129 7.2097C10.2533 6.9301 9.7467 6.9301 9.3871 7.2097L9.29289 7.29289L9.2097 7.3871C8.9301 7.7467 8.9301 8.2533 9.2097 8.6129L9.29289 8.70711L11 10.415V13L11.0067 13.1166C11.06 13.5757 11.4243 13.94 11.8834 13.9933L12 14L12.1166 13.9933C12.5757 13.94 12.94 13.5757 12.9933 13.1166L13 13V10.414L14.7071 8.70711L14.7903 8.6129C15.0953 8.22061 15.0676 7.65338 14.7071 7.29289C14.3466 6.93241 13.7794 6.90468 13.3871 7.2097L13.2929 7.29289L12 8.58579L10.7071 7.29289L10.6129 7.2097Z" fill="#091723" style="fill:#091723;fill:color(display-p3 0.0353 0.0902 0.1373);fill-opacity:1;"/>
</svg>
