<svg width="24" height="24" viewBox="0 0 24 24" fill="none" xmlns="http://www.w3.org/2000/svg">
<path d="M21.0609 8.56748C21.1526 8.59204 21.2362 8.63989 21.303 8.70599C21.3709 8.7682 21.4208 8.84636 21.4477 8.93252C21.4747 9.01868 21.4776 9.10975 21.4563 9.19647L19.154 17.7888C19.1321 17.8711 19.089 17.9463 19.0286 18.0075C18.9682 18.0687 18.8924 18.1137 18.8084 18.1386C17.4858 18.4629 16.0877 18.4156 14.7769 18.0022C13.4661 17.5889 12.2964 16.8264 11.4038 15.8034C9.57666 13.8336 7.27987 13.3558 5.87319 13.2617L4.19075 19.5406C4.04781 20.0741 3.49947 20.3907 2.96601 20.2477C2.43254 20.1048 2.11596 19.5564 2.2589 19.023L6.26659 4.06608C6.29217 3.97164 6.34571 3.88694 6.4207 3.82227C6.4957 3.75761 6.58893 3.71575 6.68906 3.7018C6.85482 3.66897 11.2615 3.06616 14.4798 6.54417C15.2378 7.41775 16.2317 8.07112 17.3468 8.42892C18.4618 8.78672 19.6527 8.83437 20.782 8.56637C20.8729 8.54253 20.9692 8.54291 21.0609 8.56748Z" fill="#091723" style="fill:#091723;fill:color(display-p3 0.0353 0.0902 0.1373);fill-opacity:1;"/>
</svg>
