<svg width="24" height="24" viewBox="0 0 24 24" fill="none" xmlns="http://www.w3.org/2000/svg">
<path fill-rule="evenodd" clip-rule="evenodd" d="M12 2V8C12 9.05436 12.8159 9.91817 13.8507 9.99451L14 10H20V20C20 21.0544 19.1841 21.9182 18.1493 21.9945L18 22H6C4.94564 22 4.08183 21.1841 4.00549 20.1493L4 20V4C4 2.94564 4.81588 2.08183 5.85074 2.00549L6 2H12ZM11 17H7C6.44772 17 6 17.4477 6 18C6 18.5128 6.38604 18.9355 6.88338 18.9933L7 19H11C11.5523 19 12 18.5523 12 18C12 17.4872 11.614 17.0645 11.1166 17.0067L11 17ZM17 13H7C6.44772 13 6 13.4477 6 14C6 14.5128 6.38604 14.9355 6.88338 14.9933L7 15H17C17.5523 15 18 14.5523 18 14C18 13.4872 17.614 13.0645 17.1166 13.0067L17 13ZM14 2L20 8H14V2Z" fill="#091723" style="fill:#091723;fill:color(display-p3 0.0353 0.0902 0.1373);fill-opacity:1;"/>
</svg>
