<svg width="24" height="24" viewBox="0 0 24 24" fill="none" xmlns="http://www.w3.org/2000/svg">
<path fill-rule="evenodd" clip-rule="evenodd" d="M13 2C14.5977 2 15.9037 3.24892 15.9949 4.82373L16 5V6H20C21.1046 6 22 6.89543 22 8V19C22 20.1046 21.1046 21 20 21H4C2.89543 21 2 20.1046 2 19V8C2 6.89543 2.89543 6 4 6H8V5C8 3.40232 9.24892 2.09634 10.8237 2.00509L11 2H13ZM13 4H11C10.4872 4 10.0645 4.38604 10.0067 4.88338L10 5V6H14V5C14 4.48716 13.614 4.06449 13.1166 4.00673L13 4ZM2 11V9H22V11H14V12C14 12.5523 13.5523 13 13 13H11C10.4477 13 10 12.5523 10 12V11H2Z" fill="#091723" style="fill:#091723;fill:color(display-p3 0.0353 0.0902 0.1373);fill-opacity:1;"/>
</svg>
