<svg width="24" height="24" viewBox="0 0 24 24" fill="none" xmlns="http://www.w3.org/2000/svg">
<path fill-rule="evenodd" clip-rule="evenodd" d="M19.65 5C20.0737 5 20.4358 5.26346 20.5815 5.63547C20.8095 6.50551 21.4945 7.19054 22.3645 7.41852C22.7365 7.56422 23 7.92634 23 8.35V15.65C23 16.0737 22.7365 16.4358 22.3645 16.5815C21.4945 16.8095 20.8095 17.4945 20.5815 18.3645C20.4358 18.7365 20.0737 19 19.65 19H4.35C3.92634 19 3.56422 18.7365 3.41852 18.3645C3.19054 17.4945 2.50551 16.8095 1.63547 16.5815C1.26346 16.4358 1 16.0737 1 15.65V8.35C1 7.92634 1.26346 7.56422 1.63547 7.41852C2.50551 7.19054 3.19054 6.50551 3.41852 5.63547C3.56422 5.26346 3.92634 5 4.35 5H19.65ZM12.1842 7.38376C11.9003 7.29222 11.5981 7.42336 11.4663 7.68042L11.429 7.77063L10.6598 10.1554L8.15409 10.15C7.96111 10.1495 7.7797 10.242 7.6666 10.3984C7.49183 10.64 7.52316 10.968 7.72691 11.1727L7.80117 11.2361L9.83159 12.7046L9.05206 15.086C8.99202 15.2694 9.02387 15.4705 9.13765 15.6264C9.31347 15.8673 9.63509 15.9388 9.89278 15.8083L9.97602 15.7573L12 14.28L14.024 15.7573C14.1799 15.8711 14.381 15.9029 14.5644 15.8429C14.8478 15.7501 15.0152 15.4663 14.9708 15.1809L14.9479 15.086L14.1684 12.7046L16.1988 11.2361C16.3552 11.123 16.4476 10.9416 16.4472 10.7487C16.4466 10.4504 16.2284 10.2035 15.9432 10.1576L15.8459 10.15L13.3402 10.1554L12.571 7.77063C12.5118 7.58696 12.3678 7.44299 12.1842 7.38376Z" fill="#091723" style="fill:#091723;fill:color(display-p3 0.0353 0.0902 0.1373);fill-opacity:1;"/>
</svg>
