<svg width="24" height="24" viewBox="0 0 24 24" fill="none" xmlns="http://www.w3.org/2000/svg">
<path fill-rule="evenodd" clip-rule="evenodd" d="M12 2C17.5228 2 22 6.47715 22 12C22 17.5228 17.5228 22 12 22C6.47715 22 2 17.5228 2 12C2 6.47715 6.47715 2 12 2ZM12 5.33333C10.2204 5.33333 8.76655 6.72789 8.6716 8.48378L8.66667 8.66667V10.6667H8C7.30694 10.6667 6.73738 11.1954 6.67277 11.8716L6.66667 12V16.6667C6.66667 17.3597 7.19546 17.9293 7.87159 17.9939L8 18H16C16.6931 18 17.2626 17.4712 17.3272 16.7951L17.3333 16.6667V12C17.3333 11.3069 16.8046 10.7374 16.1284 10.6728L16 10.6667H15.3333V8.66667C15.3333 6.82572 13.8409 5.33333 12 5.33333ZM12 6.66667C13.0544 6.66667 13.9182 7.48255 13.9945 8.5174L14 8.66667V10.6667H10V8.66667C10 7.5621 10.8954 6.66667 12 6.66667Z" fill="#091723" style="fill:#091723;fill:color(display-p3 0.0353 0.0902 0.1373);fill-opacity:1;"/>
</svg>
