<svg width="24" height="24" viewBox="0 0 24 24" fill="none" xmlns="http://www.w3.org/2000/svg">
<path fill-rule="evenodd" clip-rule="evenodd" d="M14.1716 3C14.702 3 15.2107 3.21071 15.5858 3.58579L17 5H20C21.1046 5 22 5.89543 22 7V18C22 19.1046 21.1046 20 20 20H4C2.89543 20 2 19.1046 2 18V7C2 5.89543 2.89543 5 4 5H7L8.41421 3.58579C8.78929 3.21071 9.29799 3 9.82843 3H14.1716ZM12 7C9.23858 7 7 9.23858 7 12C7 14.7614 9.23858 17 12 17C14.7614 17 17 14.7614 17 12C17 9.23858 14.7614 7 12 7ZM12 9C13.6569 9 15 10.3431 15 12C15 13.6569 13.6569 15 12 15C10.3431 15 9 13.6569 9 12C9 10.3431 10.3431 9 12 9Z" fill="#091723" style="fill:#091723;fill:color(display-p3 0.0353 0.0902 0.1373);fill-opacity:1;"/>
</svg>
