<svg width="24" height="24" viewBox="0 0 24 24" fill="none" xmlns="http://www.w3.org/2000/svg">
<path d="M5.60208 4.23316C5.99099 3.84425 6.46216 3.6498 7.01559 3.6498C7.56996 3.6498 8.0416 3.84425 8.43051 4.23316L10.5518 6.35448H13.9813C14.2406 6.35448 14.4909 6.40445 14.7322 6.50439C14.9741 6.6048 15.1893 6.74928 15.3778 6.93784L17.6229 9.18291C17.8232 9.38326 17.9237 9.61896 17.9241 9.89001C17.9237 10.1611 17.8232 10.3968 17.6229 10.5971L10.5518 17.6682C10.3515 17.8685 10.116 17.9687 9.84543 17.9687C9.5739 17.9687 9.33796 17.8685 9.13761 17.6682L6.89255 15.4231C6.70399 15.2346 6.5595 15.0194 6.45909 14.7775C6.35916 14.5362 6.30919 14.2859 6.30919 14.0266L6.30919 10.5971L4.18787 8.4758C3.79896 8.08689 3.60427 7.61549 3.6038 7.06159C3.60427 6.50769 3.79896 6.03628 4.18787 5.64737L5.60208 4.23316Z" fill="#091723" style="fill:#091723;fill:color(display-p3 0.0353 0.0902 0.1373);fill-opacity:1;"/>
</svg>
