<svg width="24" height="24" viewBox="0 0 24 24" fill="none" xmlns="http://www.w3.org/2000/svg">
<path fill-rule="evenodd" clip-rule="evenodd" d="M12.1204 19.9424C13.0999 19.9424 13.4402 19.6851 13.4402 18.7056L13.4319 14.439L17.0842 16.5474C17.408 16.7383 17.657 16.8379 17.8728 16.8379C18.2131 16.8379 18.4705 16.6055 18.8025 16.0908L18.9353 15.875C19.1511 15.5513 19.2424 15.2856 19.2424 15.0615C19.2424 14.688 18.9768 14.4224 18.4788 14.1401L14.677 11.957L18.4705 9.88184C18.9685 9.60791 19.2092 9.34229 19.2092 8.97705C19.2092 8.75293 19.1179 8.4873 18.927 8.16357L18.7942 7.93115C18.4871 7.4082 18.2214 7.17578 17.8728 7.17578C17.6487 7.17578 17.3914 7.27539 17.0759 7.45801L13.4319 9.57471L13.4402 5.33301C13.4402 4.35352 13.0999 4.09619 12.1204 4.09619H11.863C10.8835 4.09619 10.5432 4.35352 10.5515 5.33301V9.57471L6.90747 7.45801C6.58374 7.26709 6.30981 7.15918 6.06909 7.15918C5.72046 7.15918 5.42993 7.3833 5.16431 7.92285L5.0481 8.14697C4.88208 8.4873 4.79077 8.75293 4.79077 8.98535C4.79077 9.35059 5.02319 9.59961 5.52954 9.89014L9.3064 11.957L5.50464 14.1401C5.01489 14.4224 4.76587 14.6797 4.76587 15.0366C4.76587 15.2607 4.87378 15.5347 5.0647 15.875L5.18921 16.0825C5.48804 16.6055 5.76196 16.8462 6.1106 16.8462C6.32642 16.8462 6.58374 16.7383 6.89917 16.5557L10.5515 14.439L10.5432 18.7056C10.5432 19.6851 10.8835 19.9424 11.863 19.9424H12.1204Z" fill="#091723" style="fill:#091723;fill:color(display-p3 0.0353 0.0902 0.1373);fill-opacity:1;"/>
</svg>
