<svg width="24" height="24" viewBox="0 0 24 24" fill="none" xmlns="http://www.w3.org/2000/svg">
<path d="M18.0401 9.48995C17.6501 9.87995 17.0201 9.87995 16.6301 9.48995L16.2801 9.13995L11.1301 14.2899V15.5799C11.1301 16.1099 10.9201 16.6099 10.5401 16.9899L5.82006 21.7099C5.43006 22.0999 4.80006 22.0999 4.41006 21.7099L2.29006 19.5899C1.90006 19.1999 1.90006 18.5699 2.29006 18.1799L7.01006 13.4599C7.38006 13.0799 7.89006 12.8699 8.42006 12.8699H9.72006L10.5701 12.0199L6.44006 7.88995H5.44006C5.17006 7.88995 4.92006 7.78995 4.73006 7.59995L2.71006 5.56995C2.32006 5.17995 2.32006 4.54995 2.71006 4.15995L4.13006 2.73995C4.52006 2.34995 5.15006 2.34995 5.54006 2.73995L7.56006 4.76995C7.74006 4.95995 7.85006 5.20995 7.85006 5.47995V6.47995L11.9601 10.6099L14.8501 7.71994L14.5001 7.36995C14.1101 6.97995 14.1101 6.34995 14.5001 5.95995L15.2101 5.24995H12.6701C12.0501 5.24995 11.7201 4.48995 12.1701 4.03995L14.7101 1.49995C15.1601 1.04995 15.9201 1.37995 15.9201 1.99995V4.53995L16.6301 3.82995C17.0201 3.43995 17.6501 3.43995 18.0401 3.82995L20.8701 6.65995C22.0401 7.82995 22.0401 9.72995 20.8701 10.8999L18.7501 8.77994L18.0401 9.48995Z" fill="#091723" style="fill:#091723;fill:color(display-p3 0.0353 0.0902 0.1373);fill-opacity:1;"/>
<path d="M16.9501 13.45L21.6701 18.17C22.0601 18.56 22.0601 19.2 21.6701 19.58L19.5501 21.7C19.1601 22.09 18.5301 22.09 18.1401 21.7L13.4201 16.98C12.9401 16.51 12.8301 15.99 12.8301 15.4L15.3701 12.86C15.9601 12.86 16.4701 12.97 16.9501 13.45Z" fill="#091723" style="fill:#091723;fill:color(display-p3 0.0353 0.0902 0.1373);fill-opacity:1;"/>
</svg>
