<svg width="24" height="24" viewBox="0 0 24 24" fill="none" xmlns="http://www.w3.org/2000/svg">
<path fill-rule="evenodd" clip-rule="evenodd" d="M21 10.5H19.5V6.5C19.5 5.4 18.6 4.5 17.5 4.5H13.5V3C13.5 1.62 12.38 0.5 11 0.5C9.62 0.5 8.5 1.62 8.5 3V4.5H4.5C3.4 4.5 2.51 5.4 2.51 6.5V10.3H4C5.49 10.3 6.7 11.51 6.7 13C6.7 14.49 5.49 15.7 4 15.7H2.5V19.5C2.5 20.6 3.4 21.5 4.5 21.5H8.3V20C8.3 18.51 9.51 17.3 11 17.3C12.49 17.3 13.7 18.51 13.7 20V21.5H17.5C18.6 21.5 19.5 20.6 19.5 19.5V15.5H21C22.38 15.5 23.5 14.38 23.5 13C23.5 11.62 22.38 10.5 21 10.5Z" fill="#091723" style="fill:#091723;fill:color(display-p3 0.0353 0.0902 0.1373);fill-opacity:1;"/>
</svg>
