<svg width="24" height="24" viewBox="0 0 24 24" fill="none" xmlns="http://www.w3.org/2000/svg">
<path d="M21.2841 10.3339L20.2588 10.3339C19.9878 10.3456 19.7582 10.4517 19.5701 10.6521C19.3811 10.8524 19.2866 11.0822 19.2866 11.3415C19.2866 11.6243 19.3865 11.86 19.5864 12.0486C19.7872 12.2372 20.0172 12.3314 20.2765 12.3314L21.3018 12.3314C21.5847 12.3314 21.8206 12.2313 22.0096 12.0309C22.1977 11.8306 22.2918 11.589 22.2918 11.3061C22.3036 11.0115 22.2121 10.773 22.0174 10.5905C21.8232 10.4076 21.5788 10.3221 21.2841 10.3339Z" fill="#091723" style="fill:#091723;fill:color(display-p3 0.0353 0.0902 0.1373);fill-opacity:1;"/>
<path d="M17.6249 16.6632C17.3538 16.6627 17.1181 16.7626 16.9178 16.963C16.7174 17.1633 16.6172 17.3993 16.6172 17.6708C16.6172 17.9414 16.7174 18.1769 16.9178 18.3772L17.6249 19.0843C17.8252 19.2847 18.0609 19.3851 18.332 19.3855C18.603 19.3851 18.8387 19.2847 19.0391 19.0843C19.2394 18.884 19.3396 18.6485 19.3396 18.3779C19.3396 18.1064 19.2394 17.8704 19.0391 17.6701L18.332 16.963C18.1316 16.7626 17.8959 16.6627 17.6249 16.6632Z" fill="#091723" style="fill:#091723;fill:color(display-p3 0.0353 0.0902 0.1373);fill-opacity:1;"/>
<path d="M11.968 19.65C11.7677 19.4496 11.5261 19.3495 11.2432 19.3495C10.9604 19.3495 10.7277 19.4468 10.5453 19.6415C10.3624 19.8357 10.271 20.0743 10.271 20.3571L10.271 21.347C10.271 21.6063 10.3711 21.8361 10.5715 22.0365C10.7718 22.2368 11.0016 22.337 11.2609 22.337C11.5437 22.337 11.7825 22.2397 11.9772 22.045C12.1714 21.8507 12.2685 21.624 12.2685 21.3647L12.2685 20.3748C12.2685 20.0919 12.1684 19.8503 11.968 19.65Z" fill="#091723" style="fill:#091723;fill:color(display-p3 0.0353 0.0902 0.1373);fill-opacity:1;"/>
<path d="M7.01755 3.6517C6.46412 3.6517 5.99296 3.84615 5.60405 4.23506L4.18983 5.64927C3.80092 6.03818 3.60623 6.50959 3.60576 7.06349C3.60623 7.61739 3.80092 8.08879 4.18983 8.4777L6.31115 10.599L6.31115 14.0285C6.31115 14.2878 6.36112 14.5381 6.46106 14.7794C6.56147 15.0213 6.70596 15.2365 6.89452 15.425L9.13958 17.6701C9.33993 17.8704 9.57587 17.9706 9.84739 17.9706C10.118 17.9706 10.3534 17.8704 10.5538 17.6701L17.6249 10.599C17.8252 10.3987 17.9256 10.163 17.9261 9.89192C17.9256 9.62086 17.8252 9.38516 17.6249 9.18481L15.3798 6.93974C15.1912 6.75118 14.976 6.6067 14.7342 6.50629C14.4929 6.40635 14.2425 6.35638 13.9833 6.35638H10.5538L8.43247 4.23506C8.04357 3.84615 7.57192 3.6517 7.01755 3.6517Z" fill="#091723" style="fill:#091723;fill:color(display-p3 0.0353 0.0902 0.1373);fill-opacity:1;"/>
</svg>
