<svg width="24" height="24" viewBox="0 0 24 24" fill="none" xmlns="http://www.w3.org/2000/svg">
<path fill-rule="evenodd" clip-rule="evenodd" d="M12 2C17.5228 2 22 6.47715 22 12C22 17.5228 17.5228 22 12 22C6.47715 22 2 17.5228 2 12C2 6.47715 6.47715 2 12 2ZM12 4C11.4477 4 11 4.44772 11 5V12C11 12.5523 11.4477 13 12 13H17C17.5523 13 18 12.5523 18 12C18 11.4477 17.5523 11 17 11H13V5C13 4.44772 12.5523 4 12 4Z" fill="#091723" style="fill:#091723;fill:color(display-p3 0.0353 0.0902 0.1373);fill-opacity:1;"/>
</svg>
