<svg width="24" height="24" viewBox="0 0 24 24" fill="none" xmlns="http://www.w3.org/2000/svg">
<path fill-rule="evenodd" clip-rule="evenodd" d="M11 14V22H6C4.89543 22 4 21.1046 4 20V14H11ZM20 14V20C20 21.1046 19.1046 22 18 22H13V14H20ZM15.5 2C17.433 2 19 3.567 19 5.5C19 6.47998 18.5972 7.3659 17.9482 8.00125L20 8C20.5523 8 21 8.44772 21 9V11C21 11.5523 20.5523 12 20 12H13V8H11V12H4C3.44772 12 3 11.5523 3 11V9C3 8.44772 3.44772 8 4 8L6.05178 8.00125C5.40276 7.3659 5 6.47998 5 5.5C5 3.567 6.567 2 8.5 2C10.3686 2 11.8951 3.46428 11.9948 5.30796L12 5.5L12.0052 5.30796C12.1049 3.46428 13.6314 2 15.5 2ZM8.5 3.5C7.39543 3.5 6.5 4.39543 6.5 5.5C6.5 6.55436 7.31588 7.41817 8.35074 7.49451L8.5 7.5H10.5V5.5L10.4945 5.35074C10.4182 4.31588 9.55436 3.5 8.5 3.5ZM15.5 3.5C14.4984 3.5 13.6687 4.23633 13.5228 5.19723L13.5055 5.35074L13.5 5.5V7.5H15.5L15.6493 7.49451C16.6841 7.41817 17.5 6.55436 17.5 5.5C17.5 4.39543 16.6046 3.5 15.5 3.5Z" fill="#091723" style="fill:#091723;fill:color(display-p3 0.0353 0.0902 0.1373);fill-opacity:1;"/>
</svg>
