<svg width="24" height="24" viewBox="0 0 24 24" fill="none" xmlns="http://www.w3.org/2000/svg">
<path fill-rule="evenodd" clip-rule="evenodd" d="M18 2C19.1046 2 20 2.89543 20 4V22L18 20L16 22L14 20L12 22L10 20L8 22L6 20L4 22V4C4 2.89543 4.89543 2 6 2H18ZM11 13H7C6.44772 13 6 13.4477 6 14C6 14.5128 6.38604 14.9355 6.88338 14.9933L7 15H11C11.5523 15 12 14.5523 12 14C12 13.4872 11.614 13.0645 11.1166 13.0067L11 13ZM17 9H7C6.44772 9 6 9.44772 6 10C6 10.5128 6.38604 10.9355 6.88338 10.9933L7 11H17C17.5523 11 18 10.5523 18 10C18 9.48716 17.614 9.06449 17.1166 9.00673L17 9ZM17 5H7C6.44772 5 6 5.44772 6 6C6 6.51284 6.38604 6.93551 6.88338 6.99327L7 7H17C17.5523 7 18 6.55228 18 6C18 5.48716 17.614 5.06449 17.1166 5.00673L17 5Z" fill="#091723" style="fill:#091723;fill:color(display-p3 0.0353 0.0902 0.1373);fill-opacity:1;"/>
</svg>
