<svg width="24" height="24" viewBox="0 0 24 24" fill="none" xmlns="http://www.w3.org/2000/svg">
<path fill-rule="evenodd" clip-rule="evenodd" d="M12 3C9.00751 3 6.27523 4.08228 4.16346 5.88608C3.45287 6.49736 3.30274 7.53956 3.76313 8.35127L11.1293 21.4889C11.5096 22.1704 12.4904 22.1704 12.8707 21.4889L20.2369 8.35127C20.6973 7.53956 20.5471 6.48734 19.8365 5.88608C17.7348 4.0923 14.9925 3 12 3ZM6.99583 8.01055C6.99583 6.90823 7.89658 6.00633 8.9975 6.00633C10.0984 6.00633 10.9992 6.90823 10.9992 8.01055C10.9992 9.11287 10.0984 10.0148 8.9975 10.0148C7.89658 10.0148 6.99583 9.11287 6.99583 8.01055ZM12 16.0274C10.8991 16.0274 9.99832 15.1255 9.99832 14.0232C9.99832 12.9209 10.8991 12.019 12 12.019C13.1009 12.019 14.0017 12.9209 14.0017 14.0232C14.0017 15.1255 13.1009 16.0274 12 16.0274Z" fill="#091723" style="fill:#091723;fill:color(display-p3 0.0353 0.0902 0.1373);fill-opacity:1;"/>
</svg>
