<svg width="24" height="24" viewBox="0 0 24 24" fill="none" xmlns="http://www.w3.org/2000/svg">
<path fill-rule="evenodd" clip-rule="evenodd" d="M19 2C19.5523 2 20 2.44772 20 3V4.67384C21.2601 6.46319 22 8.64518 22 11C22 17.0751 17.0751 22 11 22C9.43163 22 7.93993 21.6718 6.58983 21.0803C6.29655 20.9059 6.1 20.5859 6.1 20.22C6.1 19.7918 6.3691 19.4265 6.7474 19.2839C13.2659 17.2614 18 11.1836 18 4V3C18 2.44772 18.4477 2 19 2ZM15.6668 7.05033C15.2389 8.97663 14.4142 10.7535 13.2825 12.2907C11.855 14.2295 9.94018 15.7878 7.65731 16.8043C7.12058 16.696 6.58583 16.5465 6.05628 16.3538C4.58249 15.8174 3.29301 14.9987 2.22664 13.9811C2.01066 13.717 1.93543 13.3491 2.06058 13.0052C2.20702 12.6029 2.58484 12.3516 2.98908 12.347C7.76109 12.5773 12.3911 10.6412 15.5823 7.14344L15.6668 7.05033Z" fill="#091723" style="fill:#091723;fill:color(display-p3 0.0353 0.0902 0.1373);fill-opacity:1;"/>
</svg>
