<svg width="24" height="24" viewBox="0 0 24 24" fill="none" xmlns="http://www.w3.org/2000/svg">
<path fill-rule="evenodd" clip-rule="evenodd" d="M22 5H18.0813V2C18.0813 1.45 17.6292 1 17.0765 1C16.5239 1 16.0717 1.45 16.0717 2V5H12.1531C11.5603 5 11.0981 5.51 11.1483 6.1L11.2689 7.31C14.9665 8.16 18.0813 10.77 18.0813 15L18.1014 23H19.8095C20.6536 23 21.3469 22.35 21.4473 21.53L22.9947 6.1C23.055 5.51 22.5928 5 22 5ZM15.067 21H2.00478C1.45215 21 1 21.45 1 22C1 22.55 1.45215 23 2.00478 23H15.067C15.6196 23 16.0717 22.55 16.0717 22C16.0717 21.45 15.6196 21 15.067 21ZM2.10526 15H14.9665C15.5895 15 16.0818 14.44 15.9612 13.84C15.3081 10.61 11.922 8.99 8.53587 8.99C5.14975 8.99 1.77368 10.61 1.11053 13.84C0.989952 14.44 1.49234 15 2.10526 15ZM15.067 17H2.00478C1.45215 17 1 17.45 1 18C1 18.55 1.45215 19 2.00478 19H15.067C15.6196 19 16.0717 18.55 16.0717 18C16.0717 17.45 15.6196 17 15.067 17Z" fill="#091723" style="fill:#091723;fill:color(display-p3 0.0353 0.0902 0.1373);fill-opacity:1;"/>
</svg>
