<svg width="24" height="24" viewBox="0 0 24 24" fill="none" xmlns="http://www.w3.org/2000/svg">
<path d="M20.3099 3.69016C20.6599 4.04016 21.0599 5.96016 20.9799 8.38016L15.6199 3.02016C18.0299 2.93016 19.9599 3.34016 20.3099 3.69016Z" fill="#091723" style="fill:#091723;fill:color(display-p3 0.0353 0.0902 0.1373);fill-opacity:1;"/>
<path fill-rule="evenodd" clip-rule="evenodd" d="M13.0801 3.28027C10.7501 3.70027 8.29009 4.62027 6.46009 6.46027C4.63009 8.30027 3.70009 10.7503 3.28009 13.0803L10.9101 20.7103C13.2501 20.3003 15.7001 19.3703 17.5301 17.5303C19.3601 15.6903 20.2901 13.2403 20.7101 10.9103L13.0801 3.28027ZM14.8001 10.6003L10.6001 14.8003C10.2101 15.1903 9.59009 15.1903 9.20009 14.8003C8.81009 14.4103 8.81009 13.7903 9.20009 13.4003L13.4001 9.20027C13.7901 8.81027 14.4101 8.81027 14.8001 9.20027C15.1901 9.59027 15.1901 10.2103 14.8001 10.6003Z" fill="#091723" style="fill:#091723;fill:color(display-p3 0.0353 0.0902 0.1373);fill-opacity:1;"/>
<path d="M3.01991 15.6201C2.93991 18.0401 3.33991 19.9601 3.68991 20.3101C4.03991 20.6601 5.96991 21.0701 8.37991 20.9801L3.01991 15.6201Z" fill="#091723" style="fill:#091723;fill:color(display-p3 0.0353 0.0902 0.1373);fill-opacity:1;"/>
</svg>
