<svg width="24" height="24" viewBox="0 0 24 24" fill="none" xmlns="http://www.w3.org/2000/svg">
<path fill-rule="evenodd" clip-rule="evenodd" d="M12 2C17.5228 2 22 6.47715 22 12C22 17.5228 17.5228 22 12 22C6.47715 22 2 17.5228 2 12C2 6.47715 6.47715 2 12 2ZM6.08369 13.0044C6.56157 15.8399 9.02853 18 12 18C14.9729 18 17.4408 15.8379 17.9165 13.005C16.0635 13.6497 14.0726 14 12 14C9.92781 14 7.93741 13.6498 6.08369 13.0044ZM8 8C7.44772 8 7 8.44772 7 9C7 9.55228 7.44772 10 8 10C8.55228 10 9 9.55228 9 9C9 8.44772 8.55228 8 8 8ZM16 8C15.4477 8 15 8.44772 15 9C15 9.55228 15.4477 10 16 10C16.5523 10 17 9.55228 17 9C17 8.44772 16.5523 8 16 8Z" fill="#091723" style="fill:#091723;fill:color(display-p3 0.0353 0.0902 0.1373);fill-opacity:1;"/>
</svg>
