<svg width="24" height="24" viewBox="0 0 24 24" fill="none" xmlns="http://www.w3.org/2000/svg">
<g clip-path="url(#clip0_6086_810)">
<path d="M18.3109 4.24282C19.3826 3.9756 20.0348 2.89015 19.7676 1.81839C19.5004 0.746628 18.4149 0.0944188 17.3432 0.361639C16.2714 0.628858 15.6192 1.71432 15.8864 2.78607C15.9298 2.95991 15.9946 3.12271 16.0775 3.27234L15.2319 4.67965C14.2436 4.24267 13.1501 3.99997 12 3.99997C11.6543 3.99997 11.3137 4.0219 10.9795 4.06445L11.5762 6.29117L19.953 11.1275C19.8628 10.2962 19.6453 9.50309 19.3203 8.76811L20.7276 7.92251C20.8773 8.00536 21.0401 8.07023 21.2139 8.11357C22.2857 8.38079 23.3711 7.72858 23.6383 6.65682C23.9056 5.58506 23.2534 4.49961 22.1816 4.23239C21.1098 3.96517 20.0244 4.61738 19.7572 5.68913C19.7138 5.86297 19.6947 6.03717 19.6976 6.20817L18.2888 7.05464C17.8957 6.55548 17.4445 6.10425 16.9453 5.71118L17.7918 4.30242C17.9628 4.30532 18.137 4.28616 18.3109 4.24282Z" fill="#091723" style="fill:#091723;fill:color(display-p3 0.0353 0.0902 0.1373);fill-opacity:1;"/>
<path d="M0.575002 17.6982L4.67968 15.2318C4.24271 14.2435 4 13.1501 4 12C4 10.1952 4.59762 8.53003 5.60576 7.19153L8.86717 19.3633C8.83405 19.3492 8.80105 19.3348 8.76816 19.3203L6.30183 23.425C6.01738 23.8984 5.40302 24.0515 4.92962 23.7671C4.45622 23.4826 4.30304 22.8683 4.58749 22.3949L7.05469 18.2888C6.55552 17.8957 6.10428 17.4445 5.71121 16.9453L1.60508 19.4125C1.13168 19.6969 0.51732 19.5438 0.232873 19.0704C-0.0515748 18.597 0.101601 17.9826 0.575002 17.6982Z" fill="#091723" style="fill:#091723;fill:color(display-p3 0.0353 0.0902 0.1373);fill-opacity:1;"/>
<path d="M9.04288 4.56427L13.1566 19.917C12.779 19.9717 12.3928 20 12 20C11.6939 20 11.3919 19.9828 11.0947 19.9493L7.24142 5.56848C7.79195 5.16048 8.3967 4.82148 9.04288 4.56427Z" fill="#091723" style="fill:#091723;fill:color(display-p3 0.0353 0.0902 0.1373);fill-opacity:1;"/>
<path d="M12.3082 9.02322L19.8789 13.3942C19.7584 14.0803 19.5503 14.7362 19.2668 15.3502L13.0403 11.7553L12.3082 9.02322Z" fill="#091723" style="fill:#091723;fill:color(display-p3 0.0353 0.0902 0.1373);fill-opacity:1;"/>
<path d="M13.7723 14.4873L18.2069 17.0476C17.3803 18.0628 16.3096 18.8713 15.0843 19.3838L13.7723 14.4873Z" fill="#091723" style="fill:#091723;fill:color(display-p3 0.0353 0.0902 0.1373);fill-opacity:1;"/>
</g>
<defs>
<clipPath id="clip0_6086_810">
<rect width="24" height="24" fill="white" style="fill:white;fill-opacity:1;"/>
</clipPath>
</defs>
</svg>
