<svg width="24" height="24" viewBox="0 0 24 24" fill="none" xmlns="http://www.w3.org/2000/svg">
<path fill-rule="evenodd" clip-rule="evenodd" d="M12.68 6.8775C13.38 6.6375 13.9 5.9775 13.98 5.2375C14.03 4.7675 13.93 4.3275 13.7 3.9675L12.42 1.7475C12.23 1.4175 11.75 1.4175 11.55 1.7475L10.27 3.9675C10.1 4.2675 10 4.6175 10 4.9975C10 6.3175 11.3 7.3475 12.68 6.8775ZM16.53 16.9175L15.53 15.9175L14.45 16.9875C13.15 18.2875 10.87 18.2975 9.56 16.9875L8.49 15.9175L7.4 16.9875C6.75 17.6375 5.88 17.9975 4.96 17.9975C4.23 17.9975 3.56 17.7675 3 17.3875V20.9975C3 22.0975 3.9 22.9975 5 22.9975H19C20.1 22.9975 21 22.0975 21 20.9975V17.3875C20.25 17.8975 19.29 18.1375 18.26 17.9075C17.6 17.7675 17.01 17.3975 16.53 16.9175ZM18 9.9975H13V8.9975C13 8.4475 12.55 7.9975 12 7.9975C11.45 7.9975 11 8.4475 11 8.9975V9.9975H6C4.34 9.9975 3 11.3375 3 12.9975V14.4575C3 15.3075 3.5 16.1275 4.31 16.3975C5.04 16.6375 5.83 16.4575 6.34 15.9375L8.48 13.8075L10.61 15.9375C11.37 16.6975 12.62 16.6975 13.38 15.9375L15.52 13.8075L17.65 15.9375C18.08 16.3675 18.68 16.5675 19.3 16.4875C20.29 16.3575 20.9901 15.4275 20.9901 14.4275V13.0075C21 11.3375 19.66 9.9975 18 9.9975Z" fill="#091723" style="fill:#091723;fill:color(display-p3 0.0353 0.0902 0.1373);fill-opacity:1;"/>
</svg>
