<svg width="24" height="24" viewBox="0 0 24 24" fill="none" xmlns="http://www.w3.org/2000/svg">
<path fill-rule="evenodd" clip-rule="evenodd" d="M4 17C4 17.88 4.39 18.67 5 19.22V20.5C5 21.33 5.67 22 6.5 22C7.33 22 8 21.33 8 20.5V20H16V20.5C16 21.32 16.67 22 17.5 22C18.32 22 19 21.33 19 20.5V19.22C19.61 18.67 20 17.88 20 17V7C20 3.5 16.42 3 12 3C7.58 3 4 3.5 4 7V17ZM7.5 18C6.67 18 6 17.33 6 16.5C6 15.67 6.67 15 7.5 15C8.33 15 9 15.67 9 16.5C9 17.33 8.33 18 7.5 18ZM16.5 18C15.67 18 15 17.33 15 16.5C15 15.67 15.67 15 16.5 15C17.33 15 18 15.67 18 16.5C18 17.33 17.33 18 16.5 18ZM18 12H6V7H18V12Z" fill="#091723" style="fill:#091723;fill:color(display-p3 0.0353 0.0902 0.1373);fill-opacity:1;"/>
</svg>
