<svg width="24" height="24" viewBox="0 0 24 24" fill="none" xmlns="http://www.w3.org/2000/svg">
<path fill-rule="evenodd" clip-rule="evenodd" d="M12.001 20.7279C12.0818 20.8213 12.1659 20.9117 12.2532 20.9989C12.6753 21.421 13.1707 21.7698 13.7186 22.0246C13.3713 22.6086 12.7324 23 12.0021 23C11.2718 23 10.6329 22.6086 10.2838 22.0241C10.7418 21.8123 11.1622 21.5347 11.5339 21.2038L11.751 20.9989L11.9207 20.8209L12.001 20.7279ZM17.0021 1C19.3098 1 21.2786 2.66961 21.6556 4.94625L22.937 12.6837C23.1175 13.7735 22.3804 14.8032 21.2906 14.9836C20.8543 15.0559 20.4062 14.9815 20.0167 14.772L19.002 14.226L19.0021 17.375C19.0021 19.1009 17.603 20.5 15.8771 20.5C14.1512 20.5 12.7521 19.1009 12.7521 17.375L12.752 15.655L14.5227 13.6644C14.6583 13.5118 14.7433 13.3222 14.7679 13.1215L14.7753 13C14.7753 12.4872 14.3892 12.0645 13.8919 12.0067L13.7753 12H10.229C9.98404 12 9.74764 12.0899 9.56459 12.2526C9.18356 12.5913 9.12257 13.1559 9.40403 13.5654L9.48154 13.6644L11.252 15.656L11.2521 17.375C11.2521 19.1009 9.853 20.5 8.12711 20.5C6.40122 20.5 5.00211 19.1009 5.00211 17.375L5.00204 14.225L3.98756 14.772C3.65364 14.9515 3.27678 15.0319 2.90112 15.0057L2.71359 14.9836C1.67339 14.8114 0.954494 13.8653 1.04825 12.8319L1.06722 12.6837L2.34859 4.94625C2.72561 2.66961 4.69446 1 7.00211 1C8.01652 1 8.94274 1.37761 9.64787 1.99994H14.3563C15.0615 1.37761 15.9877 1 17.0021 1ZM8.00211 8C7.44982 8 7.00211 8.44772 7.00211 9C7.00211 9.5523 7.44982 10 8.00211 10C8.55439 10 9.00211 9.5523 9.00211 9C9.00211 8.44772 8.55439 8 8.00211 8ZM16.0021 8C15.4498 8 15.0021 8.44772 15.0021 9C15.0021 9.5523 15.4498 10 16.0021 10C16.5544 10 17.0021 9.5523 17.0021 9C17.0021 8.44772 16.5544 8 16.0021 8Z" fill="#091723" style="fill:#091723;fill:color(display-p3 0.0353 0.0902 0.1373);fill-opacity:1;"/>
</svg>
