<svg width="24" height="24" viewBox="0 0 24 24" fill="none" xmlns="http://www.w3.org/2000/svg">
<path d="M9 8C10.3807 8 11.5 6.88071 11.5 5.5C11.5 4.11929 10.3807 3 9 3C7.61929 3 6.5 4.11929 6.5 5.5C6.5 6.88071 7.61929 8 9 8Z" fill="#091723" style="fill:#091723;fill:color(display-p3 0.0353 0.0902 0.1373);fill-opacity:1;"/>
<path d="M4.5 12C5.88071 12 7 10.8807 7 9.5C7 8.11929 5.88071 7 4.5 7C3.11929 7 2 8.11929 2 9.5C2 10.8807 3.11929 12 4.5 12Z" fill="#091723" style="fill:#091723;fill:color(display-p3 0.0353 0.0902 0.1373);fill-opacity:1;"/>
<path d="M17.5 5.5C17.5 6.88071 16.3807 8 15 8C13.6193 8 12.5 6.88071 12.5 5.5C12.5 4.11929 13.6193 3 15 3C16.3807 3 17.5 4.11929 17.5 5.5Z" fill="#091723" style="fill:#091723;fill:color(display-p3 0.0353 0.0902 0.1373);fill-opacity:1;"/>
<path d="M19.5 12C20.8807 12 22 10.8807 22 9.5C22 8.11929 20.8807 7 19.5 7C18.1193 7 17 8.11929 17 9.5C17 10.8807 18.1193 12 19.5 12Z" fill="#091723" style="fill:#091723;fill:color(display-p3 0.0353 0.0902 0.1373);fill-opacity:1;"/>
<path d="M16.4439 13.8056C16.7335 14.147 17.0278 14.4938 17.3401 14.86C17.4181 14.9379 17.497 15.0163 17.5766 15.0953C18.8349 16.3446 20.2417 17.7413 19.9501 19.66C19.6601 20.67 18.9301 21.69 17.6201 21.98C17.2842 22.0444 16.6093 21.9564 15.737 21.8425C14.7137 21.709 13.4188 21.54 12.0801 21.54H11.9001C10.5727 21.54 9.28832 21.709 8.26921 21.8431C7.38429 21.9596 6.69942 22.0497 6.36014 21.98C5.05014 21.69 4.32014 20.68 4.03014 19.66C3.74812 17.7516 5.15406 16.3559 6.4119 15.1071C6.49207 15.0275 6.57165 14.9485 6.65014 14.87C7.21421 14.2162 7.71665 13.624 8.23383 13.0145C8.5235 12.6731 8.8178 12.3262 9.13014 11.96C9.60014 11.42 10.1801 10.88 10.8801 10.64C10.9901 10.6 11.1001 10.57 11.2101 10.55C11.4701 10.5 11.7401 10.5 12.0001 10.5C12.2601 10.5 12.5301 10.5 12.7801 10.54C12.8901 10.56 13.0001 10.59 13.1101 10.63C13.8101 10.87 14.4001 11.41 14.8601 11.95C15.4242 12.6038 15.9267 13.196 16.4439 13.8056Z" fill="#091723" style="fill:#091723;fill:color(display-p3 0.0353 0.0902 0.1373);fill-opacity:1;"/>
</svg>
