<svg width="24" height="24" viewBox="0 0 24 24" fill="none" xmlns="http://www.w3.org/2000/svg">
<path fill-rule="evenodd" clip-rule="evenodd" d="M15.5 17.0006H3.5C2.67 17.0006 2 17.6706 2 18.5006C2 19.3306 2.67 20.0006 3.5 20.0006H15.5C16.33 20.0006 17 19.3306 17 18.5006C17 17.6706 16.33 17.0006 15.5 17.0006ZM18.85 8.73058C19.47 8.12058 19.85 7.28058 19.85 6.35058C19.85 4.84058 18.85 3.56058 17.47 3.14058C16.99 3.00058 16.5 3.36058 16.5 3.86058C16.5 4.19058 16.71 4.48058 17.02 4.57058C17.79 4.80058 18.35 5.51058 18.35 6.35058C18.35 7.17058 17.82 7.86058 17.08 8.11058C16.75 8.22058 16.5 8.50058 16.5 8.85058V9.00058C16.5 9.37058 16.77 9.69058 17.14 9.75058C19.07 10.0606 20.5 11.7506 20.5 13.7706V15.2506C20.5 15.6606 20.84 16.0006 21.25 16.0006C21.66 16.0006 22 15.6606 22 15.2506V13.7606C22 11.5406 20.72 9.62058 18.85 8.73058ZM16.03 11.2006H14.73C13.71 11.2006 12.79 10.4706 12.66 9.45058C12.54 8.50058 13.12 7.75058 13.96 7.52058C14.28 7.43058 14.5 7.14058 14.5 6.80058C14.5 6.31058 14.04 5.94058 13.57 6.08058C12.15 6.49058 11.12 7.81058 11.15 9.36058C11.18 11.2006 12.77 12.6506 14.61 12.6506H16.03C17.08 12.6506 18 13.3906 18 14.7006V15.2506C18 15.6606 18.33 16.0006 18.75 16.0006H18.76C19.17 16.0006 19.51 15.6706 19.51 15.2506V14.3606C19.5 12.5506 17.9 11.2006 16.03 11.2006ZM18 17.0006H19.5V20.0006H18V17.0006ZM20.5 17.0006H22V20.0006H20.5V17.0006Z" fill="#091723" style="fill:#091723;fill:color(display-p3 0.0353 0.0902 0.1373);fill-opacity:1;"/>
</svg>
