<svg width="24" height="24" viewBox="0 0 24 24" fill="none" xmlns="http://www.w3.org/2000/svg">
<path fill-rule="evenodd" clip-rule="evenodd" d="M22.3317 3.35108C22.7475 6.80925 22.9693 9.84049 22.997 12.4448L23 12.9963C23 18.7146 18.823 22.8586 12.3267 22.993L12 22.9963C5.42691 22.9963 1.14219 18.946 1.00347 13.2809L1 12.9963C1 10.2713 1.22277 7.05626 1.66831 3.35108C1.76723 2.52859 2.51416 1.942 3.33666 2.04091C3.59672 2.07218 3.84406 2.17101 4.05406 2.32756L6.49083 4.14319C8.05693 3.40461 9.91313 2.99635 12 2.99635C14.0869 2.99635 15.9431 3.40461 17.5092 4.14319L19.9459 2.32756C20.1559 2.17101 20.4033 2.07218 20.6633 2.04091C21.4858 1.942 22.2328 2.52859 22.3317 3.35108ZM12.9817 12.9963H11.0183C10.7429 12.9963 10.4797 13.1099 10.2907 13.3103C9.94098 13.6813 9.92994 14.2491 10.2464 14.6322L10.3323 14.7239L11.2454 15.5853L11.2442 15.6399C11.1793 16.4393 10.5771 17.0868 9.79923 17.2209L9.65141 17.2399L9.50015 17.2463L9.33032 17.2383C9.16212 17.2221 8.99917 17.1821 8.84497 17.1198L8.6938 17.0501C8.32638 16.8588 7.87349 17.0017 7.68225 17.3691C7.49101 17.7365 7.63383 18.1894 8.00126 18.3806C8.38818 18.582 8.81218 18.7036 9.25192 18.737L9.5 18.7463C10.5055 18.7463 11.4044 18.2897 11.9994 17.5724C12.553 18.2384 13.3676 18.6798 14.2862 18.7394L14.5271 18.7462C15.0456 18.742 15.5475 18.6156 15.9989 18.3806C16.3663 18.1894 16.5091 17.7365 16.3179 17.3691C16.1426 17.0323 15.7474 16.8842 15.3998 17.0092L15.1552 17.1198C15.001 17.1821 14.838 17.2221 14.6698 17.2383L14.4904 17.2463L14.3565 17.2405C13.557 17.1756 12.9095 16.5735 12.7755 15.7956L12.7565 15.6478L12.7534 15.5853L13.6677 14.7239C13.8681 14.535 13.9817 14.2718 13.9817 13.9963C13.9817 13.4835 13.5957 13.0608 13.0983 13.0031L12.9817 12.9963ZM8 9.99635C7.44772 9.99635 7 10.4441 7 10.9963C7 11.5486 7.44772 11.9963 8 11.9963C8.55228 11.9963 9 11.5486 9 10.9963C9 10.4441 8.55228 9.99635 8 9.99635ZM16 9.99635C15.4477 9.99635 15 10.4441 15 10.9963C15 11.5486 15.4477 11.9963 16 11.9963C16.5523 11.9963 17 11.5486 17 10.9963C17 10.4441 16.5523 9.99635 16 9.99635Z" fill="#091723" style="fill:#091723;fill:color(display-p3 0.0353 0.0902 0.1373);fill-opacity:1;"/>
</svg>
