<svg width="24" height="24" viewBox="0 0 24 24" fill="none" xmlns="http://www.w3.org/2000/svg">
<path d="M15.0705 11C15.3905 8.41005 16.9505 6.21005 19.1305 5.00005C17.5305 3.37005 15.3905 2.29005 13.0005 2.05005V11H15.0705Z" fill="#091723" style="fill:#091723;fill:color(display-p3 0.0353 0.0902 0.1373);fill-opacity:1;"/>
<path d="M3.59029 6.6001C5.32029 7.4301 6.58029 9.0501 6.91029 11.0001H2.05029C2.21029 9.3901 2.76029 7.8901 3.59029 6.6001Z" fill="#091723" style="fill:#091723;fill:color(display-p3 0.0353 0.0902 0.1373);fill-opacity:1;"/>
<path d="M21.9503 11.0001H17.0903C17.4203 9.0501 18.6803 7.4301 20.4103 6.6001C21.2403 7.8901 21.7903 9.3901 21.9503 11.0001Z" fill="#091723" style="fill:#091723;fill:color(display-p3 0.0353 0.0902 0.1373);fill-opacity:1;"/>
<path d="M11.0001 11H8.93012C8.61012 8.41005 7.05012 6.21005 4.87012 5.00005C6.46012 3.37005 8.61012 2.29005 11.0001 2.05005V11Z" fill="#091723" style="fill:#091723;fill:color(display-p3 0.0353 0.0902 0.1373);fill-opacity:1;"/>
<path d="M15.0705 13H13.0005V21.95C15.3905 21.71 17.5405 20.63 19.1305 19C16.9505 17.79 15.3905 15.59 15.0705 13Z" fill="#091723" style="fill:#091723;fill:color(display-p3 0.0353 0.0902 0.1373);fill-opacity:1;"/>
<path d="M6.91029 13C6.58029 14.94 5.31029 16.57 3.59029 17.4C2.76029 16.11 2.21029 14.61 2.05029 13H6.91029Z" fill="#091723" style="fill:#091723;fill:color(display-p3 0.0353 0.0902 0.1373);fill-opacity:1;"/>
<path d="M17.0903 13C17.4203 14.95 18.6803 16.57 20.4103 17.4C21.2403 16.11 21.7903 14.61 21.9503 13H17.0903Z" fill="#091723" style="fill:#091723;fill:color(display-p3 0.0353 0.0902 0.1373);fill-opacity:1;"/>
<path d="M4.87012 19C7.05012 17.79 8.61012 15.59 8.93012 13H11.0001V21.95C8.61012 21.71 6.47012 20.63 4.87012 19Z" fill="#091723" style="fill:#091723;fill:color(display-p3 0.0353 0.0902 0.1373);fill-opacity:1;"/>
</svg>
