<svg width="24" height="24" viewBox="0 0 24 24" fill="none" xmlns="http://www.w3.org/2000/svg">
<path fill-rule="evenodd" clip-rule="evenodd" d="M11.3046 19.6121C11.3046 20.1644 11.7576 20.6227 12.297 20.5043C13.5325 20.2332 14.6517 19.4641 15.5493 18.3463C19.2408 17.7639 22.0248 15.16 22.0248 12.036C22.0248 9.14957 19.6483 6.70723 16.3752 5.89294C15.3909 4.10896 13.9476 2.85774 12.297 2.49559C11.7576 2.37723 11.3046 2.8355 11.3046 3.38779V5.96984C9.42508 6.5013 7.8663 7.57598 6.92305 8.95808C6.00446 7.86857 4.61138 7.07703 2.99402 6.79195C2.33433 6.67568 1.85015 7.32163 2.04264 7.96324L3.17825 11.7486C3.23449 11.9361 3.23449 12.1359 3.17825 12.3233L2.04264 16.1087C1.85015 16.7503 2.33433 17.3963 2.99402 17.28C4.6114 16.9949 6.00448 16.2034 6.92307 15.1139C7.86632 16.496 9.42509 17.5706 11.3046 18.1021V19.6121ZM16.2543 9.2305C16.3816 8.84854 16.1752 8.43569 15.7932 8.30837C15.4112 8.18106 14.9984 8.38748 14.8711 8.76944L14.5301 9.79236C14.0524 11.2253 14.0524 12.7746 14.5301 14.2076L14.8711 15.2305C14.9984 15.6125 15.4112 15.8189 15.7932 15.6916C16.1752 15.5642 16.3816 15.1514 16.2543 14.7694L15.9133 13.7465C15.5354 12.6128 15.5354 11.3871 15.9133 10.2534L16.2543 9.2305ZM19.7367 12C19.7367 12.5523 19.289 13 18.7367 13C18.1844 13 17.7367 12.5523 17.7367 12C17.7367 11.4477 18.1844 11 18.7367 11C19.289 11 19.7367 11.4477 19.7367 12Z" fill="#091723" style="fill:#091723;fill:color(display-p3 0.0353 0.0902 0.1373);fill-opacity:1;"/>
</svg>
