<svg width="24" height="24" viewBox="0 0 24 24" fill="none" xmlns="http://www.w3.org/2000/svg">
<path fill-rule="evenodd" clip-rule="evenodd" d="M19 19C19.55 19 20 19.45 20 20C20 20.5107 19.612 20.9352 19.1162 20.9932L19 21H3C2.45 21 2 20.55 2 20C2 19.4893 2.38801 19.0648 2.8838 19.0068L3 19H19ZM8 3V5.4L6.19 6.85C6.094 6.922 6.03 7.0324 6.00824 7.15048L6 7.24V11.5C6 11.7489 6.17383 11.9504 6.40911 11.9921L6.5 12H10.5C10.7489 12 10.9504 11.8262 10.9921 11.5909L11 11.5V7.24C11 7.12 10.9552 7 10.8758 6.91072L10.81 6.85L9 5.4V3H20C21.05 3 21.9178 3.82004 21.9945 4.85131L22 5V8C22 9.05 21.18 9.91777 20.1487 9.99449L20 10H18V13C18 15.143 16.3168 16.8911 14.1997 16.9951L14 17H8C5.85697 17 4.10887 15.3168 4.00489 13.1997L4 13V5C4 3.95 4.82004 3.08223 5.85131 3.00551L6 3H8ZM20 5H18V8H20V5Z" fill="#091723" style="fill:#091723;fill:color(display-p3 0.0353 0.0902 0.1373);fill-opacity:1;"/>
</svg>
